<svg width="150" height="102" viewBox="0 0 150 102" fill="none" xmlns="http://www.w3.org/2000/svg" xmlns:xlink="http://www.w3.org/1999/xlink">
<path d="M98.897,100.23L60.143,100.23L39.31,11.346L5.923,11.346C4.354,11.346 2.848,10.723 1.737,9.613C0.627,8.504 0.002,6.999 0,5.429C0.002,3.86 0.627,2.355 1.737,1.245C2.848,0.136 4.354,-0.487 5.923,-0.487L49.067,-0.487L69.899,88.397L99.015,88.397C120.105,88.397 137.77,71.731 138.173,50.621C138.266,45.503 137.339,40.417 135.446,35.661C133.553,30.904 130.732,26.572 127.147,22.918C123.562,19.263 119.286,16.359 114.567,14.375C109.847,12.39 104.781,11.365 99.661,11.36L64.496,11.36L61.719,-0.445L99.661,-0.445C106.333,-0.435 112.936,0.9 119.088,3.481C125.24,6.062 130.819,9.839 135.501,14.592C140.182,19.346 143.874,24.981 146.361,31.172C148.849,37.362 150.083,43.985 149.992,50.656C149.596,78.287 126.535,100.23 98.897,100.23Z" fill="#66B3FF"/>
<path d="M119.618,59.926C119.119,52.913 118.616,45.906 118.112,38.907C118.081,37.83 117.625,36.81 116.845,36.069C116.064,35.327 115.022,34.924 113.945,34.949C113.091,34.949 112.244,34.949 111.39,34.949C111.084,34.949 110.987,34.872 111.001,34.56C111.024,33.836 110.971,33.112 110.841,32.4C110.352,29.616 108.806,27.128 106.526,25.456C104.246,23.785 101.408,23.058 98.606,23.428C93.155,24.067 88.641,28.671 89.002,34.483C89.002,34.865 88.891,34.928 88.558,34.921C87.655,34.921 86.745,34.921 85.843,34.921C84.891,34.925 83.972,35.272 83.256,35.898C82.539,36.524 82.072,37.388 81.94,38.33C81.746,39.796 81.697,41.282 81.586,42.761C81.308,46.566 81.033,50.371 80.759,54.177C80.516,57.572 80.266,60.961 80.065,64.357C79.922,65.343 79.882,66.341 79.947,67.336C80.093,68.337 80.607,69.248 81.389,69.89C82.171,70.533 83.165,70.86 84.176,70.808L115.66,70.808C116.128,70.818 116.594,70.769 117.049,70.662C117.934,70.449 118.718,69.936 119.267,69.211C119.817,68.486 120.098,67.592 120.063,66.683C119.973,64.44 119.778,62.183 119.618,59.926ZM107.001,34.928C104.668,34.928 102.335,34.928 100.002,34.928C97.668,34.928 95.335,34.928 93.002,34.928C92.53,34.928 92.453,34.789 92.46,34.358C92.457,32.512 93.133,30.728 94.359,29.347C95.585,27.966 97.276,27.084 99.11,26.869C100.945,26.654 102.794,27.12 104.306,28.18C105.819,29.239 106.889,30.818 107.314,32.615C107.44,33.197 107.507,33.791 107.515,34.386C107.536,34.789 107.446,34.935 107.001,34.928Z" fill="#555555"/>
</svg>
