<svg width="50" height="56" viewBox="0 0 50 56" fill="none" xmlns="http://www.w3.org/2000/svg" xmlns:xlink="http://www.w3.org/1999/xlink">
<path d="M6.121,29.879C4.95,28.707 3.05,28.707 1.879,29.879C0.707,31.05 0.707,32.95 1.879,34.121L6.121,29.879ZM48.176,34.121C49.347,32.95 49.347,31.05 48.176,29.879C47.004,28.707 45.105,28.707 43.933,29.879L48.176,34.121ZM1.879,34.121L21.492,53.734L25.734,49.492L6.121,29.879L1.879,34.121ZM28.563,53.734L48.176,34.121L43.933,29.879L24.32,49.492L28.563,53.734ZM21.492,53.734C23.444,55.687 26.61,55.687 28.563,53.734L24.32,49.492C24.711,49.101 25.344,49.101 25.734,49.492L21.492,53.734Z" fill="#FFFFFF"/>
<line x1="23" y1="0" x2="23" y2="38" stroke="#FFFFFF" stroke-width="3" stroke-miterlimit="3.999327" stroke-linecap="round"/>
</svg>
