<svg width="78" height="52" viewBox="0 0 78 52" fill="none" xmlns="http://www.w3.org/2000/svg" xmlns:xlink="http://www.w3.org/1999/xlink">
<path d="M50.386,51.372L30.591,51.372L19.95,5.972L2.897,5.972C2.095,5.972 1.326,5.653 0.758,5.087C0.191,4.52 -0.128,3.751 -0.129,2.95C-0.128,2.148 0.191,1.379 0.758,0.813C1.326,0.246 2.095,-0.072 2.897,-0.072L24.933,-0.072L35.574,45.328L50.446,45.328C61.218,45.328 70.241,36.816 70.447,26.033C70.495,23.419 70.021,20.821 69.054,18.391C68.087,15.962 66.646,13.749 64.815,11.882C62.984,10.016 60.8,8.532 58.389,7.519C55.979,6.505 53.391,5.982 50.776,5.979L32.815,5.979L31.396,-0.051L50.776,-0.051C54.184,-0.046 57.557,0.636 60.699,1.954C63.841,3.273 66.691,5.202 69.082,7.63C71.473,10.058 73.359,12.936 74.629,16.098C75.9,19.26 76.53,22.643 76.484,26.051C76.282,40.164 64.503,51.372 50.386,51.372Z" fill="#66B3FF"/>
<path d="M60.97,30.786C60.715,27.204 60.458,23.625 60.201,20.05C60.185,19.5 59.952,18.979 59.553,18.6C59.155,18.222 58.622,18.016 58.072,18.028C57.636,18.028 57.203,18.028 56.767,18.028C56.611,18.028 56.561,17.989 56.569,17.83C56.581,17.46 56.553,17.09 56.487,16.727C56.237,15.304 55.447,14.034 54.283,13.18C53.118,12.326 51.669,11.955 50.237,12.144C47.453,12.47 45.148,14.822 45.332,17.791C45.332,17.986 45.275,18.018 45.105,18.014C44.644,18.014 44.179,18.014 43.718,18.014C43.232,18.016 42.763,18.193 42.397,18.513C42.031,18.833 41.792,19.274 41.725,19.756C41.626,20.504 41.601,21.263 41.544,22.019C41.402,23.962 41.261,25.906 41.122,27.85C40.998,29.584 40.87,31.315 40.767,33.049C40.694,33.553 40.674,34.063 40.707,34.571C40.781,35.083 41.044,35.548 41.444,35.876C41.843,36.204 42.351,36.371 42.867,36.345L58.949,36.345C59.187,36.35 59.426,36.325 59.658,36.27C60.11,36.161 60.51,35.9 60.791,35.529C61.071,35.158 61.215,34.702 61.197,34.238C61.151,33.092 61.052,31.939 60.97,30.786ZM54.526,18.018C53.334,18.018 52.142,18.018 50.95,18.018C49.759,18.018 48.567,18.018 47.375,18.018C47.134,18.018 47.095,17.947 47.098,17.727C47.097,16.783 47.442,15.872 48.068,15.167C48.694,14.462 49.558,14.011 50.495,13.901C51.432,13.791 52.377,14.03 53.149,14.571C53.922,15.112 54.468,15.918 54.685,16.837C54.75,17.134 54.784,17.437 54.788,17.741C54.799,17.947 54.753,18.021 54.526,18.018Z" fill="#555555"/>
</svg>
