<svg width="106" height="72" viewBox="0 0 106 72" fill="none" xmlns="http://www.w3.org/2000/svg" xmlns:xlink="http://www.w3.org/1999/xlink">
<path d="M68.825,70.887L41.855,70.887L27.357,9.031L4.122,9.031C3.03,9.031 1.982,8.597 1.209,7.825C0.436,7.053 0.001,6.006 0,4.913C0.001,3.821 0.436,2.774 1.209,2.002C1.982,1.23 3.03,0.796 4.122,0.796L34.147,0.796L48.645,62.653L68.907,62.653C83.584,62.653 95.878,51.054 96.158,36.363C96.223,32.801 95.578,29.262 94.26,25.952C92.943,22.642 90.98,19.627 88.485,17.084C85.99,14.541 83.014,12.519 79.73,11.138C76.446,9.757 72.919,9.044 69.357,9.04L44.885,9.04L42.952,0.825L69.357,0.825C74,0.832 78.595,1.761 82.877,3.557C87.158,5.354 91.04,7.982 94.298,11.29C97.556,14.598 100.125,18.52 101.857,22.828C103.588,27.136 104.447,31.745 104.383,36.388C104.108,55.616 88.059,70.887 68.825,70.887Z" fill="#66B3FF"/>
<path d="M83.246,42.839C82.898,37.958 82.548,33.082 82.197,28.211C82.175,27.462 81.858,26.752 81.315,26.235C80.772,25.719 80.047,25.439 79.297,25.456C78.703,25.456 78.113,25.456 77.519,25.456C77.306,25.456 77.239,25.403 77.248,25.185C77.265,24.682 77.227,24.178 77.137,23.682C76.797,21.745 75.721,20.013 74.134,18.85C72.547,17.687 70.573,17.181 68.622,17.439C64.829,17.883 61.688,21.087 61.939,25.132C61.939,25.398 61.862,25.442 61.63,25.437C61.001,25.437 60.368,25.437 59.74,25.437C59.078,25.44 58.439,25.681 57.94,26.117C57.441,26.553 57.116,27.154 57.024,27.809C56.889,28.829 56.855,29.863 56.778,30.893C56.584,33.541 56.393,36.189 56.203,38.837C56.034,41.2 55.86,43.559 55.719,45.922C55.62,46.608 55.592,47.303 55.637,47.995C55.739,48.692 56.097,49.326 56.641,49.773C57.185,50.22 57.877,50.448 58.58,50.411L80.491,50.411C80.816,50.418 81.141,50.384 81.458,50.31C82.073,50.162 82.619,49.805 83.001,49.3C83.383,48.795 83.579,48.174 83.555,47.541C83.492,45.98 83.357,44.409 83.246,42.839ZM74.465,25.442C72.841,25.442 71.217,25.442 69.594,25.442C67.97,25.442 66.346,25.442 64.722,25.442C64.394,25.442 64.341,25.345 64.346,25.045C64.343,23.76 64.813,22.519 65.667,21.558C66.52,20.597 67.697,19.983 68.973,19.833C70.25,19.683 71.537,20.008 72.59,20.745C73.642,21.483 74.387,22.581 74.682,23.832C74.77,24.237 74.817,24.65 74.823,25.065C74.837,25.345 74.774,25.446 74.465,25.442Z" fill="#555555"/>
</svg>
