<svg width="78" height="52" viewBox="0 0 78 52" fill="none" xmlns="http://www.w3.org/2000/svg" xmlns:xlink="http://www.w3.org/1999/xlink">
<path d="M50.515,51.368L30.72,51.368L20.079,5.968L3.025,5.968C2.224,5.968 1.455,5.649 0.887,5.083C0.32,4.516 0.001,3.748 0,2.946C0.001,2.144 0.32,1.375 0.887,0.809C1.455,0.242 2.224,-0.076 3.025,-0.076L25.062,-0.076L35.703,45.324L50.575,45.324C61.347,45.324 70.37,36.812 70.576,26.029C70.624,23.415 70.15,20.817 69.183,18.387C68.216,15.958 66.775,13.745 64.944,11.879C63.113,10.012 60.929,8.528 58.518,7.515C56.108,6.501 53.52,5.978 50.905,5.975L32.944,5.975L31.525,-0.055L50.905,-0.055C54.313,-0.05 57.686,0.632 60.828,1.951C63.97,3.269 66.82,5.198 69.211,7.626C71.602,10.054 73.488,12.932 74.758,16.094C76.029,19.256 76.659,22.639 76.613,26.047C76.411,40.16 64.632,51.368 50.515,51.368Z" fill="#66B3FF"/>
<path d="M61.099,30.783C60.844,27.2 60.587,23.621 60.329,20.046C60.314,19.496 60.081,18.975 59.682,18.596C59.284,18.218 58.751,18.012 58.201,18.024C57.765,18.024 57.332,18.024 56.896,18.024C56.74,18.024 56.69,17.985 56.697,17.826C56.709,17.456 56.682,17.086 56.616,16.723C56.366,15.3 55.576,14.03 54.412,13.176C53.247,12.322 51.798,11.951 50.366,12.14C47.582,12.466 45.276,14.818 45.461,17.787C45.461,17.982 45.404,18.014 45.234,18.01C44.773,18.01 44.308,18.01 43.847,18.01C43.361,18.012 42.892,18.19 42.526,18.509C42.16,18.829 41.921,19.27 41.854,19.752C41.754,20.5 41.73,21.259 41.673,22.015C41.531,23.958 41.39,25.902 41.251,27.846C41.127,29.58 40.999,31.311 40.896,33.045C40.823,33.549 40.803,34.059 40.836,34.567C40.91,35.079 41.173,35.544 41.572,35.872C41.972,36.2 42.48,36.367 42.996,36.341L59.077,36.341C59.316,36.346 59.554,36.321 59.787,36.266C60.239,36.157 60.639,35.896 60.92,35.525C61.2,35.154 61.344,34.698 61.326,34.234C61.28,33.088 61.181,31.935 61.099,30.783ZM54.654,18.014C53.463,18.014 52.271,18.014 51.079,18.014C49.887,18.014 48.696,18.014 47.504,18.014C47.263,18.014 47.224,17.943 47.227,17.723C47.226,16.78 47.571,15.869 48.197,15.163C48.823,14.458 49.687,14.007 50.624,13.897C51.561,13.787 52.505,14.026 53.278,14.567C54.051,15.108 54.597,15.915 54.814,16.833C54.878,17.13 54.913,17.433 54.917,17.737C54.928,17.943 54.881,18.017 54.654,18.014Z" fill="#555555"/>
</svg>
