<svg width="248" height="168" viewBox="0 0 248 168" fill="none" xmlns="http://www.w3.org/2000/svg" xmlns:xlink="http://www.w3.org/1999/xlink">
<path d="M162.95,166.246L99.095,166.246L64.77,19.794L9.76,19.794C7.173,19.794 4.693,18.767 2.863,16.94C1.033,15.112 0.003,12.632 0,10.046C0.003,7.46 1.033,4.98 2.863,3.152C4.693,1.324 7.173,0.298 9.76,0.298L80.846,0.298L115.17,146.749L163.145,146.749C197.893,146.749 227,119.29 227.664,84.507C227.816,76.074 226.29,67.694 223.17,59.857C220.052,52.02 215.402,44.883 209.496,38.861C203.59,32.84 196.543,28.054 188.768,24.785C180.992,21.515 172.644,19.826 164.209,19.817L106.269,19.817L101.692,0.366L164.209,0.366C175.202,0.384 186.081,2.582 196.218,6.836C206.354,11.089 215.546,17.312 223.26,25.144C230.974,32.976 237.056,42.261 241.154,52.461C245.254,62.661 247.286,73.573 247.136,84.565C246.484,130.09 208.488,166.246 162.95,166.246Z" fill="#66B3FF"/>
<path d="M197.092,99.839C196.268,88.283 195.44,76.739 194.609,65.206C194.558,63.432 193.807,61.751 192.521,60.529C191.235,59.307 189.518,58.644 187.744,58.684C186.337,58.684 184.941,58.684 183.533,58.684C183.03,58.684 182.87,58.558 182.893,58.043C182.931,56.851 182.843,55.658 182.63,54.485C181.823,49.897 179.276,45.798 175.519,43.044C171.763,40.289 167.088,39.092 162.47,39.702C153.488,40.755 146.051,48.341 146.646,57.917C146.646,58.547 146.463,58.649 145.914,58.638C144.426,58.638 142.928,58.638 141.44,58.638C139.872,58.645 138.359,59.217 137.178,60.248C135.997,61.28 135.227,62.703 135.01,64.256C134.69,66.67 134.61,69.119 134.427,71.556C133.969,77.826 133.515,84.095 133.065,90.365C132.665,95.96 132.253,101.544 131.921,107.139C131.685,108.764 131.619,110.409 131.726,112.047C131.966,113.697 132.814,115.198 134.103,116.257C135.391,117.315 137.029,117.854 138.694,117.768L190.57,117.768C191.34,117.784 192.109,117.704 192.858,117.528C194.316,117.177 195.607,116.332 196.513,115.137C197.418,113.942 197.881,112.47 197.824,110.972C197.675,107.276 197.355,103.558 197.092,99.839ZM176.302,58.649C172.458,58.649 168.614,58.649 164.769,58.649C160.925,58.649 157.081,58.649 153.236,58.649C152.458,58.649 152.332,58.421 152.344,57.711C152.338,54.668 153.452,51.73 155.472,49.454C157.492,47.179 160.279,45.726 163.301,45.371C166.323,45.016 169.37,45.785 171.862,47.531C174.355,49.277 176.118,51.878 176.817,54.839C177.025,55.798 177.136,56.776 177.149,57.757C177.183,58.421 177.035,58.661 176.302,58.649Z" fill="#555555"/>
</svg>
