<svg width="32" height="18" viewBox="0 0 32 18" fill="none" xmlns="http://www.w3.org/2000/svg" xmlns:xlink="http://www.w3.org/1999/xlink">
<path d="M28.5,7.572C28.5,8.631 27.603,9.993 25.229,11.18C22.944,12.323 19.684,13.072 16,13.072L16,16.072C20.048,16.072 23.788,15.255 26.57,13.864C29.263,12.517 31.5,10.38 31.5,7.572L28.5,7.572ZM16,13.072C12.316,13.072 9.056,12.323 6.771,11.18C4.397,9.993 3.5,8.631 3.5,7.572L0.5,7.572C0.5,10.38 2.737,12.517 5.43,13.864C8.212,15.255 11.952,16.072 16,16.072L16,13.072ZM3.5,7.572C3.5,6.514 4.397,5.151 6.771,3.964C9.056,2.822 12.316,2.072 16,2.072L16,-0.928C11.952,-0.928 8.212,-0.11 5.43,1.281C2.737,2.627 0.5,4.765 0.5,7.572L3.5,7.572ZM16,2.072C19.684,2.072 22.944,2.822 25.229,3.964C27.603,5.151 28.5,6.514 28.5,7.572L31.5,7.572C31.5,4.765 29.263,2.627 26.57,1.281C23.788,-0.11 20.048,-0.928 16,-0.928L16,2.072Z" fill="#C4C4C4"/>
</svg>
