<svg width="44" height="24" viewBox="0 0 44 24" fill="none" xmlns="http://www.w3.org/2000/svg" xmlns:xlink="http://www.w3.org/1999/xlink">
<path d="M38.993,10.897C38.993,12.376 37.739,14.279 34.423,15.938C31.231,17.533 26.676,18.581 21.53,18.581L21.53,22.772C27.185,22.772 32.409,21.63 36.297,19.687C40.059,17.805 43.184,14.819 43.184,10.897L38.993,10.897ZM21.53,18.581C16.383,18.581 11.828,17.533 8.637,15.938C5.32,14.279 4.066,12.376 4.066,10.897L-0.125,10.897C-0.125,14.819 3,17.805 6.762,19.687C10.65,21.63 15.874,22.772 21.53,22.772L21.53,18.581ZM4.066,10.897C4.066,9.418 5.32,7.515 8.637,5.856C11.828,4.261 16.383,3.213 21.53,3.213L21.53,-0.978C15.874,-0.978 10.65,0.164 6.762,2.108C3,3.989 -0.125,6.975 -0.125,10.897L4.066,10.897ZM21.53,3.213C26.676,3.213 31.231,4.261 34.423,5.856C37.739,7.515 38.993,9.418 38.993,10.897L43.184,10.897C43.184,6.975 40.059,3.989 36.297,2.108C32.409,0.164 27.185,-0.978 21.53,-0.978L21.53,3.213Z" fill="#FFFFFF"/>
</svg>
