<svg width="32" height="18" viewBox="0 0 32 18" fill="none" xmlns="http://www.w3.org/2000/svg" xmlns:xlink="http://www.w3.org/1999/xlink">
<path d="M28.5,9C28.5,10.059 27.603,11.421 25.229,12.608C22.944,13.75 19.684,14.5 16,14.5L16,17.5C20.048,17.5 23.788,16.683 26.57,15.291C29.263,13.945 31.5,11.807 31.5,9L28.5,9ZM16,14.5C12.316,14.5 9.056,13.75 6.771,12.608C4.397,11.421 3.5,10.059 3.5,9L0.5,9C0.5,11.807 2.737,13.945 5.43,15.291C8.212,16.683 11.952,17.5 16,17.5L16,14.5ZM3.5,9C3.5,7.941 4.397,6.579 6.771,5.392C9.056,4.25 12.316,3.5 16,3.5L16,0.5C11.952,0.5 8.212,1.317 5.43,2.709C2.737,4.055 0.5,6.193 0.5,9L3.5,9ZM16,3.5C19.684,3.5 22.944,4.25 25.229,5.392C27.603,6.579 28.5,7.941 28.5,9L31.5,9C31.5,6.193 29.263,4.055 26.57,2.709C23.788,1.317 20.048,0.5 16,0.5L16,3.5Z" fill="#FFFFFF"/>
</svg>
