<svg width="32" height="18" viewBox="0 0 32 18" fill="none" xmlns="http://www.w3.org/2000/svg" xmlns:xlink="http://www.w3.org/1999/xlink">
<path d="M28.5,8.293C28.5,9.352 27.603,10.714 25.229,11.901C22.944,13.043 19.684,13.793 16,13.793L16,16.793C20.048,16.793 23.788,15.976 26.57,14.584C29.263,13.238 31.5,11.1 31.5,8.293L28.5,8.293ZM16,13.793C12.316,13.793 9.056,13.043 6.771,11.901C4.397,10.714 3.5,9.352 3.5,8.293L0.5,8.293C0.5,11.1 2.737,13.238 5.43,14.584C8.212,15.976 11.952,16.793 16,16.793L16,13.793ZM3.5,8.293C3.5,7.234 4.397,5.872 6.771,4.685C9.056,3.543 12.316,2.793 16,2.793L16,-0.207C11.952,-0.207 8.212,0.61 5.43,2.002C2.737,3.348 0.5,5.486 0.5,8.293L3.5,8.293ZM16,2.793C19.684,2.793 22.944,3.543 25.229,4.685C27.603,5.872 28.5,7.234 28.5,8.293L31.5,8.293C31.5,5.486 29.263,3.348 26.57,2.002C23.788,0.61 20.048,-0.207 16,-0.207L16,2.793Z" fill="#C4C4C4"/>
</svg>
