<svg width="152" height="30" viewBox="0 0 152 30" fill="none" xmlns="http://www.w3.org/2000/svg" xmlns:xlink="http://www.w3.org/1999/xlink">
<path d="M4.628,3.599L4.628,13.398L16.149,13.398L16.149,16.488L4.628,16.488L4.628,28.536L0.834,28.536L0.834,0.509L18.104,0.509L18.104,3.599L4.628,3.599Z" fill="#FFFFFF"/>
<path d="M30.08,19.617C28.476,19.67 27.107,19.8 25.973,20.009C24.851,20.204 23.932,20.465 23.215,20.791C22.511,21.117 21.996,21.502 21.67,21.945C21.357,22.388 21.2,22.884 21.2,23.431C21.2,23.953 21.285,24.403 21.455,24.781C21.624,25.159 21.852,25.472 22.139,25.72C22.439,25.955 22.785,26.131 23.176,26.248C23.58,26.352 24.01,26.404 24.467,26.404C25.079,26.404 25.64,26.346 26.149,26.228C26.657,26.098 27.133,25.915 27.576,25.681C28.033,25.446 28.463,25.166 28.867,24.84C29.285,24.514 29.689,24.142 30.08,23.725L30.08,19.617ZM18.834,11.52C19.929,10.464 21.109,9.675 22.374,9.154C23.639,8.632 25.04,8.371 26.579,8.371C27.687,8.371 28.672,8.554 29.532,8.919C30.393,9.284 31.117,9.792 31.703,10.444C32.29,11.096 32.733,11.885 33.033,12.811C33.333,13.737 33.483,14.754 33.483,15.862L33.483,28.536L31.938,28.536C31.599,28.536 31.338,28.484 31.156,28.38C30.973,28.263 30.83,28.041 30.725,27.715L30.334,25.837C29.813,26.32 29.304,26.75 28.809,27.128C28.313,27.493 27.792,27.806 27.244,28.067C26.696,28.315 26.11,28.504 25.484,28.634C24.871,28.778 24.186,28.849 23.43,28.849C22.661,28.849 21.937,28.745 21.259,28.536C20.581,28.315 19.988,27.989 19.479,27.558C18.984,27.128 18.586,26.587 18.286,25.935C17.999,25.27 17.856,24.488 17.856,23.588C17.856,22.806 18.071,22.056 18.501,21.339C18.931,20.608 19.629,19.963 20.594,19.402C21.559,18.842 22.817,18.385 24.369,18.033C25.92,17.668 27.824,17.46 30.08,17.407L30.08,15.862C30.08,14.324 29.747,13.163 29.082,12.381C28.417,11.585 27.446,11.188 26.168,11.188C25.308,11.188 24.584,11.298 23.997,11.52C23.423,11.729 22.921,11.97 22.491,12.244C22.074,12.505 21.709,12.746 21.396,12.967C21.096,13.176 20.796,13.28 20.496,13.28C20.261,13.28 20.059,13.222 19.89,13.104C19.72,12.974 19.577,12.818 19.459,12.635L18.834,11.52Z" fill="#FFFFFF"/>
<path d="M55.343,8.723L47.265,28.536L44.136,28.536L36.058,8.723L38.894,8.723C39.181,8.723 39.416,8.795 39.598,8.938C39.781,9.082 39.905,9.251 39.97,9.447L44.997,22.199C45.153,22.682 45.29,23.151 45.407,23.608C45.525,24.064 45.636,24.52 45.74,24.977C45.844,24.52 45.955,24.064 46.072,23.608C46.19,23.151 46.333,22.682 46.503,22.199L51.588,9.447C51.666,9.238 51.797,9.069 51.979,8.938C52.162,8.795 52.377,8.723 52.625,8.723L55.343,8.723Z" fill="#FFFFFF"/>
<path d="M66.353,8.41C67.8,8.41 69.104,8.652 70.265,9.134C71.425,9.616 72.416,10.301 73.238,11.188C74.059,12.074 74.685,13.15 75.115,14.415C75.559,15.667 75.78,17.068 75.78,18.62C75.78,20.185 75.559,21.593 75.115,22.845C74.685,24.096 74.059,25.166 73.238,26.052C72.416,26.939 71.425,27.624 70.265,28.106C69.104,28.575 67.8,28.81 66.353,28.81C64.893,28.81 63.576,28.575 62.402,28.106C61.242,27.624 60.251,26.939 59.429,26.052C58.608,25.166 57.975,24.096 57.532,22.845C57.102,21.593 56.887,20.185 56.887,18.62C56.887,17.068 57.102,15.667 57.532,14.415C57.975,13.15 58.608,12.074 59.429,11.188C60.251,10.301 61.242,9.616 62.402,9.134C63.576,8.652 64.893,8.41 66.353,8.41ZM66.353,26.091C68.309,26.091 69.769,25.44 70.734,24.136C71.699,22.819 72.182,20.987 72.182,18.64C72.182,16.279 71.699,14.441 70.734,13.124C69.769,11.807 68.309,11.149 66.353,11.149C65.362,11.149 64.495,11.318 63.752,11.657C63.021,11.996 62.409,12.485 61.913,13.124C61.431,13.763 61.066,14.552 60.818,15.491C60.583,16.416 60.466,17.466 60.466,18.64C60.466,20.987 60.948,22.819 61.913,24.136C62.891,25.44 64.371,26.091 66.353,26.091Z" fill="#FFFFFF"/>
<path d="M83.502,12.694C84.127,11.338 84.897,10.281 85.809,9.525C86.722,8.756 87.837,8.371 89.154,8.371C89.571,8.371 89.969,8.417 90.347,8.508C90.738,8.599 91.084,8.743 91.384,8.938L91.129,11.54C91.051,11.866 90.856,12.029 90.543,12.029C90.36,12.029 90.093,11.99 89.741,11.911C89.389,11.833 88.991,11.794 88.548,11.794C87.922,11.794 87.361,11.885 86.866,12.068C86.383,12.25 85.946,12.524 85.555,12.889C85.177,13.241 84.832,13.685 84.519,14.219C84.219,14.741 83.945,15.341 83.697,16.019L83.697,28.536L80.196,28.536L80.196,8.723L82.191,8.723C82.569,8.723 82.83,8.795 82.973,8.938C83.117,9.082 83.215,9.33 83.267,9.682L83.502,12.694Z" fill="#FFFFFF"/>
<path d="M98.122,8.723L98.122,28.536L94.641,28.536L94.641,8.723L98.122,8.723ZM98.865,2.504C98.865,2.843 98.794,3.162 98.65,3.462C98.52,3.749 98.337,4.01 98.102,4.244C97.881,4.466 97.614,4.642 97.301,4.772C97.001,4.903 96.681,4.968 96.342,4.968C96.003,4.968 95.684,4.903 95.384,4.772C95.097,4.642 94.843,4.466 94.621,4.244C94.399,4.01 94.223,3.749 94.093,3.462C93.963,3.162 93.897,2.843 93.897,2.504C93.897,2.165 93.963,1.845 94.093,1.545C94.223,1.232 94.399,0.965 94.621,0.743C94.843,0.509 95.097,0.326 95.384,0.196C95.684,0.065 96.003,0 96.342,0C96.681,0 97.001,0.065 97.301,0.196C97.614,0.326 97.881,0.509 98.102,0.743C98.337,0.965 98.52,1.232 98.65,1.545C98.794,1.845 98.865,2.165 98.865,2.504Z" fill="#FFFFFF"/>
<path d="M109.925,28.849C108.36,28.849 107.154,28.412 106.307,27.539C105.472,26.665 105.055,25.407 105.055,23.764L105.055,11.638L102.669,11.638C102.46,11.638 102.284,11.579 102.141,11.461C101.997,11.331 101.926,11.135 101.926,10.875L101.926,9.486L105.172,9.075L105.974,2.953C106.013,2.758 106.098,2.601 106.229,2.484C106.372,2.354 106.555,2.288 106.776,2.288L108.536,2.288L108.536,9.114L114.267,9.114L114.267,11.638L108.536,11.638L108.536,23.529C108.536,24.364 108.739,24.983 109.143,25.387C109.547,25.792 110.069,25.994 110.708,25.994C111.073,25.994 111.386,25.948 111.646,25.857C111.92,25.752 112.155,25.642 112.35,25.524C112.546,25.407 112.709,25.303 112.839,25.211C112.983,25.107 113.107,25.055 113.211,25.055C113.394,25.055 113.557,25.166 113.7,25.387L114.717,27.05C114.117,27.611 113.394,28.054 112.546,28.38C111.699,28.693 110.825,28.849 109.925,28.849Z" fill="#FFFFFF"/>
<path d="M131.008,16.469C131.008,15.66 130.891,14.923 130.656,14.258C130.435,13.58 130.102,13 129.659,12.518C129.229,12.022 128.7,11.644 128.075,11.383C127.449,11.109 126.738,10.972 125.943,10.972C124.274,10.972 122.95,11.461 121.972,12.439C121.007,13.404 120.407,14.747 120.173,16.469L131.008,16.469ZM133.825,25.759C133.395,26.281 132.88,26.737 132.28,27.128C131.68,27.506 131.034,27.819 130.343,28.067C129.665,28.315 128.961,28.497 128.231,28.615C127.501,28.745 126.777,28.81 126.06,28.81C124.691,28.81 123.426,28.582 122.266,28.126C121.118,27.656 120.121,26.978 119.273,26.091C118.439,25.192 117.787,24.083 117.317,22.766C116.848,21.45 116.613,19.937 116.613,18.229C116.613,16.847 116.822,15.556 117.239,14.356C117.669,13.157 118.282,12.12 119.077,11.246C119.873,10.36 120.844,9.669 121.992,9.173C123.139,8.665 124.43,8.41 125.864,8.41C127.051,8.41 128.146,8.612 129.15,9.017C130.167,9.408 131.041,9.982 131.771,10.738C132.514,11.481 133.095,12.407 133.512,13.515C133.929,14.61 134.138,15.862 134.138,17.27C134.138,17.818 134.079,18.183 133.962,18.366C133.844,18.548 133.623,18.64 133.297,18.64L120.055,18.64C120.095,19.891 120.264,20.98 120.564,21.906C120.877,22.832 121.307,23.608 121.855,24.233C122.402,24.846 123.054,25.309 123.811,25.622C124.567,25.922 125.415,26.072 126.353,26.072C127.227,26.072 127.977,25.974 128.603,25.779C129.242,25.57 129.789,25.348 130.246,25.114C130.702,24.879 131.08,24.664 131.38,24.468C131.693,24.259 131.96,24.155 132.182,24.155C132.469,24.155 132.69,24.266 132.847,24.488L133.825,25.759Z" fill="#FFFFFF"/>
<path d="M149.954,11.99C149.797,12.276 149.556,12.42 149.23,12.42C149.035,12.42 148.813,12.348 148.565,12.205C148.317,12.061 148.011,11.905 147.646,11.735C147.294,11.553 146.87,11.39 146.375,11.246C145.879,11.09 145.292,11.012 144.614,11.012C144.028,11.012 143.499,11.09 143.03,11.246C142.561,11.39 142.156,11.592 141.817,11.853C141.491,12.113 141.237,12.42 141.055,12.772C140.885,13.111 140.8,13.483 140.8,13.887C140.8,14.395 140.944,14.819 141.231,15.158C141.531,15.497 141.922,15.79 142.404,16.038C142.887,16.286 143.434,16.508 144.047,16.703C144.66,16.886 145.286,17.088 145.925,17.31C146.577,17.518 147.209,17.753 147.822,18.014C148.435,18.274 148.982,18.6 149.465,18.992C149.947,19.383 150.332,19.865 150.619,20.439C150.919,21 151.069,21.678 151.069,22.473C151.069,23.386 150.906,24.233 150.58,25.016C150.254,25.785 149.771,26.457 149.132,27.03C148.493,27.591 147.711,28.034 146.785,28.36C145.86,28.686 144.79,28.849 143.578,28.849C142.196,28.849 140.944,28.628 139.822,28.184C138.701,27.728 137.749,27.148 136.967,26.444L137.788,25.114C137.893,24.944 138.016,24.814 138.16,24.722C138.303,24.631 138.486,24.585 138.708,24.585C138.942,24.585 139.19,24.677 139.451,24.859C139.712,25.042 140.024,25.244 140.39,25.466C140.768,25.687 141.224,25.889 141.759,26.072C142.293,26.254 142.958,26.346 143.754,26.346C144.432,26.346 145.025,26.261 145.534,26.091C146.042,25.909 146.466,25.668 146.805,25.368C147.144,25.068 147.392,24.722 147.548,24.331C147.718,23.94 147.802,23.523 147.802,23.079C147.802,22.532 147.652,22.082 147.353,21.73C147.066,21.365 146.681,21.058 146.199,20.811C145.716,20.55 145.162,20.328 144.536,20.146C143.923,19.95 143.291,19.748 142.639,19.539C142,19.331 141.368,19.096 140.742,18.835C140.129,18.561 139.581,18.222 139.099,17.818C138.616,17.414 138.225,16.918 137.925,16.332C137.638,15.732 137.495,15.008 137.495,14.161C137.495,13.404 137.651,12.681 137.964,11.99C138.277,11.285 138.734,10.673 139.333,10.151C139.933,9.616 140.67,9.193 141.544,8.88C142.417,8.567 143.415,8.41 144.536,8.41C145.84,8.41 147.007,8.619 148.037,9.036C149.08,9.44 149.98,10.001 150.736,10.718L149.954,11.99Z" fill="#FFFFFF"/>
</svg>
