<svg width="360" height="324" viewBox="0 0 360 324" fill="none" xmlns="http://www.w3.org/2000/svg" xmlns:xlink="http://www.w3.org/1999/xlink">
<path d="M170.572,257.705C164.016,257.705 157.607,259.649 152.156,263.291C146.705,266.934 142.457,272.111 139.948,278.168C137.439,284.224 136.783,290.889 138.062,297.319C139.341,303.749 142.498,309.656 147.133,314.291C151.769,318.927 157.675,322.084 164.105,323.363C170.535,324.642 177.2,323.986 183.257,321.477C189.314,318.968 194.491,314.719 198.133,309.268C201.775,303.817 203.72,297.408 203.72,290.852C203.72,282.061 200.227,273.63 194.011,267.414C187.795,261.197 179.363,257.705 170.572,257.705ZM188.422,290.852C188.429,294.388 187.386,297.846 185.426,300.789C183.466,303.732 180.677,306.027 177.412,307.384C174.147,308.741 170.553,309.099 167.084,308.412C163.616,307.725 160.429,306.024 157.928,303.525C155.427,301.026 153.723,297.841 153.033,294.373C152.343,290.905 152.697,287.311 154.051,284.045C155.405,280.778 157.697,277.987 160.638,276.024C163.579,274.062 167.036,273.016 170.572,273.019C175.292,273.028 179.817,274.902 183.161,278.233C186.505,281.565 188.396,286.083 188.422,290.803L188.422,290.852Z" fill="#FFFFFF"/>
<path d="M261.015,257.705C254.459,257.705 248.05,259.649 242.599,263.291C237.148,266.934 232.9,272.111 230.391,278.168C227.882,284.224 227.225,290.889 228.504,297.319C229.783,303.749 232.94,309.656 237.576,314.291C242.212,318.927 248.118,322.084 254.548,323.363C260.978,324.642 267.643,323.986 273.7,321.477C279.757,318.968 284.934,314.719 288.576,309.268C292.218,303.817 294.162,297.408 294.162,290.852C294.162,286.499 293.305,282.189 291.639,278.168C289.973,274.146 287.532,270.492 284.454,267.414C281.376,264.336 277.722,261.894 273.7,260.228C269.678,258.562 265.368,257.705 261.015,257.705ZM278.881,290.852C278.888,294.388 277.846,297.845 275.886,300.788C273.927,303.73 271.139,306.025 267.875,307.383C264.611,308.74 261.018,309.098 257.55,308.413C254.082,307.727 250.895,306.028 248.393,303.531C245.891,301.034 244.186,297.85 243.494,294.383C242.802,290.917 243.154,287.323 244.505,284.056C245.857,280.789 248.147,277.997 251.085,276.032C254.024,274.068 257.48,273.019 261.015,273.019C265.736,273.028 270.263,274.902 273.61,278.232C276.956,281.563 278.851,286.081 278.881,290.803L278.881,290.852Z" fill="#FFFFFF"/>
<path d="M236.056,240.386L143.557,240.386L93.836,28.242L14.149,28.242C10.403,28.242 6.809,26.754 4.158,24.107C1.508,21.459 0.016,17.867 0.012,14.121C0.016,10.374 1.508,6.783 4.158,4.135C6.809,1.487 10.403,0 14.149,0L117.122,0L166.843,212.144L236.336,212.144C286.672,212.144 328.834,172.367 329.796,121.983C330.018,109.766 327.806,97.628 323.288,86.275C318.77,74.923 312.036,64.584 303.48,55.861C294.924,47.139 284.716,40.207 273.454,35.471C262.19,30.734 250.096,28.288 237.878,28.275L153.949,28.275L147.319,0.099L237.878,0.099C253.802,0.124 269.562,3.31 284.246,9.471C298.93,15.632 312.244,24.646 323.418,35.991C334.592,47.336 343.402,60.786 349.34,75.561C355.276,90.336 358.222,106.143 358.004,122.066C357.06,188.012 302.018,240.386 236.056,240.386Z" fill="#FFFFFF"/>
<path d="M285.511,144.191C284.318,127.452 283.119,110.729 281.914,94.023C281.841,91.454 280.754,89.019 278.89,87.249C277.027,85.479 274.539,84.518 271.97,84.576C269.932,84.576 267.91,84.576 265.871,84.576C265.142,84.576 264.91,84.393 264.943,83.648C264.999,81.921 264.871,80.193 264.562,78.493C263.393,71.847 259.703,65.91 254.262,61.92C248.821,57.93 242.048,56.196 235.359,57.08C222.348,58.605 211.576,69.593 212.437,83.465C212.437,84.377 212.172,84.526 211.377,84.509C209.222,84.509 207.051,84.509 204.896,84.509C202.625,84.519 200.433,85.347 198.722,86.842C197.011,88.337 195.897,90.397 195.582,92.647C195.118,96.144 195.002,99.691 194.737,103.221C194.074,112.303 193.416,121.386 192.764,130.468C192.184,138.573 191.588,146.661 191.107,154.765C190.765,157.119 190.67,159.502 190.825,161.876C191.173,164.266 192.4,166.44 194.267,167.973C196.134,169.506 198.506,170.287 200.919,170.162L276.064,170.162C277.179,170.186 278.293,170.069 279.379,169.814C281.49,169.306 283.361,168.083 284.672,166.351C285.984,164.62 286.655,162.488 286.572,160.318C286.356,154.964 285.892,149.578 285.511,144.191ZM255.396,84.526C249.828,84.526 244.259,84.526 238.69,84.526C233.121,84.526 227.553,84.526 221.984,84.526C220.857,84.526 220.674,84.194 220.691,83.167C220.683,78.759 222.296,74.502 225.223,71.206C228.149,67.91 232.185,65.805 236.563,65.291C240.941,64.777 245.355,65.891 248.965,68.42C252.575,70.949 255.13,74.717 256.142,79.007C256.443,80.396 256.604,81.812 256.623,83.233C256.673,84.194 256.457,84.542 255.396,84.526Z" fill="#FFFFFF"/>
</svg>
