<svg width="276" height="248" viewBox="0 0 276 248" fill="none" xmlns="http://www.w3.org/2000/svg" xmlns:xlink="http://www.w3.org/1999/xlink">
<path d="M130.552,197.256C125.534,197.256 120.629,198.744 116.456,201.532C112.284,204.32 109.032,208.282 107.112,212.918C105.191,217.554 104.689,222.656 105.668,227.578C106.647,232.499 109.063,237.02 112.612,240.569C116.16,244.117 120.681,246.533 125.602,247.512C130.524,248.491 135.626,247.989 140.262,246.069C144.898,244.148 148.861,240.896 151.649,236.724C154.436,232.551 155.924,227.646 155.924,222.628C155.924,215.899 153.251,209.445 148.493,204.687C143.735,199.929 137.281,197.256 130.552,197.256ZM144.215,222.628C144.22,225.334 143.422,227.981 141.922,230.234C140.422,232.486 138.287,234.243 135.788,235.282C133.289,236.32 130.537,236.594 127.883,236.068C125.228,235.542 122.789,234.241 120.874,232.328C118.959,230.415 117.655,227.977 117.127,225.323C116.599,222.668 116.87,219.917 117.906,217.417C118.943,214.917 120.697,212.78 122.948,211.278C125.2,209.776 127.846,208.975 130.552,208.978C134.165,208.984 137.629,210.419 140.188,212.969C142.748,215.519 144.195,218.977 144.215,222.59L144.215,222.628Z" fill="#FFFFFF"/>
<path d="M199.78,197.256C194.762,197.256 189.857,198.744 185.684,201.532C181.512,204.32 178.26,208.282 176.339,212.918C174.419,217.554 173.916,222.656 174.895,227.578C175.874,232.499 178.291,237.02 181.839,240.569C185.388,244.117 189.909,246.533 194.83,247.512C199.752,248.491 204.853,247.989 209.49,246.069C214.126,244.148 218.088,240.896 220.876,236.724C223.664,232.551 225.152,227.646 225.152,222.628C225.152,219.296 224.496,215.997 223.221,212.918C221.946,209.84 220.077,207.043 217.721,204.687C215.365,202.331 212.568,200.462 209.49,199.187C206.411,197.912 203.112,197.256 199.78,197.256ZM213.456,222.628C213.461,225.334 212.663,227.98 211.163,230.232C209.664,232.485 207.53,234.241 205.031,235.28C202.533,236.319 199.782,236.594 197.128,236.069C194.473,235.544 192.034,234.244 190.119,232.332C188.204,230.421 186.899,227.984 186.369,225.33C185.839,222.677 186.109,219.926 187.143,217.426C188.177,214.925 189.93,212.788 192.18,211.284C194.429,209.78 197.074,208.978 199.78,208.978C203.394,208.984 206.859,210.418 209.421,212.968C211.982,215.518 213.432,218.976 213.456,222.59L213.456,222.628Z" fill="#FFFFFF"/>
<path d="M180.675,183.999L109.874,183.999L71.816,21.617L10.821,21.617C7.953,21.617 5.203,20.479 3.174,18.452C1.145,16.425 0.003,13.676 0,10.809C0.003,7.941 1.145,5.192 3.174,3.165C5.203,1.138 7.953,0 10.821,0L89.64,0L127.698,162.382L180.891,162.382C219.418,162.382 251.692,131.935 252.428,93.369C252.598,84.019 250.904,74.727 247.446,66.038C243.988,57.349 238.834,49.435 232.284,42.758C225.734,36.081 217.922,30.776 209.3,27.15C200.68,23.525 191.423,21.653 182.07,21.642L117.828,21.642L112.754,0.076L182.07,0.076C194.259,0.095 206.322,2.533 217.562,7.249C228.8,11.965 238.992,18.865 247.544,27.548C256.098,36.232 262.842,46.527 267.386,57.837C271.93,69.146 274.186,81.246 274.02,93.433C273.296,143.911 231.166,183.999 180.675,183.999Z" fill="#FFFFFF"/>
<path d="M218.53,110.369C217.617,97.556 216.699,84.755 215.777,71.968C215.721,70.002 214.889,68.138 213.463,66.783C212.036,65.428 210.132,64.693 208.166,64.737C206.605,64.737 205.058,64.737 203.497,64.737C202.939,64.737 202.761,64.597 202.787,64.026C202.829,62.705 202.732,61.382 202.495,60.081C201.601,54.994 198.776,50.45 194.611,47.396C190.446,44.341 185.262,43.014 180.142,43.691C170.184,44.858 161.938,53.269 162.597,63.887C162.597,64.585 162.394,64.699 161.785,64.686C160.136,64.686 158.474,64.686 156.825,64.686C155.086,64.694 153.409,65.328 152.099,66.472C150.79,67.616 149.937,69.193 149.696,70.915C149.34,73.592 149.252,76.307 149.049,79.009C148.541,85.961 148.038,92.913 147.539,99.865C147.095,106.068 146.638,112.259 146.27,118.462C146.008,120.264 145.936,122.088 146.055,123.905C146.321,125.734 147.26,127.399 148.689,128.572C150.118,129.745 151.934,130.343 153.78,130.248L211.299,130.248C212.153,130.266 213.005,130.177 213.836,129.981C215.453,129.593 216.885,128.656 217.888,127.331C218.892,126.005 219.406,124.373 219.342,122.712C219.177,118.615 218.822,114.492 218.53,110.369ZM195.48,64.699C191.217,64.699 186.955,64.699 182.692,64.699C178.429,64.699 174.167,64.699 169.904,64.699C169.042,64.699 168.902,64.445 168.915,63.659C168.909,60.285 170.143,57.026 172.383,54.503C174.624,51.981 177.713,50.369 181.064,49.976C184.415,49.583 187.793,50.435 190.557,52.371C193.32,54.307 195.275,57.191 196.05,60.474C196.281,61.538 196.404,62.621 196.418,63.709C196.456,64.445 196.291,64.712 195.48,64.699Z" fill="#FFFFFF"/>
</svg>
