<svg width="36" height="32" viewBox="0 0 36 32" fill="none" xmlns="http://www.w3.org/2000/svg" xmlns:xlink="http://www.w3.org/1999/xlink">
<path d="M32.237,3.895C30.454,1.899 28.082,0.801 25.559,0.801C23.036,0.801 20.918,1.899 19.133,3.895L18,5.705L16.867,3.895C15.083,1.899 12.964,0.801 10.442,0.801C7.919,0.801 5.546,1.899 3.762,3.895C0.079,8.015 0.079,14.72 3.762,18.839L16.96,31.523C17.176,31.765 17.444,31.913 17.725,31.97C17.819,31.991 17.914,32.001 18.008,32.001C18.382,32.001 18.756,31.842 19.04,31.523L32.238,18.839C35.921,14.72 35.921,8.015 32.237,3.895Z" clip-rule="evenodd" fill-rule="evenodd" fill="#FFFFFF"/>
</svg>
