<svg width="48" height="50" viewBox="0 0 48 50" fill="none" xmlns="http://www.w3.org/2000/svg" xmlns:xlink="http://www.w3.org/1999/xlink">
<path d="M18,14.938L19.5,14.938L18,14.938ZM19.5,12.938C19.5,12.11 18.828,11.438 18,11.438C17.172,11.438 16.5,12.11 16.5,12.938L19.5,12.938ZM31.5,12.938C31.5,12.11 30.828,11.438 30,11.438C29.172,11.438 28.5,12.11 28.5,12.938L31.5,12.938ZM30,14.938L31.5,14.938L31.5,14.938L30,14.938ZM24,20.938L24,22.438L24,20.938ZM19.5,14.938L19.5,12.938L16.5,12.938L16.5,14.938L19.5,14.938ZM28.5,12.938L28.5,14.938L31.5,14.938L31.5,12.938L28.5,12.938ZM24,19.438C21.515,19.438 19.5,17.424 19.5,14.938L16.5,14.938C16.5,19.081 19.858,22.438 24,22.438L24,19.438ZM24,22.438C28.142,22.438 31.5,19.081 31.5,14.938L28.5,14.938C28.5,17.424 26.485,19.438 24,19.438L24,22.438Z" fill="#434343"/>
<path d="M39.114,13.623L40.593,13.377L40.593,13.377L39.114,13.623ZM42.447,33.623L40.968,33.87L40.968,33.87L42.447,33.623ZM8.886,13.623L7.406,13.377L7.406,13.377L8.886,13.623ZM5.552,33.623L7.032,33.87L7.032,33.87L5.552,33.623ZM16.777,8.438L31.223,8.438L31.223,5.438L16.777,5.438L16.777,8.438ZM37.634,13.87L40.968,33.87L43.927,33.377L40.593,13.377L37.634,13.87ZM34.556,41.438L13.443,41.438L13.443,44.438L34.556,44.438L34.556,41.438ZM7.406,13.377L4.073,33.377L7.032,33.87L10.365,13.87L7.406,13.377ZM16.777,5.438C12.133,5.438 8.169,8.796 7.406,13.377L10.365,13.87C10.888,10.736 13.599,8.438 16.777,8.438L16.777,5.438ZM31.223,8.438C34.4,8.438 37.112,10.736 37.634,13.87L40.593,13.377C39.83,8.796 35.867,5.438 31.223,5.438L31.223,8.438ZM40.968,33.87C41.628,37.832 38.573,41.438 34.556,41.438L34.556,44.438C40.426,44.438 44.892,39.167 43.927,33.377L40.968,33.87ZM13.443,41.438C9.427,41.438 6.372,37.832 7.032,33.87L4.073,33.377C3.108,39.167 7.573,44.438 13.443,44.438L13.443,41.438Z" fill="#434343"/>
</svg>
