<svg width="42" height="30" viewBox="0 0 42 30" fill="none" xmlns="http://www.w3.org/2000/svg" xmlns:xlink="http://www.w3.org/1999/xlink">
<path d="M38.938,-0.875C38.25,-1 37.625,-0.563 37.5,0.125L36.938,3.625C34.625,2.687 31.938,3 29.938,4.625C28.313,5.937 25.938,5.937 24.313,4.625C21.75,2.562 18.125,2.562 15.563,4.625C13.938,5.937 11.563,5.937 9.938,4.625C7.938,3 5.25,2.687 2.938,3.625L2.5,0.125C2.375,-0.563 1.75,-1 1.063,-0.875C0.375,-0.813 -0.062,-0.188 0,0.5L4.313,27.812C4.438,28.437 4.938,28.875 5.563,28.875L34.438,28.875C35.063,28.875 35.563,28.437 35.688,27.812L40,0.5C40.063,-0.188 39.625,-0.813 38.938,-0.875ZM33.375,26.437L6.625,26.437L3.438,6.187C5,5.312 7,5.437 8.438,6.562C11,8.625 14.625,8.625 17.188,6.562C18.813,5.25 21.188,5.25 22.813,6.562C24.063,7.562 25.625,8.125 27.188,8.125C28.75,8.125 30.313,7.625 31.563,6.562C33,5.375 35,5.25 36.563,6.187L33.375,26.437Z" fill="#434343"/>
<path d="M16.625,15.563L18.375,13.563L18.375,12.25L13.063,12.25L13.063,13.875L15.813,13.875L14.125,15.813L14.125,17.25C14.625,17.063 15,17 15.313,17C15.813,17 16.25,17.125 16.5,17.313C16.813,17.5 16.938,17.813 16.938,18.188C16.938,18.563 16.813,18.813 16.563,19C16.313,19.188 16,19.313 15.625,19.313C15,19.313 14.25,19 13.438,18.438L12.625,20C13.625,20.688 14.563,21 15.563,21C16.5,21 17.313,20.75 17.938,20.25C18.563,19.75 18.875,19 18.875,18.125C18.875,17.5 18.688,17 18.313,16.5C17.875,16 17.313,15.688 16.625,15.563Z" fill="#434343"/>
<path d="M23.813,12C22.625,12 21.687,12.438 21.125,13.25C20.5,14.063 20.25,15.188 20.25,16.5C20.25,17.875 20.562,18.938 21.125,19.75C21.75,20.563 22.625,21 23.813,21C25,21 25.938,20.563 26.5,19.75C27.125,18.938 27.375,17.813 27.375,16.5C27.375,15.125 27.063,14.063 26.5,13.25C25.875,12.438 25,12 23.813,12ZM25.063,18.625C24.813,19.125 24.375,19.438 23.75,19.438C23.188,19.438 22.75,19.188 22.5,18.625C22.25,18.125 22.062,17.375 22.062,16.5C22.062,15.625 22.188,14.938 22.5,14.375C22.75,13.875 23.188,13.563 23.75,13.563C24.313,13.563 24.75,13.813 25.063,14.375C25.313,14.875 25.5,15.625 25.5,16.5C25.5,17.375 25.375,18.063 25.063,18.625Z" fill="#434343"/>
</svg>
