<svg width="40" height="30" viewBox="0 0 40 30" fill="none" xmlns="http://www.w3.org/2000/svg" xmlns:xlink="http://www.w3.org/1999/xlink">
<path d="M38.75,-0.873L16.25,-0.873C15.563,-0.873 15,-0.311 15,0.377C15,1.064 15.563,1.627 16.25,1.627L37.5,1.627L37.5,11.064L16.25,11.064C7.313,11.064 0,18.377 0,27.315C0,28.002 0.563,28.565 1.25,28.565L38.75,28.565C39.438,28.565 40,28.002 40,27.315L40,0.377C40,-0.311 39.438,-0.873 38.75,-0.873ZM37.5,26.127L2.563,26.127C3.188,19.127 9.125,13.627 16.25,13.627L37.5,13.627L37.5,26.127Z" fill="#434343"/>
<path d="M21.563,23.689C23.688,23.689 25.375,22.002 25.375,19.877C25.375,17.752 23.688,16.064 21.563,16.064C19.438,16.064 17.75,17.752 17.75,19.877C17.75,22.002 19.5,23.689 21.563,23.689ZM21.563,18.564C22.313,18.564 22.875,19.127 22.875,19.877C22.875,20.627 22.313,21.189 21.563,21.189C20.813,21.189 20.25,20.627 20.25,19.877C20.25,19.127 20.875,18.564 21.563,18.564Z" fill="#434343"/>
</svg>
