<svg width="48" height="50" viewBox="0 0 48 50" fill="none" xmlns="http://www.w3.org/2000/svg" xmlns:xlink="http://www.w3.org/1999/xlink">
<path d="M18,14.939L19.5,14.939L18,14.939ZM19.5,12.939C19.5,12.111 18.828,11.439 18,11.439C17.172,11.439 16.5,12.111 16.5,12.939L19.5,12.939ZM31.5,12.939C31.5,12.111 30.828,11.439 30,11.439C29.172,11.439 28.5,12.111 28.5,12.939L31.5,12.939ZM30,14.939L31.5,14.939L31.5,14.939L30,14.939ZM24,20.939L24,22.439L24,20.939ZM19.5,14.939L19.5,12.939L16.5,12.939L16.5,14.939L19.5,14.939ZM28.5,12.939L28.5,14.939L31.5,14.939L31.5,12.939L28.5,12.939ZM24,19.439C21.515,19.439 19.5,17.425 19.5,14.939L16.5,14.939C16.5,19.082 19.858,22.439 24,22.439L24,19.439ZM24,22.439C28.142,22.439 31.5,19.082 31.5,14.939L28.5,14.939C28.5,17.425 26.485,19.439 24,19.439L24,22.439Z" fill="#434343"/>
<path d="M39.114,13.624L40.593,13.378L40.593,13.378L39.114,13.624ZM42.447,33.624L40.968,33.871L40.968,33.871L42.447,33.624ZM8.886,13.624L7.406,13.378L7.406,13.378L8.886,13.624ZM5.552,33.624L7.032,33.871L7.032,33.871L5.552,33.624ZM16.777,8.439L31.223,8.439L31.223,5.439L16.777,5.439L16.777,8.439ZM37.634,13.871L40.968,33.871L43.927,33.378L40.593,13.378L37.634,13.871ZM34.556,41.439L13.443,41.439L13.443,44.439L34.556,44.439L34.556,41.439ZM7.406,13.378L4.073,33.378L7.032,33.871L10.365,13.871L7.406,13.378ZM16.777,5.439C12.133,5.439 8.169,8.797 7.406,13.378L10.365,13.871C10.888,10.737 13.599,8.439 16.777,8.439L16.777,5.439ZM31.223,8.439C34.4,8.439 37.112,10.737 37.634,13.871L40.593,13.378C39.83,8.797 35.867,5.439 31.223,5.439L31.223,8.439ZM40.968,33.871C41.628,37.833 38.573,41.439 34.556,41.439L34.556,44.439C40.426,44.439 44.892,39.168 43.927,33.378L40.968,33.871ZM13.443,41.439C9.427,41.439 6.372,37.833 7.032,33.871L4.073,33.378C3.108,39.168 7.573,44.439 13.443,44.439L13.443,41.439Z" fill="#434343"/>
</svg>
