<svg width="48" height="48" viewBox="0 0 48 48" fill="none" xmlns="http://www.w3.org/2000/svg" xmlns:xlink="http://www.w3.org/1999/xlink">
<path d="M18,14L19.5,14L18,14ZM19.5,12C19.5,11.172 18.828,10.5 18,10.5C17.172,10.5 16.5,11.172 16.5,12L19.5,12ZM31.5,12C31.5,11.172 30.828,10.5 30,10.5C29.172,10.5 28.5,11.172 28.5,12L31.5,12ZM30,14L31.5,14L31.5,14L30,14ZM24,20L24,21.5L24,20ZM19.5,14L19.5,12L16.5,12L16.5,14L19.5,14ZM28.5,12L28.5,14L31.5,14L31.5,12L28.5,12ZM24,18.5C21.515,18.5 19.5,16.485 19.5,14L16.5,14C16.5,18.142 19.858,21.5 24,21.5L24,18.5ZM24,21.5C28.142,21.5 31.5,18.142 31.5,14L28.5,14C28.5,16.485 26.485,18.5 24,18.5L24,21.5Z" fill="#FFFFFF"/>
<path d="M39.114,12.685L40.593,12.438L40.593,12.438L39.114,12.685ZM42.447,32.685L40.968,32.931L40.968,32.931L42.447,32.685ZM8.886,12.685L7.406,12.438L7.406,12.438L8.886,12.685ZM5.552,32.685L7.032,32.931L7.032,32.931L5.552,32.685ZM16.777,7.5L31.223,7.5L31.223,4.5L16.777,4.5L16.777,7.5ZM37.634,12.931L40.968,32.931L43.927,32.438L40.593,12.438L37.634,12.931ZM34.556,40.5L13.443,40.5L13.443,43.5L34.556,43.5L34.556,40.5ZM7.406,12.438L4.073,32.438L7.032,32.931L10.365,12.931L7.406,12.438ZM16.777,4.5C12.133,4.5 8.169,7.857 7.406,12.438L10.365,12.931C10.888,9.797 13.599,7.5 16.777,7.5L16.777,4.5ZM31.223,7.5C34.4,7.5 37.112,9.797 37.634,12.931L40.593,12.438C39.83,7.857 35.867,4.5 31.223,4.5L31.223,7.5ZM40.968,32.931C41.628,36.893 38.573,40.5 34.556,40.5L34.556,43.5C40.426,43.5 44.892,38.229 43.927,32.438L40.968,32.931ZM13.443,40.5C9.427,40.5 6.372,36.893 7.032,32.931L4.073,32.438C3.108,38.229 7.573,43.5 13.443,43.5L13.443,40.5Z" fill="#FFFFFF"/>
</svg>
