<svg width="40" height="30" viewBox="0 0 40 30" fill="none" xmlns="http://www.w3.org/2000/svg" xmlns:xlink="http://www.w3.org/1999/xlink">
<path d="M38.75,-0.75L16.25,-0.75C15.563,-0.75 15,-0.188 15,0.5C15,1.188 15.563,1.75 16.25,1.75L37.5,1.75L37.5,11.188L16.25,11.188C7.313,11.188 0,18.5 0,27.438C0,28.125 0.563,28.688 1.25,28.688L38.75,28.688C39.438,28.688 40,28.125 40,27.438L40,0.5C40,-0.188 39.438,-0.75 38.75,-0.75ZM37.5,26.25L2.563,26.25C3.188,19.25 9.125,13.75 16.25,13.75L37.5,13.75L37.5,26.25Z" fill="#434343"/>
<path d="M21.563,23.813C23.688,23.813 25.375,22.125 25.375,20C25.375,17.875 23.688,16.188 21.563,16.188C19.438,16.188 17.75,17.875 17.75,20C17.75,22.125 19.5,23.813 21.563,23.813ZM21.563,18.688C22.313,18.688 22.875,19.25 22.875,20C22.875,20.75 22.313,21.313 21.563,21.313C20.813,21.313 20.25,20.75 20.25,20C20.25,19.25 20.875,18.688 21.563,18.688Z" fill="#434343"/>
</svg>
