<svg width="216" height="48" viewBox="0 0 216 48" fill="none" xmlns="http://www.w3.org/2000/svg" xmlns:xlink="http://www.w3.org/1999/xlink">
<path d="M30.675,15.831L45.6,17.985L34.8,28.439L37.35,43.2L24,36.231L10.651,43.2L13.2,28.439L2.4,17.985L17.326,15.831L24,2.4L30.675,15.831Z" clip-rule="evenodd" fill-rule="evenodd" fill="#FFC000"/>
<path d="M24,2.4L24,36.231L10.651,43.2L13.2,28.439L2.4,17.985L17.326,15.831L24,2.4L24,2.4Z" clip-rule="evenodd" fill-rule="evenodd" fill="#FFC000"/>
<path d="M72.675,15.831L87.6,17.985L76.8,28.439L79.35,43.2L66,36.231L52.651,43.2L55.2,28.439L44.4,17.985L59.326,15.831L66,2.4L72.675,15.831Z" clip-rule="evenodd" fill-rule="evenodd" fill="#FFC000"/>
<path d="M66,2.4L66,36.231L52.651,43.2L55.2,28.439L44.4,17.985L59.326,15.831L66,2.4L66,2.4Z" clip-rule="evenodd" fill-rule="evenodd" fill="#FFC000"/>
<path d="M114.675,15.831L129.6,17.985L118.8,28.439L121.35,43.2L108,36.231L94.651,43.2L97.2,28.439L86.4,17.985L101.326,15.831L108,2.4L114.675,15.831Z" clip-rule="evenodd" fill-rule="evenodd" fill="#FFC000"/>
<path d="M108,2.4L108,36.231L94.651,43.2L97.2,28.439L86.4,17.985L101.326,15.831L108,2.4L108,2.4Z" clip-rule="evenodd" fill-rule="evenodd" fill="#FFC000"/>
<path d="M156.675,15.831L171.6,17.985L160.8,28.439L163.35,43.2L150,36.231L136.651,43.2L139.2,28.439L128.4,17.985L143.326,15.831L150,2.4L156.675,15.831Z" clip-rule="evenodd" fill-rule="evenodd" fill="#FFC000"/>
<path d="M150,2.4L150,36.231L136.651,43.2L139.2,28.439L128.4,17.985L143.326,15.831L150,2.4L150,2.4Z" clip-rule="evenodd" fill-rule="evenodd" fill="#FFC000"/>
<path d="M198.675,15.831L213.6,17.985L202.8,28.439L205.35,43.2L192,36.231L178.651,43.2L181.2,28.439L170.4,17.985L185.326,15.831L192,2.4L198.675,15.831Z" clip-rule="evenodd" fill-rule="evenodd" fill="#C4C4C4"/>
<path d="M192,2.4L192,36.231L178.651,43.2L181.2,28.439L170.4,17.985L185.326,15.831L192,2.4L192,2.4Z" clip-rule="evenodd" fill-rule="evenodd" fill="#FFC000"/>
</svg>
