<svg width="42" height="32" viewBox="0 0 42 32" fill="none" xmlns="http://www.w3.org/2000/svg" xmlns:xlink="http://www.w3.org/1999/xlink">
<path d="M38.938,1.002C38.25,0.877 37.625,1.314 37.5,2.002L36.938,5.502C34.625,4.564 31.938,4.877 29.938,6.502C28.313,7.814 25.938,7.814 24.313,6.502C21.75,4.439 18.125,4.439 15.563,6.502C13.938,7.814 11.563,7.814 9.938,6.502C7.938,4.877 5.25,4.564 2.938,5.502L2.5,2.002C2.375,1.314 1.75,0.877 1.063,1.002C0.375,1.064 -0.062,1.689 0,2.377L4.313,29.689C4.438,30.314 4.938,30.752 5.563,30.752L34.438,30.752C35.063,30.752 35.563,30.314 35.688,29.689L40,2.377C40.063,1.689 39.625,1.064 38.938,1.002ZM33.375,28.314L6.625,28.314L3.438,8.064C5,7.189 7,7.314 8.438,8.439C11,10.502 14.625,10.502 17.188,8.439C18.813,7.127 21.188,7.127 22.813,8.439C24.063,9.439 25.625,10.002 27.188,10.002C28.75,10.002 30.313,9.502 31.563,8.439C33,7.252 35,7.127 36.563,8.064L33.375,28.314Z" fill="#434343"/>
<path d="M16.625,17.439L18.375,15.439L18.375,14.127L13.063,14.127L13.063,15.752L15.813,15.752L14.125,17.689L14.125,19.127C14.625,18.939 15,18.877 15.313,18.877C15.813,18.877 16.25,19.002 16.5,19.189C16.813,19.377 16.938,19.689 16.938,20.064C16.938,20.439 16.813,20.689 16.563,20.877C16.313,21.064 16,21.189 15.625,21.189C15,21.189 14.25,20.877 13.438,20.314L12.625,21.877C13.625,22.564 14.563,22.877 15.563,22.877C16.5,22.877 17.313,22.627 17.938,22.127C18.563,21.627 18.875,20.877 18.875,20.002C18.875,19.377 18.688,18.877 18.313,18.377C17.875,17.877 17.313,17.564 16.625,17.439Z" fill="#434343"/>
<path d="M23.813,13.877C22.625,13.877 21.687,14.314 21.125,15.127C20.5,15.939 20.25,17.064 20.25,18.377C20.25,19.752 20.562,20.814 21.125,21.627C21.75,22.439 22.625,22.877 23.813,22.877C25,22.877 25.938,22.439 26.5,21.627C27.125,20.814 27.375,19.689 27.375,18.377C27.375,17.002 27.063,15.939 26.5,15.127C25.875,14.314 25,13.877 23.813,13.877ZM25.063,20.502C24.813,21.002 24.375,21.314 23.75,21.314C23.188,21.314 22.75,21.064 22.5,20.502C22.25,20.002 22.062,19.252 22.062,18.377C22.062,17.502 22.188,16.814 22.5,16.252C22.75,15.752 23.188,15.439 23.75,15.439C24.313,15.439 24.75,15.689 25.063,16.252C25.313,16.752 25.5,17.502 25.5,18.377C25.5,19.252 25.375,19.939 25.063,20.502Z" fill="#434343"/>
</svg>
