<svg width="40" height="40" viewBox="0 0 40 40" fill="none" xmlns="http://www.w3.org/2000/svg" xmlns:xlink="http://www.w3.org/1999/xlink">
<path d="M38.75,-0.123L16.25,-0.123C15.563,-0.123 15,0.439 15,1.127C15,1.814 15.563,2.377 16.25,2.377L37.5,2.377L37.5,9.314L16.25,9.314C7.313,9.314 0,16.627 0,25.565C0,26.252 0.563,26.815 1.25,26.815L38.75,26.815C39.438,26.815 40,26.252 40,25.565L40,1.127C40,0.439 39.438,-0.123 38.75,-0.123ZM37.5,24.315L2.563,24.315C3.188,17.314 9.125,11.814 16.25,11.814L37.5,11.814L37.5,24.315Z" fill="#434343"/>
<path d="M13.313,29.377C12.688,29.127 11.938,29.502 11.688,30.127L8.75,38.19C8.5,38.815 8.875,39.565 9.5,39.815C9.625,39.877 9.813,39.877 9.938,39.877C10.438,39.877 10.938,39.565 11.125,39.065L14.063,31.002C14.313,30.377 14,29.627 13.313,29.377Z" fill="#434343"/>
<path d="M20,29.314C19.313,29.314 18.75,29.877 18.75,30.564L18.75,38.627C18.75,39.314 19.313,39.877 20,39.877C20.688,39.877 21.25,39.314 21.25,38.627L21.25,30.564C21.25,29.877 20.688,29.314 20,29.314Z" fill="#434343"/>
<path d="M28.25,30.127C28,29.502 27.313,29.127 26.625,29.377C26,29.627 25.625,30.315 25.875,31.002L28.813,39.065C29,39.565 29.5,39.877 30,39.877C30.125,39.877 30.313,39.877 30.438,39.815C31.063,39.565 31.438,38.877 31.188,38.19L28.25,30.127Z" fill="#434343"/>
</svg>
