<svg width="32" height="40" viewBox="0 0 32 40" fill="none" xmlns="http://www.w3.org/2000/svg" xmlns:xlink="http://www.w3.org/1999/xlink">
<path d="M25.75,4.939L25.25,4.939C24.563,4.939 24,5.502 24,6.189C24,6.877 24.563,7.439 25.25,7.439L25.75,7.439C26.438,7.439 27,6.877 27,6.189C27,5.502 26.438,4.939 25.75,4.939Z" fill="#434343"/>
<path d="M20.813,4.939L20.313,4.939C19.625,4.939 19.063,5.502 19.063,6.189C19.063,6.877 19.625,7.439 20.313,7.439L20.813,7.439C21.5,7.439 22.063,6.877 22.063,6.189C22.063,5.502 21.5,4.939 20.813,4.939Z" fill="#434343"/>
<path d="M28.25,-0.123L3.75,-0.123C1.688,-0.123 0,1.564 0,3.627L0,36.127C0,38.189 1.688,39.877 3.75,39.877L28.188,39.877C30.25,39.877 31.938,38.189 31.938,36.127L31.938,3.627C32,1.564 30.312,-0.123 28.25,-0.123ZM29.5,36.127C29.5,36.815 28.937,37.377 28.25,37.377L3.75,37.377C3.063,37.377 2.5,36.815 2.5,36.127L2.5,12.502L29.438,12.502L29.438,36.127L29.5,36.127ZM29.5,10.002L2.5,10.002L2.5,3.627C2.5,2.939 3.063,2.377 3.75,2.377L28.188,2.377C28.875,2.377 29.438,2.939 29.438,3.627L29.438,10.002L29.5,10.002Z" fill="#434343"/>
<path d="M16,34.189C21.125,34.189 25.25,30.064 25.25,24.939C25.25,19.814 21.125,15.689 16,15.689C10.875,15.689 6.75,19.814 6.75,24.939C6.75,30.002 10.875,34.189 16,34.189ZM16,31.689C13.188,31.689 10.75,29.939 9.75,27.502C10.5,27.814 11.375,28.064 12.313,28.064L12.563,28.064C14.25,28.002 15.688,27.252 17,25.814C17.813,24.877 18.688,24.439 19.625,24.377C20.938,24.314 22.188,25.064 22.813,25.564C22.438,28.939 19.563,31.689 16,31.689ZM16,18.189C18.813,18.189 21.25,19.939 22.25,22.377C21.438,22.064 20.5,21.814 19.5,21.877C17.813,21.939 16.375,22.689 15.063,24.127C14.25,25.064 13.375,25.502 12.438,25.564C11.125,25.627 9.875,24.877 9.25,24.377C9.563,20.877 12.438,18.189 16,18.189Z" fill="#434343"/>
</svg>
