<svg width="216" height="48" viewBox="0 0 216 48" fill="none" xmlns="http://www.w3.org/2000/svg" xmlns:xlink="http://www.w3.org/1999/xlink">
<path d="M30.675,15.708L45.6,17.862L34.8,28.316L37.35,43.077L24,36.108L10.651,43.077L13.2,28.316L2.4,17.862L17.326,15.708L24,2.277L30.675,15.708Z" clip-rule="evenodd" fill-rule="evenodd" fill="#FFC000"/>
<path d="M24,2.277L24,36.108L10.651,43.077L13.2,28.316L2.4,17.862L17.326,15.708L24,2.277L24,2.277Z" clip-rule="evenodd" fill-rule="evenodd" fill="#FFC000"/>
<path d="M72.675,15.708L87.6,17.862L76.8,28.316L79.35,43.077L66,36.108L52.651,43.077L55.2,28.316L44.4,17.862L59.326,15.708L66,2.277L72.675,15.708Z" clip-rule="evenodd" fill-rule="evenodd" fill="#FFC000"/>
<path d="M66,2.277L66,36.108L52.651,43.077L55.2,28.316L44.4,17.862L59.326,15.708L66,2.277L66,2.277Z" clip-rule="evenodd" fill-rule="evenodd" fill="#FFC000"/>
<path d="M114.675,15.708L129.6,17.862L118.8,28.316L121.35,43.077L108,36.108L94.651,43.077L97.2,28.316L86.4,17.862L101.326,15.708L108,2.277L114.675,15.708Z" clip-rule="evenodd" fill-rule="evenodd" fill="#FFC000"/>
<path d="M108,2.277L108,36.108L94.651,43.077L97.2,28.316L86.4,17.862L101.326,15.708L108,2.277L108,2.277Z" clip-rule="evenodd" fill-rule="evenodd" fill="#FFC000"/>
<path d="M156.675,15.708L171.6,17.862L160.8,28.316L163.35,43.077L150,36.108L136.651,43.077L139.2,28.316L128.4,17.862L143.326,15.708L150,2.277L156.675,15.708Z" clip-rule="evenodd" fill-rule="evenodd" fill="#FFC000"/>
<path d="M150,2.277L150,36.108L136.651,43.077L139.2,28.316L128.4,17.862L143.326,15.708L150,2.277L150,2.277Z" clip-rule="evenodd" fill-rule="evenodd" fill="#FFC000"/>
<path d="M198.675,15.708L213.6,17.862L202.8,28.316L205.35,43.077L192,36.108L178.651,43.077L181.2,28.316L170.4,17.862L185.326,15.708L192,2.277L198.675,15.708Z" clip-rule="evenodd" fill-rule="evenodd" fill="#C4C4C4"/>
<path d="M192,2.277L192,36.108L178.651,43.077L181.2,28.316L170.4,17.862L185.326,15.708L192,2.277L192,2.277Z" clip-rule="evenodd" fill-rule="evenodd" fill="#FFC000"/>
</svg>
