<svg width="36" height="36" viewBox="0 0 36 36" fill="none" xmlns="http://www.w3.org/2000/svg" xmlns:xlink="http://www.w3.org/1999/xlink">
<path d="M18,35.877C8.059,35.877 0,27.818 0,17.877C0,7.936 8.059,-0.123 18,-0.123C27.941,-0.123 36,7.936 36,17.877C36,27.818 27.941,35.877 18,35.877ZM20,15.877L20,7.877C20,6.772 19.105,5.877 18,5.877C16.895,5.877 16,6.772 16,7.877L16,15.877L8,15.877C6.895,15.877 6,16.772 6,17.877C6,18.982 6.895,19.877 8,19.877L16,19.877L16,27.877C16,28.982 16.895,29.877 18,29.877C19.105,29.877 20,28.982 20,27.877L20,19.877L28,19.877C29.105,19.877 30,18.982 30,17.877C30,16.772 29.105,15.877 28,15.877L20,15.877Z" clip-rule="evenodd" fill-rule="evenodd" fill="#C4C4C4"/>
</svg>
