<svg width="28" height="28" viewBox="0 0 28 28" fill="none" xmlns="http://www.w3.org/2000/svg" xmlns:xlink="http://www.w3.org/1999/xlink">
<path d="M16,11.877L26,11.877C27.105,11.877 28,12.772 28,13.877C28,14.982 27.105,15.877 26,15.877L16,15.877L16,25.877C16,26.982 15.105,27.877 14,27.877C12.895,27.877 12,26.982 12,25.877L12,15.877L2,15.877C0.895,15.877 0,14.982 0,13.877C0,12.772 0.895,11.877 2,11.877L12,11.877L12,1.877C12,0.772 12.895,-0.123 14,-0.123C15.105,-0.123 16,0.772 16,1.877L16,11.877Z" clip-rule="evenodd" fill-rule="evenodd" fill="#C4C4C4"/>
</svg>
