<svg width="36" height="36" viewBox="0 0 36 36" fill="none" xmlns="http://www.w3.org/2000/svg" xmlns:xlink="http://www.w3.org/1999/xlink">
<path d="M18,36C8.059,36 0,27.941 0,18C0,8.059 8.059,0 18,0C27.941,0 36,8.059 36,18C36,27.941 27.941,36 18,36ZM20,16L20,8C20,6.895 19.105,6 18,6C16.895,6 16,6.895 16,8L16,16L8,16C6.895,16 6,16.895 6,18C6,19.105 6.895,20 8,20L16,20L16,28C16,29.105 16.895,30 18,30C19.105,30 20,29.105 20,28L20,20L28,20C29.105,20 30,19.105 30,18C30,16.895 29.105,16 28,16L20,16Z" clip-rule="evenodd" fill-rule="evenodd" fill="#C4C4C4"/>
</svg>
