<svg width="74" height="78" viewBox="0 0 74 78" fill="none" xmlns="http://www.w3.org/2000/svg" xmlns:xlink="http://www.w3.org/1999/xlink">
<path d="M32.222,17.117C32.93,17.117 33.623,16.944 34.212,16.621C34.8,16.297 35.259,15.838 35.53,15.3C35.801,14.762 35.872,14.17 35.734,13.599C35.596,13.028 35.255,12.504 34.754,12.092C34.253,11.681 33.615,11.401 32.921,11.287C32.226,11.173 31.506,11.232 30.852,11.455C30.198,11.677 29.638,12.055 29.245,12.539C28.852,13.023 28.642,13.592 28.642,14.174C28.643,14.954 29.02,15.702 29.692,16.254C30.363,16.806 31.273,17.116 32.222,17.117ZM32.222,13.135C32.472,13.135 32.717,13.196 32.925,13.31C33.133,13.424 33.295,13.587 33.391,13.777C33.486,13.967 33.511,14.176 33.463,14.377C33.414,14.579 33.293,14.764 33.117,14.91C32.94,15.055 32.714,15.154 32.469,15.194C32.224,15.234 31.969,15.214 31.738,15.135C31.507,15.056 31.31,14.923 31.171,14.752C31.032,14.581 30.958,14.38 30.958,14.175C30.958,13.899 31.091,13.634 31.328,13.439C31.565,13.244 31.887,13.135 32.222,13.134L32.222,13.135Z" fill="#3E60C9"/>
<path d="M38.197,22.022C38.197,22.604 38.407,23.173 38.801,23.657C39.194,24.141 39.753,24.519 40.408,24.741C41.062,24.964 41.782,25.022 42.476,24.909C43.171,24.795 43.809,24.515 44.31,24.103C44.811,23.692 45.152,23.167 45.29,22.596C45.428,22.026 45.357,21.434 45.086,20.896C44.815,20.358 44.356,19.898 43.767,19.575C43.178,19.252 42.486,19.079 41.778,19.079C40.828,19.08 39.918,19.39 39.247,19.942C38.576,20.494 38.198,21.242 38.197,22.022ZM43.042,22.022C43.042,22.228 42.968,22.429 42.829,22.6C42.69,22.771 42.493,22.904 42.262,22.983C42.031,23.061 41.776,23.082 41.531,23.042C41.286,23.002 41.06,22.903 40.884,22.757C40.707,22.612 40.586,22.427 40.537,22.225C40.489,22.023 40.514,21.814 40.609,21.625C40.705,21.435 40.867,21.272 41.075,21.158C41.283,21.044 41.528,20.983 41.778,20.983C42.113,20.983 42.435,21.093 42.672,21.287C42.909,21.482 43.042,21.747 43.043,22.022L43.042,22.022Z" fill="#3E60C9"/>
<path d="M31.342,22.745C31.442,22.827 31.56,22.892 31.69,22.936C31.82,22.98 31.959,23.003 32.1,23.003C32.241,23.003 32.38,22.98 32.51,22.936C32.64,22.892 32.758,22.827 32.858,22.745L42.644,14.701C42.745,14.62 42.825,14.523 42.88,14.415C42.935,14.308 42.963,14.193 42.964,14.077C42.964,13.961 42.937,13.845 42.883,13.738C42.829,13.63 42.75,13.533 42.65,13.45C42.55,13.368 42.431,13.303 42.3,13.259C42.169,13.214 42.029,13.192 41.888,13.192C41.746,13.193 41.606,13.216 41.476,13.262C41.346,13.307 41.227,13.373 41.128,13.455L31.342,21.499C31.141,21.664 31.028,21.888 31.028,22.122C31.028,22.356 31.141,22.58 31.342,22.745Z" fill="#3E60C9"/>
<path d="M36.998,30.851C40.066,30.851 43.066,30.103 45.618,28.702C48.169,27.301 50.158,25.309 51.333,22.978C52.507,20.648 52.814,18.083 52.216,15.609C51.617,13.135 50.139,10.863 47.969,9.079C45.799,7.296 43.034,6.081 40.025,5.589C37.015,5.097 33.895,5.349 31.06,6.315C28.225,7.28 25.801,8.915 24.096,11.012C22.391,13.109 21.481,15.575 21.481,18.098C21.486,21.479 23.122,24.721 26.031,27.112C28.94,29.503 32.884,30.848 36.998,30.851ZM36.998,7.316C39.592,7.316 42.128,7.949 44.285,9.133C46.442,10.318 48.123,12.002 49.116,13.972C50.108,15.942 50.368,18.11 49.862,20.201C49.356,22.292 48.107,24.214 46.272,25.721C44.438,27.229 42.101,28.256 39.556,28.672C37.012,29.088 34.375,28.874 31.978,28.058C29.581,27.242 27.533,25.86 26.092,24.087C24.65,22.314 23.881,20.23 23.881,18.098C23.885,15.239 25.268,12.499 27.727,10.478C30.186,8.456 33.52,7.32 36.998,7.316Z" fill="#3E60C9"/>
<path d="M64.453,18.098C64.453,18.358 64.565,18.608 64.763,18.792C64.962,18.976 65.231,19.079 65.512,19.079L70.555,19.079C70.836,19.079 71.106,18.976 71.304,18.792C71.503,18.608 71.614,18.358 71.614,18.098C71.614,17.838 71.503,17.589 71.304,17.405C71.106,17.221 70.836,17.117 70.555,17.117L65.512,17.117C65.231,17.117 64.962,17.221 64.763,17.405C64.565,17.589 64.453,17.838 64.453,18.098Z" fill="#3E60C9"/>
<path d="M67.528,9.41L62.472,11.93C62.253,12.044 62.111,12.211 62.075,12.394C62.038,12.577 62.111,12.762 62.278,12.91C62.444,13.058 62.691,13.156 62.965,13.184C63.239,13.213 63.519,13.168 63.745,13.061L68.802,10.541C69.027,10.428 69.176,10.261 69.216,10.075C69.256,9.89 69.183,9.701 69.014,9.551C68.845,9.401 68.594,9.302 68.315,9.276C68.036,9.249 67.753,9.297 67.528,9.41L67.528,9.41Z" fill="#3E60C9"/>
<path d="M62.471,24.265L67.528,26.786C67.639,26.842 67.766,26.882 67.901,26.905C68.036,26.928 68.177,26.933 68.315,26.92C68.453,26.907 68.586,26.876 68.706,26.829C68.826,26.781 68.931,26.719 69.014,26.645C69.098,26.57 69.159,26.486 69.193,26.396C69.228,26.306 69.236,26.212 69.216,26.121C69.196,26.029 69.15,25.94 69.079,25.86C69.008,25.781 68.914,25.711 68.802,25.655L63.745,23.135C63.519,23.027 63.239,22.983 62.965,23.011C62.691,23.039 62.444,23.138 62.278,23.286C62.111,23.434 62.038,23.619 62.075,23.802C62.111,23.985 62.253,24.151 62.472,24.265L62.471,24.265Z" fill="#3E60C9"/>
<path d="M2.383,18.098C2.383,18.358 2.494,18.608 2.693,18.792C2.892,18.976 3.161,19.079 3.442,19.079L8.485,19.079C8.766,19.079 9.035,18.976 9.234,18.792C9.433,18.608 9.544,18.358 9.544,18.098C9.544,17.838 9.433,17.589 9.234,17.405C9.035,17.221 8.766,17.117 8.485,17.117L3.442,17.117C3.161,17.117 2.892,17.221 2.693,17.405C2.494,17.589 2.383,17.838 2.383,18.098Z" fill="#3E60C9"/>
<path d="M10.255,23.135L5.198,25.655C4.973,25.768 4.824,25.935 4.784,26.121C4.744,26.306 4.817,26.495 4.986,26.645C5.155,26.794 5.406,26.894 5.685,26.92C5.964,26.947 6.247,26.898 6.472,26.786L11.529,24.265C11.747,24.151 11.889,23.985 11.926,23.802C11.962,23.619 11.889,23.434 11.723,23.286C11.556,23.138 11.309,23.039 11.035,23.011C10.761,22.983 10.481,23.027 10.255,23.135L10.255,23.135Z" fill="#3E60C9"/>
<path d="M11.529,11.931L6.473,9.41C6.247,9.297 5.964,9.249 5.685,9.276C5.406,9.302 5.155,9.401 4.986,9.551C4.817,9.701 4.744,9.89 4.784,10.075C4.824,10.261 4.973,10.428 5.198,10.541L10.255,13.061C10.481,13.168 10.761,13.213 11.035,13.184C11.309,13.156 11.556,13.058 11.723,12.91C11.889,12.762 11.962,12.577 11.926,12.394C11.889,12.211 11.747,12.044 11.529,11.93L11.529,11.931Z" fill="#3E60C9"/>
<path d="M67.805,33.364C67.747,33.247 67.654,33.144 67.536,33.064C67.418,32.984 67.278,32.93 67.128,32.906L53.009,28.898L54.018,28.476C54.883,28.114 55.602,27.551 56.088,26.856C56.573,26.16 56.803,25.363 56.75,24.561L56.632,22.796C56.602,22.32 56.756,21.848 57.072,21.449L58.23,19.994C58.768,19.319 59.055,18.529 59.055,17.72C59.055,16.911 58.768,16.121 58.23,15.446L57.072,13.991C56.756,13.592 56.602,13.12 56.633,12.644L56.75,10.879C56.803,10.077 56.573,9.28 56.088,8.584C55.603,7.889 54.883,7.326 54.018,6.964L52.131,6.175C51.619,5.961 51.202,5.617 50.945,5.192L49.992,3.63C49.554,2.913 48.874,2.317 48.035,1.916C47.195,1.514 46.233,1.323 45.265,1.367L43.133,1.464C42.558,1.49 41.988,1.362 41.507,1.1L39.75,0.141C38.935,-0.304 37.98,-0.542 37.004,-0.542C36.027,-0.542 35.073,-0.304 34.258,0.141L32.501,1.1C32.019,1.362 31.45,1.489 30.875,1.464L28.743,1.367C27.775,1.323 26.812,1.513 25.973,1.915C25.133,2.317 24.453,2.912 24.016,3.629L23.063,5.192C22.805,5.616 22.389,5.961 21.876,6.174L19.99,6.963C19.124,7.326 18.405,7.889 17.92,8.584C17.434,9.279 17.204,10.076 17.258,10.878L17.375,12.643C17.406,13.12 17.252,13.592 16.936,13.99L15.777,15.445C15.239,16.12 14.952,16.911 14.952,17.72C14.952,18.528 15.239,19.319 15.777,19.994L16.935,21.449C17.251,21.847 17.405,22.319 17.375,22.796L17.258,24.561C17.204,25.363 17.434,26.16 17.919,26.855C18.405,27.55 19.124,28.113 19.989,28.475L21.08,28.932L6.879,32.904C6.729,32.928 6.588,32.983 6.47,33.063C6.351,33.143 6.258,33.246 6.2,33.363L0.125,42.913C-0.013,43.139 -0.038,43.4 0.056,43.641C0.149,43.882 0.353,44.082 0.624,44.199L6.687,46.859L6.687,65.288C6.682,65.465 6.737,65.64 6.847,65.792C6.958,65.944 7.118,66.067 7.309,66.146L36.517,77.848C36.671,77.91 36.839,77.943 37.011,77.943C37.183,77.943 37.353,77.91 37.508,77.848L66.7,66.146C66.891,66.067 67.051,65.944 67.161,65.792C67.271,65.64 67.326,65.465 67.32,65.288L67.32,46.859L73.39,44.199C73.659,44.08 73.86,43.878 73.949,43.638C74.039,43.397 74.009,43.136 73.868,42.913L67.805,33.364ZM21.028,26.773C20.562,26.578 20.174,26.275 19.913,25.901C19.652,25.527 19.528,25.097 19.557,24.666L19.674,22.9C19.731,22.016 19.445,21.139 18.858,20.399L17.7,18.944C17.41,18.581 17.255,18.155 17.255,17.72C17.255,17.284 17.41,16.858 17.7,16.495L18.858,15.04C19.445,14.3 19.731,13.423 19.674,12.539L19.557,10.773C19.528,10.342 19.652,9.912 19.913,9.538C20.175,9.164 20.562,8.86 21.028,8.665L22.914,7.876C23.867,7.48 24.64,6.84 25.118,6.052L26.071,4.489C26.307,4.103 26.673,3.782 27.125,3.566C27.577,3.35 28.095,3.247 28.616,3.271L30.748,3.368C31.816,3.415 32.874,3.178 33.768,2.692L35.525,1.733C35.964,1.493 36.478,1.365 37.004,1.365C37.53,1.365 38.044,1.493 38.482,1.733L40.239,2.692C41.133,3.178 42.191,3.415 43.259,3.368L45.39,3.271C45.912,3.247 46.43,3.35 46.882,3.566C47.334,3.782 47.701,4.103 47.936,4.489L48.889,6.051C49.368,6.84 50.141,7.48 51.093,7.876L52.98,8.665C53.446,8.86 53.833,9.164 54.094,9.538C54.355,9.912 54.479,10.342 54.451,10.773L54.333,12.539C54.277,13.423 54.563,14.299 55.15,15.04L56.308,16.495C56.597,16.858 56.752,17.284 56.752,17.719C56.752,18.155 56.597,18.581 56.308,18.944L55.149,20.399C54.563,21.139 54.277,22.016 54.333,22.9L54.45,24.665C54.479,25.097 54.355,25.526 54.094,25.901C53.833,26.275 53.445,26.578 52.979,26.773L51.093,27.563C50.14,27.959 49.368,28.599 48.889,29.387L47.936,30.95C47.7,31.335 47.334,31.656 46.882,31.872C46.43,32.088 45.912,32.191 45.391,32.168L43.259,32.071C42.191,32.024 41.133,32.261 40.239,32.747L38.482,33.706C38.043,33.946 37.529,34.074 37.003,34.074C36.478,34.074 35.964,33.946 35.525,33.706L33.768,32.747C32.95,32.303 31.994,32.066 31.016,32.065C30.927,32.065 30.837,32.067 30.748,32.071L28.616,32.168C28.095,32.192 27.576,32.09 27.124,31.873C26.672,31.657 26.306,31.336 26.071,30.95L25.118,29.387C24.639,28.599 23.867,27.959 22.914,27.563L21.028,26.773ZM35.852,75.47L8.99,64.69L8.99,47.873L30.283,57.263C30.444,57.336 30.625,57.374 30.809,57.374C30.926,57.374 31.041,57.358 31.152,57.329C31.298,57.29 31.433,57.227 31.549,57.144C31.665,57.062 31.76,56.96 31.828,56.847L35.852,50.175L35.852,75.47ZM37,45.071L20.049,38.061C19.531,37.847 18.903,37.906 18.58,38.383C18.489,38.496 18.428,38.623 18.401,38.756C18.374,38.89 18.381,39.027 18.423,39.158C18.465,39.289 18.54,39.411 18.643,39.516C18.746,39.621 18.875,39.707 19.021,39.767L35.458,46.564L30.292,55.121L2.681,42.961L7.685,35.078L12.098,36.903C12.371,37.016 12.688,37.034 12.977,36.954C13.267,36.874 13.506,36.702 13.643,36.476C13.779,36.25 13.801,35.988 13.705,35.748C13.608,35.508 13.4,35.31 13.127,35.197L10.181,33.979L23.132,30.362L24.016,31.81C24.453,32.527 25.132,33.123 25.972,33.525C26.812,33.927 27.774,34.117 28.743,34.072L30.874,33.975C31.449,33.95 32.019,34.078 32.501,34.339L34.257,35.299C35.072,35.744 36.027,35.982 37.003,35.982C37.98,35.982 38.935,35.744 39.75,35.299L41.506,34.339C41.988,34.078 42.558,33.95 43.133,33.975L45.264,34.072C46.232,34.117 47.195,33.926 48.035,33.525C48.874,33.123 49.554,32.527 49.991,31.81L50.905,30.312L63.834,33.972L37,45.071ZM65.017,64.69L38.155,75.47L38.155,50.175L42.183,56.847C42.279,57.006 42.426,57.139 42.607,57.232C42.789,57.325 42.999,57.374 43.213,57.374C43.392,57.375 43.568,57.336 43.725,57.263L65.017,47.873L65.017,64.69ZM43.715,55.12L38.548,46.563L66.322,35.078L71.326,42.961L43.715,55.12Z" fill="#3E60C9"/>
<line x1="11.935" y1="52.435" x2="11.935" y2="54.397" fill="#3E60C9"/>
<line x1="11.935" y1="56.359" x2="11.935" y2="64.208" fill="#3E60C9"/>
</svg>
