<svg width="76" height="78" viewBox="0 0 76 78" fill="none" xmlns="http://www.w3.org/2000/svg" xmlns:xlink="http://www.w3.org/1999/xlink">
<path d="M33.222,16.801C33.93,16.801 34.623,16.629 35.212,16.305C35.8,15.982 36.259,15.522 36.53,14.984C36.801,14.447 36.872,13.855 36.734,13.284C36.596,12.713 36.255,12.189 35.754,11.777C35.253,11.365 34.615,11.085 33.921,10.972C33.226,10.858 32.506,10.916 31.852,11.139C31.198,11.362 30.638,11.739 30.245,12.223C29.852,12.707 29.642,13.276 29.642,13.858C29.643,14.639 30.02,15.387 30.692,15.938C31.363,16.49 32.273,16.801 33.222,16.801ZM33.222,12.82C33.472,12.82 33.717,12.881 33.925,12.995C34.133,13.109 34.295,13.271 34.391,13.461C34.486,13.651 34.511,13.86 34.463,14.062C34.414,14.264 34.293,14.449 34.117,14.594C33.94,14.74 33.714,14.839 33.469,14.879C33.224,14.919 32.969,14.898 32.738,14.82C32.507,14.741 32.31,14.608 32.171,14.437C32.032,14.266 31.958,14.065 31.958,13.859C31.958,13.583 32.091,13.319 32.328,13.124C32.565,12.929 32.887,12.819 33.222,12.819L33.222,12.82Z" fill="#0073E6"/>
<path d="M39.197,21.707C39.197,22.289 39.407,22.858 39.801,23.342C40.194,23.826 40.753,24.203 41.408,24.426C42.062,24.649 42.782,24.707 43.476,24.593C44.171,24.48 44.809,24.2 45.31,23.788C45.811,23.376 46.152,22.852 46.29,22.281C46.428,21.71 46.357,21.118 46.086,20.58C45.815,20.043 45.356,19.583 44.767,19.26C44.178,18.936 43.486,18.764 42.778,18.764C41.828,18.765 40.918,19.075 40.247,19.627C39.576,20.178 39.198,20.926 39.197,21.707ZM44.042,21.707C44.042,21.912 43.968,22.113 43.829,22.284C43.69,22.455 43.493,22.589 43.262,22.667C43.031,22.746 42.776,22.767 42.531,22.726C42.286,22.686 42.06,22.587 41.884,22.442C41.707,22.297 41.586,22.111 41.537,21.91C41.489,21.708 41.514,21.499 41.609,21.309C41.705,21.119 41.867,20.957 42.075,20.843C42.283,20.728 42.528,20.667 42.778,20.667C43.113,20.668 43.435,20.777 43.672,20.972C43.909,21.167 44.042,21.431 44.043,21.707L44.042,21.707Z" fill="#0073E6"/>
<path d="M32.342,22.429C32.442,22.511 32.56,22.576 32.69,22.62C32.82,22.665 32.959,22.688 33.1,22.688C33.241,22.688 33.38,22.665 33.51,22.62C33.64,22.576 33.758,22.511 33.858,22.429L43.644,14.386C43.745,14.304 43.825,14.207 43.88,14.1C43.935,13.993 43.963,13.878 43.964,13.761C43.964,13.645 43.937,13.53 43.883,13.422C43.829,13.315 43.75,13.217 43.65,13.135C43.55,13.053 43.431,12.988 43.3,12.943C43.169,12.899 43.029,12.876 42.888,12.877C42.746,12.877 42.606,12.901 42.476,12.946C42.346,12.991 42.227,13.057 42.128,13.14L32.342,21.184C32.141,21.349 32.028,21.573 32.028,21.807C32.028,22.04 32.141,22.264 32.342,22.429Z" fill="#0073E6"/>
<path d="M37.998,30.536C41.066,30.536 44.066,29.788 46.618,28.387C49.169,26.985 51.158,24.993 52.333,22.663C53.507,20.332 53.814,17.768 53.216,15.294C52.617,12.82 51.139,10.547 48.969,8.764C46.799,6.98 44.034,5.765 41.025,5.273C38.015,4.781 34.895,5.034 32.06,5.999C29.225,6.964 26.801,8.599 25.096,10.696C23.391,12.794 22.481,15.26 22.481,17.782C22.486,21.163 24.122,24.405 27.031,26.796C29.94,29.187 33.884,30.532 37.998,30.536ZM37.998,7.001C40.592,7.001 43.128,7.633 45.285,8.818C47.442,10.003 49.123,11.686 50.116,13.656C51.108,15.627 51.368,17.794 50.862,19.886C50.356,21.977 49.107,23.898 47.272,25.406C45.438,26.914 43.101,27.941 40.556,28.357C38.012,28.773 35.375,28.559 32.978,27.743C30.581,26.927 28.533,25.545 27.092,23.772C25.65,21.999 24.881,19.914 24.881,17.782C24.885,14.924 26.268,12.183 28.727,10.162C31.186,8.141 34.52,7.004 37.998,7.001Z" fill="#0073E6"/>
<path d="M65.453,17.783C65.453,18.043 65.565,18.293 65.763,18.477C65.962,18.661 66.231,18.764 66.512,18.764L71.555,18.764C71.836,18.764 72.106,18.661 72.304,18.477C72.503,18.293 72.614,18.043 72.614,17.783C72.614,17.523 72.503,17.273 72.304,17.089C72.106,16.905 71.836,16.802 71.555,16.802L66.512,16.802C66.231,16.802 65.962,16.905 65.763,17.089C65.565,17.273 65.453,17.523 65.453,17.783Z" fill="#0073E6"/>
<path d="M68.528,9.094L63.472,11.615C63.253,11.729 63.111,11.895 63.075,12.078C63.038,12.261 63.111,12.447 63.278,12.595C63.444,12.742 63.691,12.841 63.965,12.869C64.239,12.897 64.519,12.853 64.745,12.746L69.802,10.225C70.027,10.113 70.176,9.945 70.216,9.76C70.256,9.574 70.183,9.386 70.014,9.236C69.845,9.086 69.594,8.987 69.315,8.96C69.036,8.934 68.753,8.982 68.528,9.094L68.528,9.094Z" fill="#0073E6"/>
<path d="M63.471,23.95L68.528,26.47C68.639,26.526 68.766,26.567 68.901,26.59C69.036,26.613 69.177,26.618 69.315,26.605C69.453,26.592 69.586,26.56 69.706,26.513C69.826,26.466 69.931,26.403 70.014,26.329C70.098,26.255 70.159,26.17 70.193,26.08C70.228,25.991 70.236,25.897 70.216,25.805C70.196,25.713 70.15,25.625 70.079,25.545C70.008,25.465 69.914,25.395 69.802,25.34L64.745,22.819C64.519,22.712 64.239,22.668 63.965,22.696C63.691,22.724 63.444,22.823 63.278,22.97C63.111,23.118 63.038,23.303 63.075,23.487C63.111,23.67 63.253,23.836 63.472,23.95L63.471,23.95Z" fill="#0073E6"/>
<path d="M3.383,17.783C3.383,18.043 3.494,18.293 3.693,18.477C3.892,18.661 4.161,18.764 4.442,18.764L9.485,18.764C9.766,18.764 10.035,18.661 10.234,18.477C10.433,18.293 10.544,18.043 10.544,17.783C10.544,17.523 10.433,17.273 10.234,17.089C10.035,16.905 9.766,16.802 9.485,16.802L4.442,16.802C4.161,16.802 3.892,16.905 3.693,17.089C3.494,17.273 3.383,17.523 3.383,17.783Z" fill="#0073E6"/>
<path d="M11.255,22.819L6.198,25.34C5.973,25.452 5.824,25.62 5.784,25.805C5.744,25.991 5.817,26.179 5.986,26.329C6.155,26.479 6.406,26.578 6.685,26.605C6.964,26.631 7.247,26.583 7.472,26.47L12.529,23.95C12.747,23.836 12.889,23.67 12.926,23.487C12.962,23.303 12.889,23.118 12.723,22.97C12.556,22.823 12.309,22.724 12.035,22.696C11.761,22.668 11.481,22.712 11.255,22.819L11.255,22.819Z" fill="#0073E6"/>
<path d="M12.529,11.615L7.473,9.094C7.247,8.982 6.964,8.934 6.685,8.96C6.406,8.987 6.155,9.086 5.986,9.236C5.817,9.386 5.744,9.574 5.784,9.76C5.824,9.945 5.973,10.113 6.198,10.225L11.255,12.746C11.481,12.853 11.761,12.897 12.035,12.869C12.309,12.841 12.556,12.742 12.723,12.595C12.889,12.447 12.962,12.261 12.926,12.078C12.889,11.895 12.747,11.729 12.529,11.615L12.529,11.615Z" fill="#0073E6"/>
<path d="M68.805,33.048C68.747,32.932 68.654,32.829 68.536,32.749C68.418,32.669 68.278,32.615 68.128,32.59L54.009,28.583L55.018,28.16C55.883,27.798 56.602,27.235 57.088,26.54C57.573,25.845 57.803,25.048 57.75,24.246L57.632,22.481C57.602,22.004 57.756,21.533 58.072,21.134L59.23,19.679C59.768,19.004 60.055,18.213 60.055,17.404C60.055,16.596 59.768,15.805 59.23,15.13L58.072,13.675C57.756,13.277 57.602,12.805 57.633,12.328L57.75,10.563C57.803,9.761 57.573,8.964 57.088,8.269C56.603,7.574 55.883,7.011 55.018,6.649L53.131,5.859C52.619,5.646 52.202,5.301 51.945,4.877L50.992,3.314C50.554,2.598 49.874,2.002 49.035,1.6C48.195,1.198 47.233,1.008 46.265,1.052L44.133,1.149C43.558,1.174 42.988,1.047 42.507,0.785L40.75,-0.174C39.935,-0.62 38.98,-0.857 38.004,-0.857C37.027,-0.857 36.073,-0.62 35.258,-0.174L33.501,0.785C33.019,1.046 32.45,1.174 31.875,1.149L29.743,1.052C28.775,1.007 27.812,1.198 26.973,1.599C26.133,2.001 25.453,2.597 25.016,3.314L24.063,4.876C23.805,5.301 23.389,5.645 22.876,5.859L20.99,6.648C20.124,7.01 19.405,7.573 18.92,8.268C18.434,8.964 18.204,9.761 18.258,10.563L18.375,12.328C18.406,12.804 18.252,13.276 17.936,13.675L16.777,15.13C16.239,15.805 15.952,16.595 15.952,17.404C15.952,18.213 16.239,19.003 16.777,19.678L17.935,21.133C18.251,21.532 18.405,22.004 18.375,22.48L18.258,24.245C18.204,25.047 18.434,25.844 18.919,26.54C19.405,27.235 20.124,27.798 20.989,28.16L22.08,28.616L7.879,32.588C7.729,32.613 7.588,32.667 7.47,32.748C7.351,32.828 7.258,32.931 7.2,33.048L1.125,42.598C0.987,42.823 0.962,43.085 1.056,43.325C1.149,43.566 1.353,43.767 1.624,43.883L7.687,46.544L7.687,64.973C7.682,65.15 7.737,65.325 7.847,65.477C7.958,65.629 8.118,65.752 8.309,65.831L37.517,77.532C37.671,77.595 37.839,77.627 38.011,77.627C38.183,77.627 38.353,77.595 38.508,77.532L67.7,65.831C67.891,65.752 68.051,65.629 68.161,65.477C68.271,65.325 68.326,65.15 68.32,64.973L68.32,46.544L74.39,43.883C74.659,43.765 74.86,43.563 74.949,43.322C75.039,43.081 75.009,42.821 74.868,42.598L68.805,33.048ZM22.028,26.458C21.562,26.263 21.174,25.96 20.913,25.586C20.652,25.211 20.528,24.782 20.557,24.35L20.674,22.585C20.731,21.7 20.445,20.824 19.858,20.084L18.7,18.629C18.41,18.265 18.255,17.84 18.255,17.404C18.255,16.969 18.41,16.543 18.7,16.18L19.858,14.725C20.445,13.984 20.731,13.108 20.674,12.223L20.557,10.458C20.528,10.026 20.652,9.597 20.913,9.223C21.175,8.848 21.562,8.545 22.028,8.35L23.914,7.561C24.867,7.165 25.64,6.525 26.118,5.736L27.071,4.173C27.307,3.788 27.673,3.467 28.125,3.251C28.577,3.034 29.095,2.932 29.616,2.955L31.748,3.053C32.816,3.1 33.874,2.863 34.768,2.377L36.525,1.417C36.964,1.177 37.478,1.049 38.004,1.049C38.53,1.049 39.044,1.177 39.482,1.417L41.239,2.377C42.133,2.863 43.191,3.099 44.259,3.053L46.39,2.955C46.912,2.932 47.43,3.034 47.882,3.25C48.334,3.467 48.701,3.788 48.936,4.173L49.889,5.736C50.368,6.524 51.141,7.164 52.093,7.561L53.98,8.35C54.446,8.545 54.833,8.848 55.094,9.222C55.355,9.597 55.479,10.026 55.451,10.458L55.333,12.223C55.277,13.108 55.563,13.984 56.15,14.724L57.308,16.179C57.597,16.543 57.752,16.968 57.752,17.404C57.752,17.839 57.597,18.265 57.308,18.629L56.149,20.083C55.563,20.824 55.277,21.7 55.333,22.585L55.45,24.35C55.479,24.782 55.355,25.211 55.094,25.585C54.833,25.96 54.445,26.263 53.979,26.458L52.093,27.247C51.14,27.643 50.368,28.283 49.889,29.072L48.936,30.635C48.7,31.02 48.334,31.34 47.882,31.557C47.43,31.773 46.912,31.876 46.391,31.853L44.259,31.756C43.191,31.709 42.133,31.946 41.239,32.431L39.482,33.391C39.043,33.631 38.529,33.759 38.003,33.759C37.478,33.759 36.964,33.631 36.525,33.391L34.768,32.431C33.95,31.987 32.994,31.75 32.016,31.749C31.927,31.749 31.837,31.751 31.748,31.756L29.616,31.853C29.095,31.877 28.576,31.774 28.124,31.558C27.672,31.341 27.306,31.021 27.071,30.634L26.118,29.072C25.639,28.283 24.867,27.643 23.914,27.247L22.028,26.458ZM36.852,75.154L9.99,64.375L9.99,47.558L31.283,56.947C31.444,57.02 31.625,57.059 31.809,57.058C31.926,57.058 32.041,57.043 32.152,57.013C32.298,56.974 32.433,56.912 32.549,56.829C32.665,56.746 32.76,56.645 32.828,56.531L36.852,49.86L36.852,75.154ZM38,44.756L21.049,37.746C20.531,37.532 19.903,37.591 19.58,38.068C19.489,38.18 19.428,38.308 19.401,38.441C19.374,38.575 19.381,38.711 19.423,38.842C19.465,38.973 19.54,39.095 19.643,39.201C19.746,39.306 19.875,39.391 20.021,39.452L36.458,46.249L31.292,54.805L3.681,42.645L8.685,34.762L13.098,36.588C13.371,36.701 13.688,36.719 13.977,36.639C14.267,36.559 14.506,36.387 14.643,36.161C14.779,35.934 14.801,35.672 14.705,35.433C14.608,35.193 14.4,34.995 14.127,34.882L11.181,33.663L24.132,30.047L25.016,31.495C25.453,32.212 26.132,32.808 26.972,33.209C27.812,33.611 28.774,33.801 29.743,33.757L31.874,33.66C32.449,33.635 33.019,33.762 33.501,34.024L35.257,34.983C36.072,35.429 37.027,35.666 38.003,35.666C38.98,35.666 39.935,35.429 40.75,34.983L42.506,34.024C42.988,33.762 43.558,33.635 44.133,33.66L46.264,33.757C47.232,33.801 48.195,33.611 49.035,33.209C49.874,32.807 50.554,32.212 50.991,31.495L51.905,29.996L64.834,33.657L38,44.756ZM66.017,64.375L39.155,75.154L39.155,49.86L43.183,56.532C43.279,56.69 43.426,56.824 43.607,56.917C43.789,57.01 43.999,57.059 44.213,57.059C44.392,57.059 44.568,57.021 44.725,56.948L66.017,47.558L66.017,64.375ZM44.715,54.805L39.548,46.248L67.322,34.762L72.326,42.645L44.715,54.805Z" fill="#0073E6"/>
<line x1="12.935" y1="52.119" x2="12.935" y2="54.081" fill="#0073E6"/>
<line x1="12.935" y1="56.044" x2="12.935" y2="63.892" fill="#0073E6"/>
</svg>
