<svg width="28" height="28" viewBox="0 0 28 28" fill="none" xmlns="http://www.w3.org/2000/svg" xmlns:xlink="http://www.w3.org/1999/xlink">
<path d="M10.29,1.168C11.396,-1.163 14.593,-1.163 15.699,1.168L17.612,5.196C18.051,6.122 18.9,6.763 19.883,6.912L24.158,7.558C26.632,7.932 27.62,11.093 25.83,12.907L22.736,16.043C22.025,16.763 21.701,17.801 21.869,18.818L22.599,23.246C23.022,25.808 20.435,27.761 18.223,26.552L14.398,24.461C13.519,23.981 12.47,23.981 11.591,24.461L7.767,26.552C5.554,27.761 2.968,25.808 3.39,23.246L4.121,18.818C4.288,17.801 3.964,16.763 3.253,16.043L0.159,12.907C-1.631,11.093 -0.643,7.932 1.831,7.558L6.107,6.912C7.089,6.763 7.938,6.122 8.378,5.196L10.29,1.168Z" fill="#FFC000"/>
</svg>
