<svg width="42" height="42" viewBox="0 0 42 42" fill="none" xmlns="http://www.w3.org/2000/svg" xmlns:xlink="http://www.w3.org/1999/xlink">
<path d="M16.066,2.81L16.969,3.239L16.969,3.239L16.066,2.81ZM23.934,2.81L24.838,2.382L24.838,2.382L23.934,2.81ZM26.716,8.67L27.619,8.241L27.619,8.241L26.716,8.67ZM30.019,11.165L30.169,10.177L30.169,10.177L30.019,11.165ZM36.239,12.105L36.388,11.116L36.388,11.116L36.239,12.105ZM38.67,19.886L37.958,19.183L37.958,19.183L38.67,19.886ZM34.17,24.447L33.458,23.744L33.458,23.744L34.17,24.447ZM32.908,28.484L31.921,28.647L31.921,28.647L32.908,28.484ZM33.97,34.925L32.984,35.087L32.984,35.087L33.97,34.925ZM27.604,39.733L28.084,38.856L28.084,38.856L27.604,39.733ZM22.042,36.693L21.562,37.57L21.562,37.57L22.042,36.693ZM17.958,36.693L18.438,37.57L18.438,37.57L17.958,36.693ZM12.396,39.733L11.916,38.856L11.916,38.856L12.396,39.733ZM6.03,34.925L7.016,35.087L7.016,35.087L6.03,34.925ZM7.092,28.484L8.079,28.647L8.079,28.647L7.092,28.484ZM5.83,24.447L5.118,25.149L5.118,25.149L5.83,24.447ZM1.33,19.886L2.042,19.183L2.042,19.183L1.33,19.886ZM3.761,12.105L3.612,11.116L3.612,11.116L3.761,12.105ZM9.981,11.165L9.831,10.177L9.831,10.177L9.981,11.165ZM13.284,8.67L14.188,9.099L14.188,9.099L13.284,8.67ZM16.969,3.239C18.217,0.61 21.783,0.61 23.031,3.239L24.838,2.382C22.867,-1.77 17.133,-1.77 15.162,2.382L16.969,3.239ZM23.031,3.239L25.812,9.099L27.619,8.241L24.838,2.382L23.031,3.239ZM25.812,9.099C26.589,10.734 28.1,11.887 29.87,12.154L30.169,10.177C29.081,10.012 28.121,9.298 27.619,8.241L25.812,9.099ZM29.87,12.154L36.089,13.094L36.388,11.116L30.169,10.177L29.87,12.154ZM36.089,13.094C38.827,13.507 40.026,17.088 37.958,19.183L39.382,20.588C42.522,17.405 40.847,11.79 36.388,11.116L36.089,13.094ZM37.958,19.183L33.458,23.744L34.882,25.149L39.382,20.588L37.958,19.183ZM33.458,23.744C32.194,25.025 31.626,26.859 31.921,28.647L33.895,28.322C33.702,27.151 34.077,25.964 34.882,25.149L33.458,23.744ZM31.921,28.647L32.984,35.087L34.957,34.762L33.895,28.322L31.921,28.647ZM32.984,35.087C33.478,38.082 30.492,40.172 28.084,38.856L27.125,40.611C31.154,42.813 35.693,39.22 34.957,34.762L32.984,35.087ZM28.084,38.856L22.521,35.815L21.562,37.57L27.125,40.611L28.084,38.856ZM22.521,35.815C20.944,34.953 19.056,34.953 17.479,35.815L18.438,37.57C19.417,37.035 20.583,37.035 21.562,37.57L22.521,35.815ZM17.479,35.815L11.916,38.856L12.875,40.611L18.438,37.57L17.479,35.815ZM11.916,38.856C9.508,40.172 6.522,38.082 7.016,35.087L5.043,34.762C4.307,39.22 8.846,42.813 12.875,40.611L11.916,38.856ZM7.016,35.087L8.079,28.647L6.105,28.322L5.043,34.762L7.016,35.087ZM8.079,28.647C8.374,26.859 7.806,25.025 6.542,23.744L5.118,25.149C5.923,25.964 6.298,27.151 6.105,28.322L8.079,28.647ZM6.542,23.744L2.042,19.183L0.618,20.588L5.118,25.149L6.542,23.744ZM2.042,19.183C-0.026,17.088 1.173,13.507 3.911,13.094L3.612,11.116C-0.847,11.79 -2.522,17.405 0.618,20.588L2.042,19.183ZM3.911,13.094L10.13,12.154L9.831,10.177L3.612,11.116L3.911,13.094ZM10.13,12.154C11.9,11.887 13.411,10.734 14.188,9.099L12.381,8.241C11.879,9.298 10.919,10.012 9.831,10.177L10.13,12.154ZM14.188,9.099L16.969,3.239L15.162,2.382L12.381,8.241L14.188,9.099Z" fill="#C4C4C4"/>
</svg>
