<svg width="28" height="28" viewBox="0 0 28 28" fill="none" xmlns="http://www.w3.org/2000/svg" xmlns:xlink="http://www.w3.org/1999/xlink">
<path d="M10.293,1.168C11.399,-1.163 14.596,-1.163 15.702,1.168L17.614,5.196C18.054,6.122 18.903,6.763 19.885,6.912L24.161,7.558C26.635,7.932 27.623,11.093 25.833,12.907L22.739,16.043C22.028,16.763 21.704,17.801 21.871,18.818L22.602,23.246C23.024,25.808 20.438,27.761 18.225,26.552L14.401,24.461C13.522,23.981 12.473,23.981 11.594,24.461L7.77,26.552C5.557,27.761 2.971,25.808 3.393,23.246L4.124,18.818C4.291,17.801 3.967,16.763 3.256,16.043L0.162,12.907C-1.628,11.093 -0.64,7.932 1.834,7.558L6.11,6.912C7.092,6.763 7.941,6.122 8.381,5.196L10.293,1.168Z" fill="#FFC000"/>
</svg>
