<svg width="28" height="28" viewBox="0 0 28 28" fill="none" xmlns="http://www.w3.org/2000/svg" xmlns:xlink="http://www.w3.org/1999/xlink">
<path d="M11.294,1.145C12.4,-1.186 15.597,-1.186 16.703,1.145L18.615,5.173C19.055,6.098 19.904,6.74 20.886,6.888L25.162,7.534C27.636,7.908 28.624,11.069 26.834,12.883L23.74,16.019C23.029,16.74 22.705,17.778 22.872,18.795L23.603,23.222C24.025,25.784 21.439,27.738 19.226,26.528L15.402,24.438C14.523,23.958 13.474,23.958 12.595,24.438L8.771,26.528C6.558,27.738 3.972,25.784 4.394,23.222L5.125,18.795C5.292,17.778 4.968,16.74 4.257,16.019L1.163,12.883C-0.627,11.069 0.361,7.908 2.835,7.534L7.111,6.888C8.093,6.74 8.942,6.098 9.382,5.173L11.294,1.145Z" fill="#FFC000"/>
</svg>
