<svg width="28" height="28" viewBox="0 0 28 28" fill="none" xmlns="http://www.w3.org/2000/svg" xmlns:xlink="http://www.w3.org/1999/xlink">
<path d="M11.289,1.145C12.395,-1.186 15.592,-1.186 16.698,1.145L18.611,5.173C19.05,6.098 19.899,6.74 20.882,6.888L25.157,7.534C27.631,7.908 28.619,11.069 26.829,12.883L23.735,16.019C23.024,16.74 22.7,17.778 22.868,18.795L23.598,23.222C24.021,25.784 21.434,27.738 19.222,26.528L15.397,24.438C14.519,23.958 13.469,23.958 12.59,24.438L8.766,26.528C6.553,27.738 3.967,25.784 4.389,23.222L5.12,18.795C5.288,17.778 4.963,16.74 4.252,16.019L1.158,12.883C-0.632,11.069 0.356,7.908 2.83,7.534L7.106,6.888C8.088,6.74 8.937,6.098 9.377,5.173L11.289,1.145Z" fill="#FFC000"/>
</svg>
