<svg width="28" height="28" viewBox="0 0 28 28" fill="none" xmlns="http://www.w3.org/2000/svg" xmlns:xlink="http://www.w3.org/1999/xlink">
<path d="M10.293,1.145C11.399,-1.186 14.596,-1.186 15.702,1.145L17.614,5.173C18.054,6.098 18.903,6.74 19.885,6.888L24.161,7.534C26.635,7.908 27.623,11.069 25.833,12.883L22.739,16.019C22.028,16.74 21.704,17.778 21.871,18.795L22.602,23.222C23.024,25.784 20.438,27.738 18.225,26.528L14.401,24.438C13.522,23.958 12.473,23.958 11.594,24.438L7.77,26.528C5.557,27.738 2.971,25.784 3.393,23.222L4.124,18.795C4.291,17.778 3.967,16.74 3.256,16.019L0.162,12.883C-1.628,11.069 -0.64,7.908 1.834,7.534L6.11,6.888C7.092,6.74 7.941,6.098 8.381,5.173L10.293,1.145Z" fill="#FFC000"/>
</svg>
