<svg width="28" height="28" viewBox="0 0 28 28" fill="none" xmlns="http://www.w3.org/2000/svg" xmlns:xlink="http://www.w3.org/1999/xlink">
<path d="M11.289,1.097C12.395,-1.234 15.592,-1.234 16.698,1.097L18.611,5.125C19.05,6.051 19.899,6.692 20.882,6.841L25.157,7.487C27.631,7.86 28.619,11.021 26.829,12.836L23.735,15.971C23.024,16.692 22.7,17.73 22.868,18.747L23.598,23.174C24.021,25.736 21.434,27.69 19.222,26.48L15.397,24.39C14.519,23.91 13.469,23.91 12.59,24.39L8.766,26.48C6.553,27.69 3.967,25.736 4.389,23.174L5.12,18.747C5.288,17.73 4.963,16.692 4.252,15.971L1.158,12.836C-0.632,11.021 0.356,7.86 2.83,7.487L7.106,6.841C8.088,6.692 8.937,6.051 9.377,5.125L11.289,1.097Z" fill="#FFC000"/>
</svg>
