<svg width="28" height="28" viewBox="0 0 28 28" fill="none" xmlns="http://www.w3.org/2000/svg" xmlns:xlink="http://www.w3.org/1999/xlink">
<path d="M10.29,1.145C11.396,-1.186 14.593,-1.186 15.699,1.145L17.612,5.173C18.051,6.098 18.9,6.74 19.883,6.888L24.158,7.534C26.632,7.908 27.62,11.069 25.83,12.883L22.736,16.019C22.025,16.74 21.701,17.778 21.869,18.795L22.599,23.222C23.022,25.784 20.435,27.738 18.223,26.528L14.398,24.438C13.519,23.958 12.47,23.958 11.591,24.438L7.767,26.528C5.554,27.738 2.968,25.784 3.39,23.222L4.121,18.795C4.288,17.778 3.964,16.74 3.253,16.019L0.159,12.883C-1.631,11.069 -0.643,7.908 1.831,7.534L6.107,6.888C7.089,6.74 7.938,6.098 8.378,5.173L10.29,1.145Z" fill="#FFC000"/>
</svg>
