<svg width="28" height="28" viewBox="0 0 28 28" fill="none" xmlns="http://www.w3.org/2000/svg" xmlns:xlink="http://www.w3.org/1999/xlink">
<path d="M10.293,1.12C11.399,-1.211 14.596,-1.211 15.702,1.12L17.614,5.148C18.054,6.074 18.903,6.716 19.885,6.864L24.161,7.51C26.635,7.884 27.623,11.045 25.833,12.859L22.739,15.995C22.028,16.715 21.704,17.753 21.871,18.77L22.602,23.198C23.024,25.76 20.438,27.713 18.225,26.504L14.401,24.413C13.522,23.933 12.473,23.933 11.594,24.413L7.77,26.504C5.557,27.713 2.971,25.76 3.393,23.198L4.124,18.77C4.291,17.753 3.967,16.715 3.256,15.995L0.162,12.859C-1.628,11.045 -0.64,7.884 1.834,7.51L6.11,6.864C7.092,6.716 7.941,6.074 8.381,5.148L10.293,1.12Z" fill="#FFC000"/>
</svg>
