<svg width="28" height="28" viewBox="0 0 28 28" fill="none" xmlns="http://www.w3.org/2000/svg" xmlns:xlink="http://www.w3.org/1999/xlink">
<path d="M11.292,1.097C12.398,-1.234 15.595,-1.234 16.701,1.097L18.614,5.125C19.053,6.051 19.902,6.692 20.884,6.841L25.16,7.487C27.634,7.86 28.622,11.021 26.832,12.836L23.738,15.971C23.027,16.692 22.703,17.73 22.87,18.747L23.601,23.174C24.023,25.736 21.437,27.69 19.224,26.48L15.4,24.39C14.521,23.91 13.472,23.91 12.593,24.39L8.769,26.48C6.556,27.69 3.97,25.736 4.392,23.174L5.123,18.747C5.29,17.73 4.966,16.692 4.255,15.971L1.161,12.836C-0.629,11.021 0.359,7.86 2.833,7.487L7.109,6.841C8.091,6.692 8.94,6.051 9.38,5.125L11.292,1.097Z" fill="#FFC000"/>
</svg>
