<svg width="28" height="28" viewBox="0 0 28 28" fill="none" xmlns="http://www.w3.org/2000/svg" xmlns:xlink="http://www.w3.org/1999/xlink">
<path d="M11.292,1.145C12.398,-1.186 15.595,-1.186 16.701,1.145L18.614,5.173C19.053,6.098 19.902,6.74 20.884,6.888L25.16,7.534C27.634,7.908 28.622,11.069 26.832,12.883L23.738,16.019C23.027,16.74 22.703,17.778 22.87,18.795L23.601,23.222C24.023,25.784 21.437,27.738 19.224,26.528L15.4,24.438C14.521,23.958 13.472,23.958 12.593,24.438L8.769,26.528C6.556,27.738 3.97,25.784 4.392,23.222L5.123,18.795C5.29,17.778 4.966,16.74 4.255,16.019L1.161,12.883C-0.629,11.069 0.359,7.908 2.833,7.534L7.109,6.888C8.091,6.74 8.94,6.098 9.38,5.173L11.292,1.145Z" fill="#FFC000"/>
</svg>
