<svg width="28" height="28" viewBox="0 0 28 28" fill="none" xmlns="http://www.w3.org/2000/svg" xmlns:xlink="http://www.w3.org/1999/xlink">
<path d="M11.292,1.168C12.398,-1.163 15.595,-1.163 16.701,1.168L18.614,5.196C19.053,6.122 19.902,6.763 20.884,6.912L25.16,7.558C27.634,7.932 28.622,11.093 26.832,12.907L23.738,16.043C23.027,16.763 22.703,17.801 22.87,18.818L23.601,23.246C24.023,25.808 21.437,27.761 19.224,26.552L15.4,24.461C14.521,23.981 13.472,23.981 12.593,24.461L8.769,26.552C6.556,27.761 3.97,25.808 4.392,23.246L5.123,18.818C5.29,17.801 4.966,16.763 4.255,16.043L1.161,12.907C-0.629,11.093 0.359,7.932 2.833,7.558L7.109,6.912C8.091,6.763 8.94,6.122 9.38,5.196L11.292,1.168Z" fill="#FFC000"/>
</svg>
