<svg width="28" height="28" viewBox="0 0 28 28" fill="none" xmlns="http://www.w3.org/2000/svg" xmlns:xlink="http://www.w3.org/1999/xlink">
<path d="M11.294,1.097C12.4,-1.234 15.597,-1.234 16.703,1.097L18.615,5.125C19.055,6.051 19.904,6.692 20.886,6.841L25.162,7.487C27.636,7.86 28.624,11.021 26.834,12.836L23.74,15.971C23.029,16.692 22.705,17.73 22.872,18.747L23.603,23.174C24.025,25.736 21.439,27.69 19.226,26.48L15.402,24.39C14.523,23.91 13.474,23.91 12.595,24.39L8.771,26.48C6.558,27.69 3.972,25.736 4.394,23.174L5.125,18.747C5.292,17.73 4.968,16.692 4.257,15.971L1.163,12.836C-0.627,11.021 0.361,7.86 2.835,7.487L7.111,6.841C8.093,6.692 8.942,6.051 9.382,5.125L11.294,1.097Z" fill="#FFC000"/>
</svg>
