<svg width="28" height="28" viewBox="0 0 28 28" fill="none" xmlns="http://www.w3.org/2000/svg" xmlns:xlink="http://www.w3.org/1999/xlink">
<path d="M11.289,1.168C12.395,-1.163 15.592,-1.163 16.698,1.168L18.611,5.196C19.05,6.122 19.899,6.763 20.882,6.912L25.157,7.558C27.631,7.932 28.619,11.093 26.829,12.907L23.735,16.043C23.024,16.763 22.7,17.801 22.868,18.818L23.598,23.246C24.021,25.808 21.434,27.761 19.222,26.552L15.397,24.461C14.519,23.981 13.469,23.981 12.59,24.461L8.766,26.552C6.553,27.761 3.967,25.808 4.389,23.246L5.12,18.818C5.288,17.801 4.963,16.763 4.252,16.043L1.158,12.907C-0.632,11.093 0.356,7.932 2.83,7.558L7.106,6.912C8.088,6.763 8.937,6.122 9.377,5.196L11.289,1.168Z" fill="#FFC000"/>
</svg>
