<svg width="28" height="28" viewBox="0 0 28 28" fill="none" xmlns="http://www.w3.org/2000/svg" xmlns:xlink="http://www.w3.org/1999/xlink">
<path d="M10.29,1.12C11.396,-1.211 14.593,-1.211 15.699,1.12L17.612,5.148C18.051,6.074 18.9,6.716 19.883,6.864L24.158,7.51C26.632,7.884 27.62,11.045 25.83,12.859L22.736,15.995C22.025,16.715 21.701,17.753 21.869,18.77L22.599,23.198C23.022,25.76 20.435,27.713 18.223,26.504L14.398,24.413C13.519,23.933 12.47,23.933 11.591,24.413L7.767,26.504C5.554,27.713 2.968,25.76 3.39,23.198L4.121,18.77C4.288,17.753 3.964,16.715 3.253,15.995L0.159,12.859C-1.631,11.045 -0.643,7.884 1.831,7.51L6.107,6.864C7.089,6.716 7.938,6.074 8.378,5.148L10.29,1.12Z" fill="#FFC000"/>
</svg>
