<svg width="28" height="28" viewBox="0 0 28 28" fill="none" xmlns="http://www.w3.org/2000/svg" xmlns:xlink="http://www.w3.org/1999/xlink">
<path d="M11.294,1.12C12.4,-1.211 15.597,-1.211 16.703,1.12L18.615,5.148C19.055,6.074 19.904,6.716 20.886,6.864L25.162,7.51C27.636,7.884 28.624,11.045 26.834,12.859L23.74,15.995C23.029,16.715 22.705,17.753 22.872,18.77L23.603,23.198C24.025,25.76 21.439,27.713 19.226,26.504L15.402,24.413C14.523,23.933 13.474,23.933 12.595,24.413L8.771,26.504C6.558,27.713 3.972,25.76 4.394,23.198L5.125,18.77C5.292,17.753 4.968,16.715 4.257,15.995L1.163,12.859C-0.627,11.045 0.361,7.884 2.835,7.51L7.111,6.864C8.093,6.716 8.942,6.074 9.382,5.148L11.294,1.12Z" fill="#FFC000"/>
</svg>
