<svg width="28" height="28" viewBox="0 0 28 28" fill="none" xmlns="http://www.w3.org/2000/svg" xmlns:xlink="http://www.w3.org/1999/xlink">
<path d="M10.29,1.097C11.396,-1.234 14.593,-1.234 15.699,1.097L17.612,5.125C18.051,6.051 18.9,6.692 19.883,6.841L24.158,7.487C26.632,7.86 27.62,11.021 25.83,12.836L22.736,15.971C22.025,16.692 21.701,17.73 21.869,18.747L22.599,23.174C23.022,25.736 20.435,27.69 18.223,26.48L14.398,24.39C13.519,23.91 12.47,23.91 11.591,24.39L7.767,26.48C5.554,27.69 2.968,25.736 3.39,23.174L4.121,18.747C4.288,17.73 3.964,16.692 3.253,15.971L0.159,12.836C-1.631,11.021 -0.643,7.86 1.831,7.487L6.107,6.841C7.089,6.692 7.938,6.051 8.378,5.125L10.29,1.097Z" fill="#FFC000"/>
</svg>
