<svg width="40" height="42" viewBox="0 0 40 42" fill="none" xmlns="http://www.w3.org/2000/svg" xmlns:xlink="http://www.w3.org/1999/xlink">
<path d="M16.066,3.543C17.675,0.152 22.325,0.152 23.934,3.543L26.716,9.402C27.355,10.749 28.59,11.682 30.019,11.898L36.239,12.837C39.837,13.381 41.274,17.979 38.67,20.618L34.17,25.179C33.136,26.227 32.664,27.737 32.908,29.217L33.97,35.657C34.585,39.384 30.823,42.225 27.604,40.466L22.042,37.425C20.763,36.727 19.236,36.727 17.958,37.425L12.396,40.466C9.177,42.225 5.415,39.384 6.03,35.657L7.092,29.217C7.336,27.737 6.864,26.227 5.83,25.179L1.33,20.618C-1.274,17.979 0.163,13.381 3.761,12.837L9.981,11.898C11.41,11.682 12.645,10.749 13.284,9.402L16.066,3.543Z" fill="#FFC000"/>
</svg>
