<svg width="40" height="42" viewBox="0 0 40 42" fill="none" xmlns="http://www.w3.org/2000/svg" xmlns:xlink="http://www.w3.org/1999/xlink">
<path d="M16.066,2.81C17.675,-0.58 22.325,-0.58 23.934,2.81L26.716,8.67C27.355,10.016 28.59,10.949 30.019,11.165L36.239,12.105C39.837,12.649 41.274,17.247 38.67,19.886L34.17,24.447C33.136,25.495 32.664,27.005 32.908,28.484L33.97,34.925C34.585,38.651 30.823,41.493 27.604,39.733L22.042,36.693C20.763,35.994 19.237,35.994 17.958,36.693L12.396,39.733C9.177,41.493 5.415,38.651 6.03,34.925L7.092,28.484C7.336,27.005 6.864,25.495 5.83,24.447L1.33,19.886C-1.274,17.247 0.163,12.649 3.761,12.105L9.981,11.165C11.41,10.949 12.645,10.016 13.284,8.67L16.066,2.81Z" fill="#FFC000"/>
</svg>
