<svg width="28" height="28" viewBox="0 0 28 28" fill="none" xmlns="http://www.w3.org/2000/svg" xmlns:xlink="http://www.w3.org/1999/xlink">
<path d="M10.293,1.097C11.399,-1.234 14.596,-1.234 15.702,1.097L17.614,5.125C18.054,6.051 18.903,6.692 19.885,6.841L24.161,7.487C26.635,7.86 27.623,11.021 25.833,12.836L22.739,15.971C22.028,16.692 21.704,17.73 21.871,18.747L22.602,23.174C23.024,25.736 20.438,27.69 18.225,26.48L14.401,24.39C13.522,23.91 12.473,23.91 11.594,24.39L7.77,26.48C5.557,27.69 2.971,25.736 3.393,23.174L4.124,18.747C4.291,17.73 3.967,16.692 3.256,15.971L0.162,12.836C-1.628,11.021 -0.64,7.86 1.834,7.487L6.11,6.841C7.092,6.692 7.941,6.051 8.381,5.125L10.293,1.097Z" fill="#FFC000"/>
</svg>
