<svg width="28" height="28" viewBox="0 0 28 28" fill="none" xmlns="http://www.w3.org/2000/svg" xmlns:xlink="http://www.w3.org/1999/xlink">
<path d="M11.289,1.12C12.395,-1.211 15.592,-1.211 16.698,1.12L18.611,5.148C19.05,6.074 19.899,6.716 20.882,6.864L25.157,7.51C27.631,7.884 28.619,11.045 26.829,12.859L23.735,15.995C23.024,16.715 22.7,17.753 22.868,18.77L23.598,23.198C24.021,25.76 21.434,27.713 19.222,26.504L15.397,24.413C14.519,23.933 13.469,23.933 12.59,24.413L8.766,26.504C6.553,27.713 3.967,25.76 4.389,23.198L5.12,18.77C5.288,17.753 4.963,16.715 4.252,15.995L1.158,12.859C-0.632,11.045 0.356,7.884 2.83,7.51L7.106,6.864C8.088,6.716 8.937,6.074 9.377,5.148L11.289,1.12Z" fill="#FFC000"/>
</svg>
