<svg width="28" height="28" viewBox="0 0 28 28" fill="none" xmlns="http://www.w3.org/2000/svg" xmlns:xlink="http://www.w3.org/1999/xlink">
<path d="M11.292,1.12C12.398,-1.211 15.595,-1.211 16.701,1.12L18.614,5.148C19.053,6.074 19.902,6.716 20.884,6.864L25.16,7.51C27.634,7.884 28.622,11.045 26.832,12.859L23.738,15.995C23.027,16.715 22.703,17.753 22.87,18.77L23.601,23.198C24.023,25.76 21.437,27.713 19.224,26.504L15.4,24.413C14.521,23.933 13.472,23.933 12.593,24.413L8.769,26.504C6.556,27.713 3.97,25.76 4.392,23.198L5.123,18.77C5.29,17.753 4.966,16.715 4.255,15.995L1.161,12.859C-0.629,11.045 0.359,7.884 2.833,7.51L7.109,6.864C8.091,6.716 8.94,6.074 9.38,5.148L11.292,1.12Z" fill="#FFC000"/>
</svg>
