<svg width="28" height="28" viewBox="0 0 28 28" fill="none" xmlns="http://www.w3.org/2000/svg" xmlns:xlink="http://www.w3.org/1999/xlink">
<path d="M11.294,1.168C12.4,-1.163 15.597,-1.163 16.703,1.168L18.615,5.196C19.055,6.122 19.904,6.763 20.886,6.912L25.162,7.558C27.636,7.932 28.624,11.093 26.834,12.907L23.74,16.043C23.029,16.763 22.705,17.801 22.872,18.818L23.603,23.246C24.025,25.808 21.439,27.761 19.226,26.552L15.402,24.461C14.523,23.981 13.474,23.981 12.595,24.461L8.771,26.552C6.558,27.761 3.972,25.808 4.394,23.246L5.125,18.818C5.292,17.801 4.968,16.763 4.257,16.043L1.163,12.907C-0.627,11.093 0.361,7.932 2.835,7.558L7.111,6.912C8.093,6.763 8.942,6.122 9.382,5.196L11.294,1.168Z" fill="#FFC000"/>
</svg>
