<svg width="38" height="34" viewBox="0 0 38 34" fill="none" xmlns="http://www.w3.org/2000/svg" xmlns:xlink="http://www.w3.org/1999/xlink">
<path d="M32.595,1.89L32,0.513L32,0.513L32.595,1.89ZM1.818,15.191L1.223,13.814L1.223,13.814L1.818,15.191ZM35.364,4.039L36.845,4.274L36.845,4.274L35.364,4.039ZM31.156,30.591L29.674,30.356L29.674,30.356L31.156,30.591ZM27.726,31.651L26.632,32.677L26.636,32.681L27.726,31.651ZM2.325,19.007L2.11,20.491L2.11,20.491L2.325,19.007ZM15.213,18.786L14.377,17.541L15.213,18.786ZM9.611,20.06L9.826,18.576L9.826,18.576L9.611,20.06ZM25.446,12.86L24.262,11.94C24.25,11.956 24.238,11.971 24.227,11.987L25.446,12.86ZM24.908,12.283L25.743,13.528L25.743,13.528L24.908,12.283ZM21.059,24.541L22.153,23.515L22.15,23.511L21.059,24.541ZM20.809,19.341L21.993,20.261C22.006,20.245 22.017,20.23 22.029,20.214L20.809,19.341ZM32,0.513L1.223,13.814L2.413,16.568L33.19,3.267L32,0.513ZM36.845,4.274C37.277,1.549 34.533,-0.581 32,0.513L33.19,3.267C33.552,3.111 33.944,3.415 33.882,3.804L36.845,4.274ZM32.637,30.826L36.845,4.274L33.882,3.804L29.674,30.356L32.637,30.826ZM26.636,32.681C28.63,34.794 32.183,33.696 32.637,30.826L29.674,30.356C29.609,30.766 29.102,30.923 28.817,30.621L26.636,32.681ZM19.965,25.567L26.632,32.677L28.82,30.625L22.153,23.515L19.965,25.567ZM22.029,20.214L26.666,13.733L24.227,11.987L19.589,18.468L22.029,20.214ZM24.072,11.037L14.377,17.541L16.049,20.032L25.743,13.528L24.072,11.037ZM2.11,20.491L9.396,21.545L9.826,18.576L2.54,17.522L2.11,20.491ZM1.223,13.814C-2.017,15.215 -1.383,19.986 2.11,20.491L2.54,17.522C2.381,17.499 2.297,17.439 2.244,17.382C2.182,17.315 2.132,17.215 2.116,17.093C2.099,16.971 2.122,16.861 2.164,16.78C2.2,16.712 2.266,16.632 2.413,16.568L1.223,13.814ZM14.377,17.541C13.041,18.437 11.419,18.806 9.826,18.576L9.396,21.545C11.725,21.882 14.095,21.343 16.049,20.032L14.377,17.541ZM26.631,13.781C27.955,12.077 25.864,9.835 24.072,11.037L25.743,13.528C24.706,14.224 23.495,12.927 24.262,11.94L26.631,13.781ZM22.15,23.511C21.303,22.614 21.237,21.235 21.993,20.261L19.624,18.42C17.96,20.562 18.106,23.598 19.968,25.57L22.15,23.511Z" fill="#434343"/>
</svg>
