<svg width="38" height="34" viewBox="0 0 38 34" fill="none" xmlns="http://www.w3.org/2000/svg" xmlns:xlink="http://www.w3.org/1999/xlink">
<path d="M32.595,1.156L32,-0.221L32,-0.221L32.595,1.156ZM1.818,14.457L1.223,13.08L1.223,13.08L1.818,14.457ZM35.364,3.305L36.845,3.54L36.845,3.54L35.364,3.305ZM31.156,29.857L29.674,29.622L29.674,29.622L31.156,29.857ZM27.726,30.916L26.632,31.943L26.636,31.946L27.726,30.916ZM2.325,18.272L2.11,19.757L2.11,19.757L2.325,18.272ZM15.213,18.052L14.377,16.806L15.213,18.052ZM9.611,19.326L9.826,17.842L9.826,17.842L9.611,19.326ZM25.446,12.126L24.262,11.206C24.25,11.221 24.238,11.237 24.227,11.253L25.446,12.126ZM24.908,11.548L25.743,12.794L25.743,12.794L24.908,11.548ZM21.059,23.806L22.153,22.78L22.15,22.777L21.059,23.806ZM20.809,18.606L21.993,19.527C22.006,19.511 22.017,19.495 22.029,19.479L20.809,18.606ZM32,-0.221L1.223,13.08L2.413,15.834L33.19,2.533L32,-0.221ZM36.845,3.54C37.277,0.814 34.533,-1.316 32,-0.221L33.19,2.533C33.552,2.376 33.944,2.681 33.882,3.07L36.845,3.54ZM32.637,30.091L36.845,3.54L33.882,3.07L29.674,29.622L32.637,30.091ZM26.636,31.946C28.63,34.059 32.183,32.962 32.637,30.091L29.674,29.622C29.609,30.032 29.102,30.189 28.817,29.887L26.636,31.946ZM19.965,24.832L26.632,31.943L28.82,29.89L22.153,22.78L19.965,24.832ZM22.029,19.479L26.666,12.999L24.227,11.253L19.589,17.733L22.029,19.479ZM24.072,10.303L14.377,16.806L16.049,19.298L25.743,12.794L24.072,10.303ZM2.11,19.757L9.396,20.811L9.826,17.842L2.54,16.788L2.11,19.757ZM1.223,13.08C-2.017,14.48 -1.383,19.252 2.11,19.757L2.54,16.788C2.381,16.765 2.297,16.705 2.244,16.648C2.182,16.581 2.132,16.481 2.116,16.359C2.099,16.237 2.122,16.127 2.164,16.046C2.2,15.977 2.266,15.897 2.413,15.834L1.223,13.08ZM14.377,16.806C13.041,17.703 11.419,18.072 9.826,17.842L9.396,20.811C11.725,21.147 14.095,20.608 16.049,19.298L14.377,16.806ZM26.631,13.046C27.955,11.342 25.864,9.1 24.072,10.303L25.743,12.794C24.706,13.49 23.495,12.192 24.262,11.206L26.631,13.046ZM22.15,22.777C21.303,21.88 21.237,20.5 21.993,19.527L19.624,17.686C17.96,19.828 18.106,22.864 19.968,24.836L22.15,22.777Z" fill="#434343"/>
</svg>
