<svg width="38" height="36" viewBox="0 0 38 36" fill="none" xmlns="http://www.w3.org/2000/svg" xmlns:xlink="http://www.w3.org/1999/xlink">
<path d="M32.595,2.46L32,1.084L32,1.084L32.595,2.46ZM1.818,15.762L1.223,14.385L1.223,14.385L1.818,15.762ZM35.364,4.609L36.845,4.844L36.845,4.844L35.364,4.609ZM31.156,31.161L29.674,30.927L29.674,30.927L31.156,31.161ZM27.726,32.221L26.632,33.247L26.636,33.251L27.726,32.221ZM2.325,19.577L2.11,21.062L2.11,21.062L2.325,19.577ZM15.213,19.357L14.377,18.111L15.213,19.357ZM9.611,20.631L9.826,19.146L9.826,19.146L9.611,20.631ZM25.446,13.431L24.262,12.51C24.25,12.526 24.238,12.542 24.227,12.558L25.446,13.431ZM24.908,12.853L25.743,14.099L25.743,14.099L24.908,12.853ZM21.059,25.111L22.153,24.085L22.15,24.081L21.059,25.111ZM20.809,19.911L21.993,20.831C22.006,20.816 22.017,20.8 22.029,20.784L20.809,19.911ZM32,1.084L1.223,14.385L2.413,17.139L33.19,3.837L32,1.084ZM36.845,4.844C37.277,2.119 34.533,-0.011 32,1.084L33.19,3.837C33.552,3.681 33.944,3.985 33.882,4.375L36.845,4.844ZM32.637,31.396L36.845,4.844L33.882,4.375L29.674,30.927L32.637,31.396ZM26.636,33.251C28.63,35.364 32.183,34.266 32.637,31.396L29.674,30.927C29.609,31.337 29.102,31.493 28.817,31.192L26.636,33.251ZM19.965,26.137L26.632,33.247L28.82,31.195L22.153,24.085L19.965,26.137ZM22.029,20.784L26.666,14.304L24.227,12.558L19.589,19.038L22.029,20.784ZM24.072,11.607L14.377,18.111L16.049,20.602L25.743,14.099L24.072,11.607ZM2.11,21.062L9.396,22.115L9.826,19.146L2.54,18.092L2.11,21.062ZM1.223,14.385C-2.017,15.785 -1.383,20.556 2.11,21.062L2.54,18.092C2.381,18.069 2.297,18.01 2.244,17.953C2.182,17.886 2.132,17.786 2.116,17.663C2.099,17.541 2.122,17.431 2.164,17.351C2.2,17.282 2.266,17.202 2.413,17.139L1.223,14.385ZM14.377,18.111C13.041,19.008 11.419,19.377 9.826,19.146L9.396,22.115C11.725,22.452 14.095,21.913 16.049,20.602L14.377,18.111ZM26.631,14.351C27.955,12.647 25.864,10.405 24.072,11.607L25.743,14.099C24.706,14.795 23.495,13.497 24.262,12.51L26.631,14.351ZM22.15,24.081C21.303,23.185 21.237,21.805 21.993,20.831L19.624,18.991C17.96,21.133 18.106,24.168 19.968,26.141L22.15,24.081Z" fill="#434343"/>
</svg>
