<svg width="28" height="26" viewBox="0 0 28 26" fill="none" xmlns="http://www.w3.org/2000/svg" xmlns:xlink="http://www.w3.org/1999/xlink">
<path d="M1,24.996C0.172,24.996 -0.5,24.324 -0.5,23.496L-0.5,9.996C-0.5,9.168 0.172,8.496 1,8.496L2.5,8.496C3.328,8.496 4,9.168 4,9.996L4,23.496C4,24.324 3.328,24.996 2.5,24.996L1,24.996ZM24.045,7.915C25.395,7.915 26.5,9.097 26.5,10.543C26.481,12.551 26.432,13.659 26.356,13.866C26.279,14.073 25.018,17.258 22.573,23.419C22.205,24.339 19.18,24.996 18.199,24.996L9.58,24.996C8.23,24.996 6.25,23.813 6.25,22.368L6.25,8.496L14.391,0.072L14.395,0.067C15.119,-0.676 16.307,-0.692 17.05,0.031C17.295,0.425 17.541,0.951 17.541,1.477C17.541,1.608 17.541,1.739 17.541,1.871L16.314,7.915L24.045,7.915Z" clip-rule="evenodd" fill-rule="evenodd" transform="rotate(360 13 12.248)" fill="#C4C4C4"/>
</svg>
