<svg width="28" height="28" viewBox="0 0 28 28" fill="none" xmlns="http://www.w3.org/2000/svg" xmlns:xlink="http://www.w3.org/1999/xlink">
<path d="M1,26.378C0.172,26.378 -0.5,25.706 -0.5,24.878L-0.5,11.378C-0.5,10.549 0.172,9.878 1,9.878L2.5,9.878C3.328,9.878 4,10.549 4,11.378L4,24.878C4,25.706 3.328,26.378 2.5,26.378L1,26.378ZM24.045,9.296C25.395,9.296 26.5,10.479 26.5,11.924C26.481,13.933 26.432,15.041 26.356,15.248C26.279,15.455 25.018,18.639 22.573,24.801C22.205,25.721 19.18,26.378 18.199,26.378L9.58,26.378C8.23,26.378 6.25,25.195 6.25,23.75L6.25,9.878L14.391,1.454L14.395,1.449C15.119,0.706 16.307,0.69 17.05,1.413C17.295,1.807 17.541,2.333 17.541,2.858C17.541,2.99 17.541,3.121 17.541,3.252L16.314,9.296L24.045,9.296Z" clip-rule="evenodd" fill-rule="evenodd" fill="#C4C4C4"/>
</svg>
