<svg width="28" height="26" viewBox="0 0 28 26" fill="none" xmlns="http://www.w3.org/2000/svg" xmlns:xlink="http://www.w3.org/1999/xlink">
<path d="M1,24.873C0.172,24.873 -0.5,24.201 -0.5,23.373L-0.5,9.873C-0.5,9.045 0.172,8.373 1,8.373L2.5,8.373C3.328,8.373 4,9.045 4,9.873L4,23.373C4,24.201 3.328,24.873 2.5,24.873L1,24.873ZM24.045,7.792C25.395,7.792 26.5,8.974 26.5,10.42C26.481,12.428 26.432,13.536 26.356,13.743C26.279,13.95 25.018,17.135 22.573,23.296C22.205,24.216 19.18,24.873 18.199,24.873L9.58,24.873C8.23,24.873 6.25,23.69 6.25,22.245L6.25,8.373L14.391,-0.051L14.395,-0.056C15.119,-0.799 16.307,-0.815 17.05,-0.092C17.295,0.302 17.541,0.828 17.541,1.354C17.541,1.485 17.541,1.616 17.541,1.748L16.314,7.792L24.045,7.792Z" clip-rule="evenodd" fill-rule="evenodd" transform="rotate(360 13 12.125)" fill="#C4C4C4"/>
</svg>
