<svg width="28" height="26" viewBox="0 0 28 26" fill="none" xmlns="http://www.w3.org/2000/svg" xmlns:xlink="http://www.w3.org/1999/xlink">
<path d="M1,24.501C0.172,24.501 -0.5,23.829 -0.5,23.001L-0.5,9.501C-0.5,8.672 0.172,8.001 1,8.001L2.5,8.001C3.328,8.001 4,8.672 4,9.501L4,23.001C4,23.829 3.328,24.501 2.5,24.501L1,24.501ZM24.045,7.42C25.395,7.42 26.5,8.602 26.5,10.047C26.481,12.056 26.432,13.164 26.356,13.371C26.279,13.578 25.018,16.762 22.573,22.924C22.205,23.844 19.18,24.501 18.199,24.501L9.58,24.501C8.23,24.501 6.25,23.318 6.25,21.873L6.25,8.001L14.391,-0.423L14.395,-0.428C15.119,-1.171 16.307,-1.187 17.05,-0.464C17.295,-0.07 17.541,0.456 17.541,0.981C17.541,1.113 17.541,1.244 17.541,1.375L16.314,7.42L24.045,7.42Z" clip-rule="evenodd" fill-rule="evenodd" fill="#C4C4C4"/>
</svg>
