<svg width="48" height="48" viewBox="0 0 48 48" fill="none" xmlns="http://www.w3.org/2000/svg" xmlns:xlink="http://www.w3.org/1999/xlink">
<path d="M18,13.877L16.5,13.877L18,13.877ZM19.5,11.877C19.5,11.049 18.828,10.377 18,10.377C17.172,10.377 16.5,11.049 16.5,11.877L19.5,11.877ZM31.5,11.877C31.5,11.049 30.828,10.377 30,10.377C29.172,10.377 28.5,11.049 28.5,11.877L31.5,11.877ZM30,13.877L31.5,13.877L31.5,13.877L30,13.877ZM19.5,13.877L19.5,11.877L16.5,11.877L16.5,13.877L19.5,13.877ZM28.5,11.877L28.5,13.877L31.5,13.877L31.5,11.877L28.5,11.877ZM24,18.377C21.515,18.377 19.5,16.362 19.5,13.877L16.5,13.877C16.5,18.019 19.858,21.377 24,21.377L24,18.377ZM24,21.377C28.142,21.377 31.5,18.019 31.5,13.877L28.5,13.877C28.5,16.362 26.485,18.377 24,18.377L24,21.377Z" fill="#434343"/>
<path d="M8.886,12.562L7.899,12.397L7.899,12.397L8.886,12.562ZM5.552,32.562L6.539,32.726L6.539,32.726L5.552,32.562ZM39.114,12.562L40.1,12.397L40.1,12.397L39.114,12.562ZM40.347,26.041C40.437,26.586 40.953,26.954 41.497,26.863C42.042,26.773 42.41,26.257 42.319,25.713L40.347,26.041ZM26,42.877C26.552,42.877 27,42.429 27,41.877C27,41.325 26.552,40.877 26,40.877L26,42.877ZM16.777,6.877L31.223,6.877L31.223,4.877L16.777,4.877L16.777,6.877ZM7.899,12.397L4.566,32.397L6.539,32.726L9.872,12.726L7.899,12.397ZM38.127,12.726L40.347,26.041L42.319,25.713L40.1,12.397L38.127,12.726ZM26,40.877L13.443,40.877L13.443,42.877L26,42.877L26,40.877ZM16.777,4.877C12.377,4.877 8.622,8.058 7.899,12.397L9.872,12.726C10.435,9.351 13.355,6.877 16.777,6.877L16.777,4.877ZM31.223,6.877C34.645,6.877 37.565,9.351 38.127,12.726L40.1,12.397C39.377,8.058 35.622,4.877 31.223,4.877L31.223,6.877ZM4.566,32.397C3.652,37.883 7.882,42.877 13.443,42.877L13.443,40.877C9.118,40.877 5.828,36.993 6.539,32.726L4.566,32.397Z" fill="#434343"/>
<line x1="37" y1="29.877" x2="37" y2="41.877" stroke="#434343" stroke-width="1" stroke-miterlimit="3.999327" stroke-linecap="round" stroke-linejoin="round"/>
<line x1="32" y1="34.877" x2="44" y2="34.877" stroke="#434343" stroke-width="1" stroke-miterlimit="3.999327" stroke-linecap="round" stroke-linejoin="round"/>
</svg>
