<svg width="48" height="48" viewBox="0 0 48 48" fill="none" xmlns="http://www.w3.org/2000/svg" xmlns:xlink="http://www.w3.org/1999/xlink">
<path d="M18,14L16.5,14L18,14ZM19.5,12C19.5,11.172 18.828,10.5 18,10.5C17.172,10.5 16.5,11.172 16.5,12L19.5,12ZM31.5,12C31.5,11.172 30.828,10.5 30,10.5C29.172,10.5 28.5,11.172 28.5,12L31.5,12ZM30,14L31.5,14L31.5,14L30,14ZM19.5,14L19.5,12L16.5,12L16.5,14L19.5,14ZM28.5,12L28.5,14L31.5,14L31.5,12L28.5,12ZM24,18.5C21.515,18.5 19.5,16.485 19.5,14L16.5,14C16.5,18.142 19.858,21.5 24,21.5L24,18.5ZM24,21.5C28.142,21.5 31.5,18.142 31.5,14L28.5,14C28.5,16.485 26.485,18.5 24,18.5L24,21.5Z" fill="#434343"/>
<path d="M8.886,12.685L7.899,12.52L7.899,12.52L8.886,12.685ZM5.552,32.685L6.539,32.849L6.539,32.849L5.552,32.685ZM39.114,12.685L40.1,12.52L40.1,12.52L39.114,12.685ZM40.347,26.164C40.437,26.709 40.953,27.077 41.497,26.986C42.042,26.896 42.41,26.38 42.319,25.836L40.347,26.164ZM26,43C26.552,43 27,42.552 27,42C27,41.448 26.552,41 26,41L26,43ZM16.777,7L31.223,7L31.223,5L16.777,5L16.777,7ZM7.899,12.52L4.566,32.52L6.539,32.849L9.872,12.849L7.899,12.52ZM38.127,12.849L40.347,26.164L42.319,25.836L40.1,12.52L38.127,12.849ZM26,41L13.443,41L13.443,43L26,43L26,41ZM16.777,5C12.377,5 8.622,8.181 7.899,12.52L9.872,12.849C10.435,9.474 13.355,7 16.777,7L16.777,5ZM31.223,7C34.645,7 37.565,9.474 38.127,12.849L40.1,12.52C39.377,8.181 35.622,5 31.223,5L31.223,7ZM4.566,32.52C3.652,38.006 7.882,43 13.443,43L13.443,41C9.118,41 5.828,37.116 6.539,32.849L4.566,32.52Z" fill="#434343"/>
<line x1="37" y1="30" x2="37" y2="42" stroke="#434343" stroke-width="1" stroke-miterlimit="3.999327" stroke-linecap="round" stroke-linejoin="round"/>
<line x1="32" y1="35" x2="44" y2="35" stroke="#434343" stroke-width="1" stroke-miterlimit="3.999327" stroke-linecap="round" stroke-linejoin="round"/>
</svg>
