<svg width="28" height="40" viewBox="0 0 28 40" fill="none" xmlns="http://www.w3.org/2000/svg" xmlns:xlink="http://www.w3.org/1999/xlink">
<path d="M26,2.268L27.5,2.268C27.5,1.439 26.828,0.768 26,0.768L26,2.268ZM26,10.268L26,11.768C26.828,11.768 27.5,11.096 27.5,10.268L26,10.268ZM18,38.268L18,39.768C18.828,39.768 19.5,39.096 19.5,38.268L18,38.268ZM10,38.268L8.5,38.268C8.5,39.096 9.172,39.768 10,39.768L10,38.268ZM10,24.268L11.5,24.268C11.5,23.439 10.828,22.768 10,22.768L10,24.268ZM2,24.268L0.5,24.268C0.5,25.096 1.172,25.768 2,25.768L2,24.268ZM2,16.268L2,14.768C1.172,14.768 0.5,15.439 0.5,16.268L2,16.268ZM10,16.268L10,17.768C10.828,17.768 11.5,17.096 11.5,16.268L10,16.268ZM18,16.268L16.5,16.268C16.5,17.096 17.172,17.768 18,17.768L18,16.268ZM26,16.268L27.5,16.268C27.5,15.439 26.828,14.768 26,14.768L26,16.268ZM26,24.268L26,25.768C26.828,25.768 27.5,25.096 27.5,24.268L26,24.268ZM18,24.268L18,22.768C17.172,22.768 16.5,23.439 16.5,24.268L18,24.268ZM20,3.768L26,3.768L26,0.768L20,0.768L20,3.768ZM24.5,2.268L24.5,10.268L27.5,10.268L27.5,2.268L24.5,2.268ZM26,8.768L20,8.768L20,11.768L26,11.768L26,8.768ZM18,36.768L10,36.768L10,39.768L18,39.768L18,36.768ZM11.5,38.268L11.5,24.268L8.5,24.268L8.5,38.268L11.5,38.268ZM10,22.768L2,22.768L2,25.768L10,25.768L10,22.768ZM3.5,24.268L3.5,16.268L0.5,16.268L0.5,24.268L3.5,24.268ZM2,17.768L10,17.768L10,14.768L2,14.768L2,17.768ZM11.5,16.268L11.5,12.268L8.5,12.268L8.5,16.268L11.5,16.268ZM16.5,12.268L16.5,16.268L19.5,16.268L19.5,12.268L16.5,12.268ZM18,17.768L26,17.768L26,14.768L18,14.768L18,17.768ZM24.5,16.268L24.5,24.268L27.5,24.268L27.5,16.268L24.5,16.268ZM16.5,24.268L16.5,38.268L19.5,38.268L19.5,24.268L16.5,24.268ZM26,22.768L18,22.768L18,25.768L26,25.768L26,22.768ZM20,8.768C18.067,8.768 16.5,10.335 16.5,12.268L19.5,12.268C19.5,11.991 19.724,11.768 20,11.768L20,8.768ZM20,0.768C13.649,0.768 8.5,5.916 8.5,12.268L11.5,12.268C11.5,7.573 15.306,3.768 20,3.768L20,0.768Z" fill="#434343"/>
</svg>
