<svg width="20" height="28" viewBox="0 0 20 28" fill="none" xmlns="http://www.w3.org/2000/svg" xmlns:xlink="http://www.w3.org/1999/xlink">
<path d="M-0.061,8.324C-0.646,8.91 -0.646,9.86 -0.061,10.445C0.525,11.031 1.475,11.031 2.061,10.445L-0.061,8.324ZM9,1.385L10.061,0.324C9.475,-0.262 8.525,-0.262 7.939,0.324L9,1.385ZM15.939,10.445C16.525,11.031 17.475,11.031 18.061,10.445C18.646,9.86 18.646,8.91 18.061,8.324L15.939,10.445ZM7.5,25.385C7.5,26.213 8.172,26.885 9,26.885C9.828,26.885 10.5,26.213 10.5,25.385L7.5,25.385ZM2.061,10.445L10.061,2.445L7.939,0.324L-0.061,8.324L2.061,10.445ZM7.939,2.445L15.939,10.445L18.061,8.324L10.061,0.324L7.939,2.445ZM7.5,1.385L7.5,25.385L10.5,25.385L10.5,1.385L7.5,1.385Z" transform="rotate(180 9 13.385)" fill="#FFFFFF"/>
</svg>
