<svg width="44" height="28" viewBox="0 0 44 28" fill="none" xmlns="http://www.w3.org/2000/svg" xmlns:xlink="http://www.w3.org/1999/xlink">
<path d="M18,0.5C17.172,0.5 16.5,1.172 16.5,2C16.5,2.828 17.172,3.5 18,3.5L18,0.5ZM30,3.5C30.828,3.5 31.5,2.828 31.5,2C31.5,1.172 30.828,0.5 30,0.5L30,3.5ZM18,16.5C17.172,16.5 16.5,17.172 16.5,18C16.5,18.828 17.172,19.5 18,19.5L18,16.5ZM30,19.5C30.828,19.5 31.5,18.828 31.5,18C31.5,17.172 30.828,16.5 30,16.5L30,19.5ZM18,8.5C17.172,8.5 16.5,9.172 16.5,10C16.5,10.828 17.172,11.5 18,11.5L18,8.5ZM42,11.5C42.828,11.5 43.5,10.828 43.5,10C43.5,9.172 42.828,8.5 42,8.5L42,11.5ZM18,24.5C17.172,24.5 16.5,25.172 16.5,26C16.5,26.828 17.172,27.5 18,27.5L18,24.5ZM42,27.5C42.828,27.5 43.5,26.828 43.5,26C43.5,25.172 42.828,24.5 42,24.5L42,27.5ZM4,3.5L8,3.5L8,0.5L4,0.5L4,3.5ZM8.5,4L8.5,8L11.5,8L11.5,4L8.5,4ZM8,8.5L4,8.5L4,11.5L8,11.5L8,8.5ZM3.5,8L3.5,4L0.5,4L0.5,8L3.5,8ZM4,8.5C3.724,8.5 3.5,8.276 3.5,8L0.5,8C0.5,9.933 2.067,11.5 4,11.5L4,8.5ZM8.5,8C8.5,8.276 8.276,8.5 8,8.5L8,11.5C9.933,11.5 11.5,9.933 11.5,8L8.5,8ZM8,3.5C8.276,3.5 8.5,3.724 8.5,4L11.5,4C11.5,2.067 9.933,0.5 8,0.5L8,3.5ZM4,0.5C2.067,0.5 0.5,2.067 0.5,4L3.5,4C3.5,3.724 3.724,3.5 4,3.5L4,0.5ZM4,19.5L8,19.5L8,16.5L4,16.5L4,19.5ZM8.5,20L8.5,24L11.5,24L11.5,20L8.5,20ZM8,24.5L4,24.5L4,27.5L8,27.5L8,24.5ZM3.5,24L3.5,20L0.5,20L0.5,24L3.5,24ZM4,24.5C3.724,24.5 3.5,24.276 3.5,24L0.5,24C0.5,25.933 2.067,27.5 4,27.5L4,24.5ZM8.5,24C8.5,24.276 8.276,24.5 8,24.5L8,27.5C9.933,27.5 11.5,25.933 11.5,24L8.5,24ZM8,19.5C8.276,19.5 8.5,19.724 8.5,20L11.5,20C11.5,18.067 9.933,16.5 8,16.5L8,19.5ZM4,16.5C2.067,16.5 0.5,18.067 0.5,20L3.5,20C3.5,19.724 3.724,19.5 4,19.5L4,16.5ZM18,3.5L30,3.5L30,0.5L18,0.5L18,3.5ZM18,19.5L30,19.5L30,16.5L18,16.5L18,19.5ZM18,11.5L42,11.5L42,8.5L18,8.5L18,11.5ZM18,27.5L42,27.5L42,24.5L18,24.5L18,27.5Z" fill="#FFFFFF"/>
</svg>
