<svg width="30" height="30" viewBox="0 0 30 30" fill="none" xmlns="http://www.w3.org/2000/svg" xmlns:xlink="http://www.w3.org/1999/xlink">
<path d="M26.627,28.041C27.017,28.431 27.65,28.431 28.041,28.041C28.431,27.65 28.431,27.017 28.041,26.627L26.627,28.041ZM25.374,23.96C24.984,23.569 24.35,23.569 23.96,23.96C23.569,24.35 23.569,24.984 23.96,25.374L25.374,23.96ZM1.667,13.334C1.667,6.89 6.89,1.667 13.334,1.667L13.334,-0.333C5.786,-0.333 -0.333,5.786 -0.333,13.334L1.667,13.334ZM13.334,1.667C19.777,1.667 25,6.89 25,13.334L27,13.334C27,5.786 20.882,-0.333 13.334,-0.333L13.334,1.667ZM25,13.334C25,19.777 19.777,25 13.334,25L13.334,27C20.882,27 27,20.882 27,13.334L25,13.334ZM13.334,25C6.89,25 1.667,19.777 1.667,13.334L-0.333,13.334C-0.333,20.882 5.786,27 13.334,27L13.334,25ZM28.041,26.627L25.374,23.96L23.96,25.374L26.627,28.041L28.041,26.627Z" fill="#C4C4C4"/>
</svg>
