<svg width="46" height="26" viewBox="0 0 46 26" fill="none" xmlns="http://www.w3.org/2000/svg" xmlns:xlink="http://www.w3.org/1999/xlink">
<path d="M2.103,1.432C1.516,0.846 0.565,0.846 -0.022,1.432C-0.608,2.019 -0.608,2.97 -0.022,3.556L2.103,1.432ZM44.157,3.556C44.744,2.97 44.744,2.019 44.157,1.432C43.571,0.846 42.62,0.846 42.033,1.432L44.157,3.556ZM-0.022,3.556L19.592,23.169L21.716,21.045L2.103,1.432L-0.022,3.556ZM24.544,23.169L44.157,3.556L42.033,1.432L22.42,21.045L24.544,23.169ZM19.592,23.169C20.959,24.537 23.177,24.537 24.544,23.169L22.42,21.045C22.226,21.24 21.91,21.24 21.716,21.045L19.592,23.169Z" fill="#0073E6"/>
</svg>
