<svg width="44" height="40" viewBox="0 0 44 40" fill="none" xmlns="http://www.w3.org/2000/svg" xmlns:xlink="http://www.w3.org/1999/xlink">
<path d="M22,7.048L20.902,8.07C21.186,8.375 21.584,8.548 22,8.548C22.416,8.548 22.814,8.375 23.098,8.07L22,7.048ZM23.53,5.405L22.432,4.383L22.432,4.383L23.53,5.405ZM20.47,5.405L21.568,4.383L21.568,4.383L20.47,5.405ZM5.169,21.843L4.071,22.865L5.169,21.843ZM18.94,36.638L20.038,35.616L20.038,35.616L18.94,36.638ZM25.06,36.638L23.962,35.616L25.06,36.638ZM38.831,21.843L37.733,20.821L37.733,20.821L38.831,21.843ZM38.831,5.405L39.929,4.383L39.929,4.383L38.831,5.405ZM5.169,5.405L4.071,4.383L5.169,5.405ZM23.098,8.07L24.628,6.427L22.432,4.383L20.902,6.026L23.098,8.07ZM19.372,6.427L20.902,8.07L23.098,6.026L21.568,4.383L19.372,6.427ZM4.071,22.865L17.842,37.66L20.038,35.616L6.267,20.821L4.071,22.865ZM26.158,37.66L39.929,22.865L37.733,20.821L23.962,35.616L26.158,37.66ZM37.733,6.427C41.422,10.39 41.422,16.858 37.733,20.821L39.929,22.865C44.69,17.75 44.69,9.498 39.929,4.383L37.733,6.427ZM39.929,4.383C35.111,-0.794 27.251,-0.794 22.432,4.383L24.628,6.427C28.26,2.524 34.101,2.524 37.733,6.427L39.929,4.383ZM6.267,6.427C9.899,2.524 15.74,2.524 19.372,6.427L21.568,4.383C16.749,-0.794 8.889,-0.794 4.071,4.383L6.267,6.427ZM17.842,37.66C20.125,40.113 23.875,40.113 26.158,37.66L23.962,35.616C22.865,36.795 21.135,36.795 20.038,35.616L17.842,37.66ZM4.071,4.383C-0.69,9.498 -0.69,17.75 4.071,22.865L6.267,20.821C2.578,16.858 2.578,10.39 6.267,6.427L4.071,4.383Z" fill="#FFFFFF"/>
</svg>
