<svg width="38" height="40" viewBox="0 0 38 40" fill="none" xmlns="http://www.w3.org/2000/svg" xmlns:xlink="http://www.w3.org/1999/xlink">
<path d="M35.168,38.482C35.753,39.068 36.703,39.068 37.289,38.482C37.875,37.897 37.875,36.947 37.289,36.361L35.168,38.482ZM33.78,32.852C33.194,32.267 32.245,32.267 31.659,32.852C31.073,33.438 31.073,34.388 31.659,34.974L33.78,32.852ZM2.641,19.001C2.641,10.624 9.431,3.834 17.807,3.834L17.807,0.834C7.774,0.834 -0.359,8.967 -0.359,19.001L2.641,19.001ZM17.807,3.834C26.184,3.834 32.974,10.624 32.974,19.001L35.974,19.001C35.974,8.967 27.84,0.834 17.807,0.834L17.807,3.834ZM32.974,19.001C32.974,27.377 26.184,34.167 17.807,34.167L17.807,37.167C27.84,37.167 35.974,29.034 35.974,19.001L32.974,19.001ZM17.807,34.167C9.431,34.167 2.641,27.377 2.641,19.001L-0.359,19.001C-0.359,29.034 7.774,37.167 17.807,37.167L17.807,34.167ZM37.289,36.361L33.78,32.852L31.659,34.974L35.168,38.482L37.289,36.361Z" fill="#262626"/>
</svg>
