<svg width="28" height="38" viewBox="0 0 28 38" fill="none" xmlns="http://www.w3.org/2000/svg" xmlns:xlink="http://www.w3.org/1999/xlink">
<path d="M-0.041,11.137C-0.637,11.712 -0.655,12.662 -0.08,13.258C0.495,13.855 1.445,13.872 2.041,13.297L-0.041,11.137ZM13,0.652L14.041,-0.428C13.46,-0.988 12.54,-0.988 11.959,-0.428L13,0.652ZM23.959,13.297C24.556,13.872 25.505,13.855 26.08,13.258C26.655,12.662 26.638,11.712 26.041,11.137L23.959,13.297ZM11.5,35.348C11.5,36.176 12.172,36.848 13,36.848C13.829,36.848 14.5,36.176 14.5,35.348L11.5,35.348ZM2.041,13.297L14.041,1.732L11.959,-0.428L-0.041,11.137L2.041,13.297ZM11.959,1.732L23.959,13.297L26.041,11.137L14.041,-0.428L11.959,1.732ZM11.5,0.652L11.5,35.348L14.5,35.348L14.5,0.652L11.5,0.652Z" transform="rotate(-180 13 18)" fill="#262626"/>
</svg>
