<svg width="60" height="56" viewBox="0 0 60 56" fill="none" xmlns="http://www.w3.org/2000/svg" xmlns:xlink="http://www.w3.org/1999/xlink">
<path d="M29.843,9.435L28.309,10.863C28.705,11.289 29.261,11.531 29.843,11.531C30.424,11.531 30.98,11.289 31.377,10.863L29.843,9.435ZM31.98,7.139L30.446,5.711L30.446,5.711L31.98,7.139ZM27.705,7.139L29.239,5.711L29.239,5.711L27.705,7.139ZM6.329,30.105L4.795,31.532L6.329,30.105ZM25.567,50.774L27.101,49.346L27.101,49.346L25.567,50.774ZM34.118,50.774L32.584,49.346L34.118,50.774ZM53.357,30.105L51.823,28.677L51.823,28.677L53.357,30.105ZM53.357,7.139L54.89,5.711L54.89,5.711L53.357,7.139ZM6.329,7.139L4.795,5.711L6.329,7.139ZM31.377,10.863L33.514,8.566L30.446,5.711L28.309,8.008L31.377,10.863ZM26.171,8.566L28.309,10.863L31.377,8.008L29.239,5.711L26.171,8.566ZM4.795,31.532L24.033,52.202L27.101,49.346L7.862,28.677L4.795,31.532ZM35.652,52.202L54.89,31.532L51.823,28.677L32.584,49.346L35.652,52.202ZM51.823,8.566C56.977,14.104 56.977,23.14 51.823,28.677L54.89,31.532C61.542,24.386 61.542,12.857 54.89,5.711L51.823,8.566ZM54.89,5.711C48.159,-1.521 37.178,-1.521 30.446,5.711L33.514,8.566C38.588,3.115 46.748,3.115 51.823,8.566L54.89,5.711ZM7.862,8.566C12.937,3.115 21.097,3.115 26.171,8.566L29.239,5.711C22.507,-1.521 11.526,-1.521 4.795,5.711L7.862,8.566ZM24.033,52.202C27.223,55.629 32.462,55.629 35.652,52.202L32.584,49.346C31.052,50.993 28.634,50.993 27.101,49.346L24.033,52.202ZM4.795,5.711C-1.857,12.857 -1.857,24.386 4.795,31.532L7.862,28.677C2.708,23.14 2.708,14.104 7.862,8.566L4.795,5.711Z" fill="#FFFFFF"/>
</svg>
