<svg width="20" height="20" viewBox="0 0 20 20" fill="none" xmlns="http://www.w3.org/2000/svg" xmlns:xlink="http://www.w3.org/1999/xlink">
<path d="M10.103,-0.063C8.192,-0.063 6.323,0.504 4.733,1.566C3.144,2.628 1.905,4.138 1.174,5.904C0.442,7.67 0.251,9.613 0.624,11.488C0.997,13.363 1.917,15.085 3.269,16.437C4.621,17.788 6.343,18.709 8.218,19.082C10.092,19.455 12.036,19.263 13.802,18.532C15.568,17.8 17.077,16.562 18.139,14.972C19.201,13.383 19.768,11.514 19.768,9.602C19.768,8.333 19.518,7.076 19.033,5.904C18.547,4.731 17.835,3.666 16.937,2.768C16.04,1.871 14.974,1.159 13.802,0.673C12.629,0.187 11.372,-0.063 10.103,-0.063ZM15.313,9.602C15.315,10.633 15.011,11.641 14.439,12.499C13.868,13.357 13.055,14.027 12.103,14.422C11.152,14.818 10.104,14.923 9.093,14.723C8.082,14.523 7.152,14.027 6.423,13.299C5.693,12.571 5.196,11.643 4.994,10.632C4.793,9.621 4.895,8.573 5.289,7.621C5.683,6.668 6.351,5.854 7.208,5.281C8.065,4.708 9.072,4.403 10.103,4.403C11.48,4.405 12.8,4.952 13.775,5.923C14.751,6.894 15.304,8.211 15.313,9.588L15.313,9.602Z" fill="#FFFFFF"/>
</svg>
