<svg width="16" height="14" viewBox="0 0 16 14" fill="none" xmlns="http://www.w3.org/2000/svg" xmlns:xlink="http://www.w3.org/1999/xlink">
<path d="M7.729,-0.922C6.326,-0.922 4.954,-0.506 3.787,0.274C2.621,1.053 1.712,2.161 1.175,3.457C0.638,4.753 0.497,6.18 0.771,7.556C1.045,8.932 1.72,10.196 2.712,11.188C3.705,12.18 4.969,12.856 6.345,13.129C7.721,13.403 9.147,13.263 10.443,12.726C11.739,12.189 12.847,11.28 13.627,10.113C14.406,8.946 14.822,7.575 14.822,6.172C14.822,5.24 14.639,4.318 14.282,3.457C13.926,2.597 13.403,1.815 12.745,1.156C12.086,0.497 11.304,-0.025 10.443,-0.382C9.583,-0.738 8.66,-0.922 7.729,-0.922ZM11.552,6.172C11.554,6.928 11.33,7.668 10.911,8.298C10.492,8.928 9.895,9.419 9.197,9.709C8.498,10 7.729,10.077 6.987,9.93C6.245,9.783 5.563,9.42 5.027,8.885C4.492,8.351 4.127,7.669 3.979,6.928C3.831,6.186 3.906,5.417 4.195,4.717C4.485,4.018 4.975,3.421 5.604,3C6.233,2.58 6.972,2.355 7.729,2.355C8.739,2.357 9.708,2.758 10.424,3.471C11.14,4.184 11.546,5.151 11.552,6.161L11.552,6.172Z" fill="#555555"/>
</svg>
