<svg width="30" height="28" viewBox="0 0 30 28" fill="none" xmlns="http://www.w3.org/2000/svg" xmlns:xlink="http://www.w3.org/1999/xlink">
<path d="M14.751,4.268L13.993,4.967C14.188,5.179 14.463,5.299 14.751,5.299C15.04,5.299 15.315,5.179 15.51,4.967L14.751,4.268ZM15.693,3.245L16.452,3.944L16.452,3.944L15.693,3.245ZM13.81,3.245L14.568,2.547L14.568,2.547L13.81,3.245ZM3.001,14.543L2.217,15.212L3.001,14.543ZM10.874,23.77L10.09,24.439L10.874,23.77ZM18.628,23.77L19.413,24.439L19.413,24.439L18.628,23.77ZM26.502,14.543L27.286,15.212L27.286,15.212L26.502,14.543ZM26.304,3.245L25.545,3.944L26.304,3.245ZM3.199,3.245L3.958,3.944L3.199,3.245ZM15.51,4.967L16.452,3.944L14.935,2.547L13.993,3.57L15.51,4.967ZM13.051,3.944L13.993,4.967L15.51,3.57L14.568,2.547L13.051,3.944ZM2.217,15.212L10.09,24.439L11.659,23.101L3.785,13.873L2.217,15.212ZM19.413,24.439L27.286,15.212L25.717,13.873L17.844,23.101L19.413,24.439ZM25.545,3.944C28.041,6.654 28.121,11.056 25.717,13.873L27.286,15.212C30.364,11.605 30.268,6.028 27.062,2.547L25.545,3.944ZM27.062,2.547C23.724,-1.078 18.273,-1.078 14.935,2.547L16.452,3.944C18.973,1.206 23.024,1.206 25.545,3.944L27.062,2.547ZM3.958,3.944C6.479,1.206 10.53,1.206 13.051,3.944L14.568,2.547C11.23,-1.078 5.779,-1.078 2.441,2.547L3.958,3.944ZM10.09,24.439C12.593,27.373 16.91,27.373 19.413,24.439L17.844,23.101C16.164,25.07 13.339,25.07 11.659,23.101L10.09,24.439ZM2.441,2.547C-0.766,6.028 -0.861,11.605 2.217,15.212L3.785,13.873C1.382,11.056 1.462,6.654 3.958,3.944L2.441,2.547Z" fill="#28303F"/>
</svg>
