<svg width="20" height="12" viewBox="0 0 20 12" fill="none" xmlns="http://www.w3.org/2000/svg" xmlns:xlink="http://www.w3.org/1999/xlink">
<path d="M2.604,0.762C1.957,0.245 1.013,0.35 0.496,0.997C-0.022,1.643 0.083,2.587 0.73,3.105L2.604,0.762ZM10,8.6L9.063,9.772C9.611,10.21 10.39,10.21 10.937,9.772L10,8.6ZM19.271,3.105C19.918,2.587 20.022,1.643 19.505,0.997C18.987,0.35 18.044,0.245 17.397,0.762L19.271,3.105ZM0.73,3.105L9.063,9.772L10.937,7.429L2.604,0.762L0.73,3.105ZM10.937,9.772L19.271,3.105L17.397,0.762L9.063,7.429L10.937,9.772Z" transform="rotate(180 10 5.267)" fill="#28303F"/>
</svg>
