<svg width="16" height="10" viewBox="0 0 16 10" fill="none" xmlns="http://www.w3.org/2000/svg" xmlns:xlink="http://www.w3.org/1999/xlink">
<path d="M2.29,-0.041C1.9,-0.432 1.266,-0.432 0.876,-0.041C0.485,0.349 0.485,0.983 0.876,1.373L2.29,-0.041ZM8.25,7.333L7.543,8.04C7.73,8.227 7.984,8.333 8.25,8.333C8.515,8.333 8.769,8.227 8.957,8.04L8.25,7.333ZM15.623,1.373C16.014,0.983 16.014,0.349 15.623,-0.041C15.233,-0.432 14.6,-0.432 14.209,-0.041L15.623,1.373ZM0.876,1.373L7.543,8.04L8.957,6.626L2.29,-0.041L0.876,1.373ZM8.957,8.04L15.623,1.373L14.209,-0.041L7.543,6.626L8.957,8.04Z" transform="rotate(0 8.25 3.999)" fill="#FFFFFF"/>
</svg>
