<svg width="30" height="28" viewBox="0 0 30 28" fill="none" xmlns="http://www.w3.org/2000/svg" xmlns:xlink="http://www.w3.org/1999/xlink">
<path d="M14.751,4.197L13.993,4.895C14.188,5.108 14.463,5.228 14.751,5.228C15.04,5.228 15.315,5.108 15.51,4.895L14.751,4.197ZM15.693,3.174L16.452,3.873L16.452,3.873L15.693,3.174ZM13.81,3.174L14.568,2.476L14.568,2.476L13.81,3.174ZM3.001,14.471L2.217,15.141L3.001,14.471ZM10.874,23.699L10.09,24.368L10.874,23.699ZM18.628,23.699L19.413,24.368L19.413,24.368L18.628,23.699ZM26.502,14.471L27.286,15.141L27.286,15.141L26.502,14.471ZM26.304,3.174L25.545,3.873L26.304,3.174ZM3.199,3.174L3.958,3.873L3.199,3.174ZM15.51,4.895L16.452,3.873L14.935,2.476L13.993,3.498L15.51,4.895ZM13.051,3.873L13.993,4.895L15.51,3.498L14.568,2.476L13.051,3.873ZM2.217,15.141L10.09,24.368L11.659,23.029L3.785,13.802L2.217,15.141ZM19.413,24.368L27.286,15.141L25.717,13.802L17.844,23.029L19.413,24.368ZM25.545,3.873C28.041,6.583 28.121,10.985 25.717,13.802L27.286,15.141C30.364,11.534 30.268,5.957 27.062,2.476L25.545,3.873ZM27.062,2.476C23.724,-1.149 18.273,-1.149 14.935,2.476L16.452,3.873C18.973,1.135 23.024,1.135 25.545,3.873L27.062,2.476ZM3.958,3.873C6.479,1.135 10.53,1.135 13.051,3.873L14.568,2.476C11.23,-1.149 5.779,-1.149 2.441,2.476L3.958,3.873ZM10.09,24.368C12.593,27.302 16.91,27.302 19.413,24.368L17.844,23.029C16.164,24.998 13.339,24.998 11.659,23.029L10.09,24.368ZM2.441,2.476C-0.766,5.957 -0.861,11.534 2.217,15.141L3.785,13.802C1.382,10.985 1.462,6.583 3.958,3.873L2.441,2.476Z" fill="#28303F"/>
</svg>
