<svg width="80" height="68" viewBox="0 0 80 68" fill="none" xmlns="http://www.w3.org/2000/svg" xmlns:xlink="http://www.w3.org/1999/xlink">
<path d="M79.664,10.763L73.21,2.341C72.503,1.425 71.595,0.682 70.557,0.169C69.519,-0.343 68.378,-0.612 67.22,-0.615L14.092,-0.615C13.047,-0.614 12.013,-0.396 11.056,0.025C10.1,0.446 9.24,1.06 8.533,1.829L0.392,10.695L0.393,10.696C0.226,10.877 0.133,11.115 0.133,11.361L0.133,13.658C0.134,14.642 0.33,15.616 0.71,16.524C1.089,17.432 1.645,18.256 2.344,18.949C3.548,20.173 5.149,20.928 6.859,21.079L6.859,59.429C6.852,60.416 7.04,61.395 7.412,62.309C7.784,63.223 8.333,64.055 9.028,64.757C9.722,65.458 10.548,66.015 11.458,66.397C12.369,66.778 13.345,66.976 14.332,66.979L65.668,66.979C66.655,66.976 67.631,66.778 68.542,66.397C69.452,66.015 70.278,65.458 70.972,64.757C71.667,64.055 72.216,63.223 72.588,62.309C72.96,61.395 73.148,60.416 73.141,59.429L73.141,21.079C74.851,20.928 76.452,20.173 77.656,18.949C78.355,18.256 78.91,17.432 79.29,16.524C79.67,15.616 79.866,14.642 79.867,13.658L79.867,11.361C79.867,11.145 79.795,10.934 79.663,10.763L79.664,10.763ZM67.22,1.354C68.076,1.356 68.92,1.554 69.687,1.933C70.454,2.312 71.125,2.861 71.648,3.539L76.888,10.377L66.454,10.377L60.526,1.354L67.22,1.354ZM53.231,12.346L64.937,12.346L64.937,15.14C64.935,17.161 64.131,19.099 62.701,20.529C61.272,21.958 59.334,22.763 57.312,22.765C56.95,22.764 56.588,22.736 56.229,22.683C56.232,22.635 56.235,22.587 56.238,22.539C56.412,18.9 55.352,15.308 53.231,12.346ZM58.169,1.354L64.097,10.377L51.575,10.377C50.593,9.38 49.488,8.513 48.285,7.797L45.788,1.354L58.169,1.354ZM36.322,1.354L43.676,1.354L45.69,6.551C42.02,5.178 37.977,5.178 34.308,6.553L36.322,1.354ZM34.211,1.354L31.712,7.804C30.515,8.519 29.413,9.383 28.435,10.377L16.112,10.377L23.256,1.354L34.211,1.354ZM23.772,22.7C23.456,22.743 23.137,22.765 22.817,22.765C21.818,22.763 20.829,22.564 19.907,22.18C18.984,21.796 18.147,21.234 17.442,20.525C16.737,19.817 16.178,18.977 15.798,18.053C15.418,17.129 15.224,16.139 15.227,15.14L15.227,12.346L26.777,12.346C24.932,14.914 23.882,17.968 23.758,21.128C23.737,21.658 23.743,22.182 23.772,22.7ZM9.983,3.16C10.506,2.591 11.141,2.137 11.848,1.827C12.555,1.516 13.319,1.355 14.092,1.354L20.745,1.354L13.602,10.377L3.357,10.377L9.983,3.16ZM2.102,13.658L2.102,12.346L13.094,12.346L13.094,13.658C13.102,14.382 12.965,15.1 12.691,15.771C12.418,16.441 12.013,17.05 11.501,17.562C10.989,18.074 10.38,18.478 9.71,18.752C9.04,19.025 8.322,19.162 7.598,19.154C6.874,19.162 6.156,19.025 5.485,18.752C4.815,18.478 4.206,18.074 3.694,17.562C3.182,17.05 2.777,16.441 2.504,15.771C2.231,15.1 2.094,14.382 2.102,13.658ZM50.172,65.01L29.664,65.01L29.664,48.604L50.172,48.604L50.172,65.01ZM50.172,46.635L29.664,46.635L29.664,42.533L50.172,42.533L50.172,46.635ZM71.172,59.429C71.179,60.158 71.043,60.881 70.77,61.556C70.497,62.232 70.093,62.846 69.581,63.365C69.069,63.884 68.46,64.296 67.789,64.578C67.117,64.861 66.396,65.007 65.668,65.01L52.141,65.01L52.141,42.203C52.141,41.298 51.487,40.564 50.582,40.564L29.418,40.564C28.513,40.564 27.695,41.298 27.695,42.203L27.695,65.01L14.332,65.01C13.604,65.007 12.883,64.861 12.211,64.578C11.54,64.296 10.931,63.884 10.419,63.365C9.907,62.846 9.503,62.232 9.23,61.556C8.957,60.881 8.821,60.158 8.828,59.429L8.828,21.035C10.377,20.781 11.808,20.052 12.925,18.949C13.194,18.673 13.44,18.377 13.662,18.063C14.282,19.998 15.499,21.686 17.14,22.885C18.78,24.083 20.758,24.731 22.79,24.734C23.195,24.733 23.6,24.707 24.002,24.654C24.246,26.016 24.664,27.341 25.246,28.596C25.358,28.829 25.557,29.008 25.8,29.096C26.044,29.183 26.311,29.171 26.546,29.063C26.781,28.955 26.963,28.758 27.054,28.516C27.146,28.274 27.138,28.006 27.033,27.77C26.132,25.82 25.682,23.691 25.717,21.543C25.753,19.395 26.272,17.282 27.237,15.362C28.202,13.442 29.588,11.765 31.291,10.455C32.994,9.145 34.97,8.236 37.073,7.795C39.176,7.355 41.351,7.395 43.437,7.911C45.522,8.428 47.464,9.409 49.118,10.78C50.772,12.151 52.096,13.878 52.99,15.832C53.885,17.785 54.327,19.915 54.284,22.063C54.135,29.607 48.047,35.792 40.507,36.054C36.955,36.183 33.484,34.978 30.776,32.676C30.618,32.541 30.422,32.459 30.214,32.442C30.007,32.425 29.8,32.474 29.623,32.582C29.489,32.663 29.377,32.776 29.296,32.909C29.215,33.042 29.166,33.193 29.154,33.349C29.143,33.505 29.168,33.661 29.229,33.805C29.289,33.949 29.383,34.077 29.502,34.177C32.633,36.839 36.658,38.21 40.763,38.014C48.388,37.664 54.687,31.987 56.002,24.642C58.224,24.952 60.484,24.471 62.389,23.285C64.293,22.098 65.72,20.281 66.421,18.149C66.619,18.431 66.838,18.698 67.076,18.948C68.192,20.051 69.623,20.78 71.172,21.035L71.172,59.429ZM77.898,13.658C77.898,15.116 77.319,16.514 76.289,17.545C75.258,18.575 73.86,19.154 72.402,19.154C70.945,19.154 69.547,18.575 68.516,17.545C67.485,16.514 66.906,15.116 66.906,13.658L66.906,12.346L77.898,12.346L77.898,13.658Z" fill="#0073E6"/>
</svg>
