<svg width="24" height="14" viewBox="0 0 24 14" fill="none" xmlns="http://www.w3.org/2000/svg" xmlns:xlink="http://www.w3.org/1999/xlink">
<path d="M2.061,-0.061C1.475,-0.646 0.525,-0.646 -0.061,-0.061C-0.646,0.525 -0.646,1.475 -0.061,2.061L2.061,-0.061ZM11,11L9.939,12.061C10.525,12.646 11.475,12.646 12.061,12.061L11,11ZM22.061,2.061C22.646,1.475 22.646,0.525 22.061,-0.061C21.475,-0.646 20.525,-0.646 19.939,-0.061L22.061,2.061ZM-0.061,2.061L9.939,12.061L12.061,9.939L2.061,-0.061L-0.061,2.061ZM12.061,12.061L22.061,2.061L19.939,-0.061L9.939,9.939L12.061,12.061Z" transform="rotate(0 11 6)" fill="#262626"/>
</svg>
