<svg width="40" height="44" viewBox="0 0 40 44" fill="none" xmlns="http://www.w3.org/2000/svg" xmlns:xlink="http://www.w3.org/1999/xlink">
<path d="M0.497,9.286C-2.123,5.403 0.716,0.256 5.364,0.256L32.639,0.256C37.286,0.256 40.126,5.403 37.506,9.286C37.489,9.311 37.472,9.335 37.454,9.358L26.039,24.285C25.267,25.444 24.856,26.8 24.856,28.185L24.856,35.296C24.856,36.27 24.465,37.201 23.773,37.884L19.418,42.188C17.125,44.454 13.146,42.886 13.146,39.6L13.146,28.185C13.146,26.8 12.736,25.444 11.964,24.285L0.549,9.358C0.531,9.335 0.513,9.311 0.497,9.286ZM2.962,7.575L14.375,22.499C14.393,22.523 14.41,22.547 14.427,22.572C15.547,24.233 16.146,26.186 16.146,28.185L16.146,39.6C16.146,40.148 16.859,40.5 17.309,40.054L21.664,35.75C21.789,35.627 21.856,35.463 21.856,35.296L21.856,28.185C21.856,26.186 22.455,24.233 23.576,22.572C23.592,22.547 23.61,22.523 23.628,22.499L35.041,7.575C36.242,5.741 34.934,3.256 32.639,3.256L5.364,3.256C3.068,3.256 1.76,5.741 2.962,7.575Z" clip-rule="evenodd" fill-rule="evenodd" fill="#FF7A00"/>
</svg>
