<svg width="40" height="40" viewBox="0 0 40 40" fill="none" xmlns="http://www.w3.org/2000/svg" xmlns:xlink="http://www.w3.org/1999/xlink">
<path d="M36.168,38.605C36.753,39.191 37.703,39.191 38.289,38.605C38.875,38.02 38.875,37.07 38.289,36.484L36.168,38.605ZM34.78,32.975C34.194,32.39 33.245,32.39 32.659,32.975C32.073,33.561 32.073,34.511 32.659,35.097L34.78,32.975ZM3.641,19.124C3.641,10.747 10.431,3.957 18.807,3.957L18.807,0.957C8.774,0.957 0.641,9.091 0.641,19.124L3.641,19.124ZM18.807,3.957C27.184,3.957 33.974,10.747 33.974,19.124L36.974,19.124C36.974,9.091 28.84,0.957 18.807,0.957L18.807,3.957ZM33.974,19.124C33.974,27.5 27.184,34.29 18.807,34.29L18.807,37.29C28.84,37.29 36.974,29.157 36.974,19.124L33.974,19.124ZM18.807,34.29C10.431,34.29 3.641,27.5 3.641,19.124L0.641,19.124C0.641,29.157 8.774,37.29 18.807,37.29L18.807,34.29ZM38.289,36.484L34.78,32.975L32.659,35.097L36.168,38.605L38.289,36.484Z" fill="#262626"/>
</svg>
