<svg width="44" height="40" viewBox="0 0 44 40" fill="none" xmlns="http://www.w3.org/2000/svg" xmlns:xlink="http://www.w3.org/1999/xlink">
<path d="M22,6.226L20.897,7.242C21.181,7.551 21.581,7.726 22,7.726C22.419,7.726 22.819,7.551 23.103,7.242L22,6.226ZM23.37,4.738L24.473,5.754L24.473,5.754L23.37,4.738ZM20.63,4.738L21.733,3.722L21.733,3.722L20.63,4.738ZM4.908,21.171L3.767,22.145L4.908,21.171ZM16.361,34.593L15.219,35.567L16.361,34.593ZM27.639,34.593L28.781,35.567L28.781,35.567L27.639,34.593ZM39.092,21.171L40.233,22.145L40.233,22.145L39.092,21.171ZM38.804,4.738L37.7,5.754L38.804,4.738ZM5.196,4.738L6.3,5.755L6.3,5.755L5.196,4.738ZM23.103,7.242L24.473,5.754L22.267,3.722L20.897,5.21L23.103,7.242ZM19.527,5.755L20.897,7.242L23.103,5.21L21.733,3.722L19.527,5.755ZM3.767,22.145L15.219,35.567L17.502,33.62L6.049,20.198L3.767,22.145ZM28.781,35.567L40.233,22.145L37.951,20.197L26.498,33.62L28.781,35.567ZM37.7,5.754C41.331,9.697 41.447,16.1 37.951,20.197L40.233,22.145C44.71,16.898 44.571,8.787 39.907,3.722L37.7,5.754ZM39.907,3.722C35.051,-1.551 27.123,-1.551 22.267,3.722L24.473,5.754C28.141,1.772 34.033,1.772 37.7,5.754L39.907,3.722ZM6.3,5.755C9.967,1.772 15.859,1.772 19.527,5.755L21.733,3.722C16.877,-1.551 8.949,-1.551 4.093,3.722L6.3,5.755ZM15.219,35.567C18.861,39.834 25.139,39.834 28.781,35.567L26.498,33.62C24.055,36.484 19.945,36.484 17.502,33.62L15.219,35.567ZM4.093,3.722C-0.571,8.787 -0.71,16.899 3.767,22.145L6.049,20.198C2.553,16.1 2.669,9.697 6.3,5.755L4.093,3.722Z" fill="#28303F"/>
</svg>
