<svg width="20" height="20" viewBox="0 0 20 20" fill="none" xmlns="http://www.w3.org/2000/svg" xmlns:xlink="http://www.w3.org/1999/xlink">
<path d="M10.103,-0.063C8.191,-0.063 6.322,0.504 4.733,1.566C3.144,2.628 1.905,4.138 1.173,5.904C0.442,7.67 0.25,9.613 0.623,11.488C0.996,13.363 1.917,15.085 3.268,16.437C4.62,17.789 6.342,18.709 8.217,19.082C10.092,19.455 12.035,19.264 13.801,18.532C15.567,17.8 17.077,16.562 18.139,14.972C19.201,13.383 19.768,11.514 19.768,9.603C19.768,8.333 19.518,7.077 19.032,5.904C18.546,4.731 17.834,3.666 16.937,2.768C16.039,1.871 14.974,1.159 13.801,0.673C12.629,0.187 11.372,-0.063 10.103,-0.063ZM15.312,9.603C15.314,10.633 15.01,11.642 14.439,12.499C13.868,13.357 13.055,14.027 12.103,14.422C11.151,14.818 10.103,14.923 9.092,14.723C8.081,14.523 7.152,14.028 6.422,13.299C5.693,12.571 5.196,11.643 4.994,10.632C4.792,9.621 4.895,8.573 5.289,7.621C5.683,6.668 6.35,5.854 7.207,5.281C8.064,4.709 9.072,4.403 10.103,4.403C11.479,4.405 12.799,4.952 13.775,5.923C14.751,6.894 15.303,8.211 15.312,9.588L15.312,9.603Z" fill="#555555"/>
</svg>
