<svg width="30" height="28" viewBox="0 0 30 28" fill="none" xmlns="http://www.w3.org/2000/svg" xmlns:xlink="http://www.w3.org/1999/xlink">
<path d="M14.751,4.22L13.993,4.919C14.188,5.131 14.463,5.252 14.751,5.252C15.04,5.252 15.315,5.131 15.51,4.919L14.751,4.22ZM15.693,3.198L16.452,3.896L16.452,3.896L15.693,3.198ZM13.81,3.198L14.568,2.499L14.568,2.499L13.81,3.198ZM3.001,14.495L2.217,15.164L3.001,14.495ZM10.874,23.722L10.09,24.392L10.874,23.722ZM18.628,23.722L19.413,24.392L19.413,24.392L18.628,23.722ZM26.502,14.495L27.286,15.164L27.286,15.164L26.502,14.495ZM26.304,3.198L25.545,3.896L26.304,3.198ZM3.199,3.198L3.958,3.896L3.199,3.198ZM15.51,4.919L16.452,3.896L14.935,2.499L13.993,3.522L15.51,4.919ZM13.051,3.896L13.993,4.919L15.51,3.522L14.568,2.499L13.051,3.896ZM2.217,15.164L10.09,24.392L11.659,23.053L3.785,13.825L2.217,15.164ZM19.413,24.392L27.286,15.164L25.717,13.825L17.844,23.053L19.413,24.392ZM25.545,3.896C28.041,6.606 28.121,11.009 25.717,13.825L27.286,15.164C30.364,11.557 30.268,5.981 27.062,2.499L25.545,3.896ZM27.062,2.499C23.724,-1.126 18.273,-1.126 14.935,2.499L16.452,3.896C18.973,1.158 23.024,1.158 25.545,3.896L27.062,2.499ZM3.958,3.896C6.479,1.158 10.53,1.158 13.051,3.896L14.568,2.499C11.23,-1.126 5.779,-1.126 2.441,2.499L3.958,3.896ZM10.09,24.392C12.593,27.325 16.91,27.325 19.413,24.392L17.844,23.053C16.164,25.022 13.339,25.022 11.659,23.053L10.09,24.392ZM2.441,2.499C-0.766,5.981 -0.861,11.557 2.217,15.164L3.785,13.825C1.382,11.009 1.462,6.607 3.958,3.896L2.441,2.499Z" fill="#28303F"/>
</svg>
