<svg width="34" height="46" viewBox="0 0 34 46" fill="none" xmlns="http://www.w3.org/2000/svg" xmlns:xlink="http://www.w3.org/1999/xlink">
<path d="M16.563,0.813C12.006,0.819 7.637,2.631 4.415,5.854C1.193,9.076 -0.62,13.444 -0.625,18.001C-0.63,21.725 0.586,25.347 2.838,28.313C2.838,28.313 3.306,28.931 3.383,29.02L16.563,44.563L29.748,29.012C29.817,28.929 30.288,28.313 30.288,28.313L30.289,28.309C32.54,25.344 33.755,21.723 33.75,18.001C33.745,13.444 31.932,9.076 28.71,5.854C25.488,2.631 21.119,0.819 16.563,0.813L16.563,0.813ZM16.563,24.251C15.326,24.251 14.118,23.884 13.09,23.198C12.062,22.511 11.261,21.535 10.788,20.393C10.315,19.251 10.191,17.994 10.433,16.782C10.674,15.569 11.269,14.456 12.143,13.582C13.017,12.707 14.131,12.112 15.343,11.871C16.556,11.63 17.812,11.754 18.954,12.227C20.096,12.7 21.072,13.501 21.759,14.529C22.446,15.556 22.813,16.765 22.813,18.001C22.81,19.658 22.151,21.246 20.98,22.418C19.808,23.59 18.219,24.249 16.563,24.251L16.563,24.251Z" fill="#2747C5"/>
</svg>
