<svg width="28" height="28" viewBox="0 0 28 28" fill="none" xmlns="http://www.w3.org/2000/svg" xmlns:xlink="http://www.w3.org/1999/xlink">
<path d="M13.355,-0.514C10.608,-0.514 7.923,0.301 5.639,1.827C3.355,3.353 1.575,5.522 0.524,8.06C-0.527,10.597 -0.802,13.39 -0.266,16.084C0.27,18.778 1.593,21.253 3.535,23.195C5.477,25.137 7.952,26.46 10.646,26.996C13.34,27.532 16.132,27.257 18.67,26.206C21.208,25.154 23.377,23.374 24.903,21.09C26.429,18.806 27.243,16.121 27.243,13.374C27.243,11.551 26.884,9.745 26.186,8.06C25.488,6.375 24.465,4.844 23.176,3.554C21.886,2.264 20.355,1.241 18.67,0.544C16.985,-0.154 15.179,-0.514 13.355,-0.514ZM20.841,13.374C20.844,14.856 20.407,16.304 19.586,17.537C18.765,18.77 17.597,19.732 16.229,20.3C14.862,20.869 13.356,21.019 11.903,20.732C10.45,20.445 9.115,19.733 8.067,18.686C7.019,17.64 6.304,16.306 6.014,14.854C5.724,13.401 5.872,11.896 6.438,10.527C7.004,9.158 7.964,7.988 9.195,7.165C10.426,6.342 11.874,5.903 13.355,5.903C15.333,5.906 17.23,6.691 18.632,8.087C20.034,9.482 20.828,11.375 20.841,13.354L20.841,13.374Z" fill="#555555"/>
</svg>
