<svg width="16" height="10" viewBox="0 0 16 10" fill="none" xmlns="http://www.w3.org/2000/svg" xmlns:xlink="http://www.w3.org/1999/xlink">
<path d="M2.29,-0.04C1.9,-0.431 1.266,-0.431 0.876,-0.04C0.485,0.35 0.485,0.984 0.876,1.374L2.29,-0.04ZM8.25,7.334L7.543,8.041C7.73,8.228 7.984,8.334 8.25,8.334C8.515,8.334 8.769,8.228 8.957,8.041L8.25,7.334ZM15.623,1.374C16.014,0.984 16.014,0.35 15.623,-0.04C15.233,-0.431 14.6,-0.431 14.209,-0.04L15.623,1.374ZM0.876,1.374L7.543,8.041L8.957,6.627L2.29,-0.04L0.876,1.374ZM8.957,8.041L15.623,1.374L14.209,-0.04L7.543,6.627L8.957,8.041Z" transform="rotate(0 8.25 4)" fill="#FFFFFF"/>
</svg>
