<svg width="16" height="10" viewBox="0 0 16 10" fill="none" xmlns="http://www.w3.org/2000/svg" xmlns:xlink="http://www.w3.org/1999/xlink">
<path d="M1.04,-0.04C0.65,-0.431 0.016,-0.431 -0.374,-0.04C-0.765,0.35 -0.765,0.984 -0.374,1.374L1.04,-0.04ZM7,7.334L6.293,8.041C6.48,8.228 6.734,8.334 7,8.334C7.265,8.334 7.519,8.228 7.707,8.041L7,7.334ZM14.373,1.374C14.764,0.984 14.764,0.35 14.373,-0.04C13.983,-0.431 13.35,-0.431 12.959,-0.04L14.373,1.374ZM-0.374,1.374L6.293,8.041L7.707,6.627L1.04,-0.04L-0.374,1.374ZM7.707,8.041L14.373,1.374L12.959,-0.04L6.293,6.627L7.707,8.041Z" transform="rotate(0 7 4)" fill="#FFFFFF"/>
</svg>
