<svg width="36" height="36" viewBox="0 0 36 36" fill="none" xmlns="http://www.w3.org/2000/svg" xmlns:xlink="http://www.w3.org/1999/xlink">
<path d="M32.5,27.268C32.5,29.753 30.485,31.768 28,31.768L28,34.768C32.142,34.768 35.5,31.41 35.5,27.268L32.5,27.268ZM28,31.768C25.515,31.768 23.5,29.753 23.5,27.268L20.5,27.268C20.5,31.41 23.858,34.768 28,34.768L28,31.768ZM23.5,27.268C23.5,24.782 25.515,22.768 28,22.768L28,19.768C23.858,19.768 20.5,23.125 20.5,27.268L23.5,27.268ZM28,22.768C30.485,22.768 32.5,24.782 32.5,27.268L35.5,27.268C35.5,23.125 32.142,19.768 28,19.768L28,22.768ZM26,2.768L30,2.768L30,-0.232L26,-0.232L26,2.768ZM32.5,5.268L32.5,9.268L35.5,9.268L35.5,5.268L32.5,5.268ZM30,11.768L26,11.768L26,14.768L30,14.768L30,11.768ZM23.5,9.268L23.5,5.268L20.5,5.268L20.5,9.268L23.5,9.268ZM26,11.768C24.619,11.768 23.5,10.648 23.5,9.268L20.5,9.268C20.5,12.305 22.962,14.768 26,14.768L26,11.768ZM32.5,9.268C32.5,10.648 31.381,11.768 30,11.768L30,14.768C33.038,14.768 35.5,12.305 35.5,9.268L32.5,9.268ZM30,2.768C31.381,2.768 32.5,3.887 32.5,5.268L35.5,5.268C35.5,2.23 33.038,-0.232 30,-0.232L30,2.768ZM26,-0.232C22.962,-0.232 20.5,2.23 20.5,5.268L23.5,5.268C23.5,3.887 24.619,2.768 26,2.768L26,-0.232ZM6,2.768L10,2.768L10,-0.232L6,-0.232L6,2.768ZM12.5,5.268L12.5,9.268L15.5,9.268L15.5,5.268L12.5,5.268ZM10,11.768L6,11.768L6,14.768L10,14.768L10,11.768ZM3.5,9.268L3.5,5.268L0.5,5.268L0.5,9.268L3.5,9.268ZM6,11.768C4.619,11.768 3.5,10.648 3.5,9.268L0.5,9.268C0.5,12.305 2.962,14.768 6,14.768L6,11.768ZM12.5,9.268C12.5,10.648 11.381,11.768 10,11.768L10,14.768C13.038,14.768 15.5,12.305 15.5,9.268L12.5,9.268ZM10,2.768C11.381,2.768 12.5,3.887 12.5,5.268L15.5,5.268C15.5,2.23 13.038,-0.232 10,-0.232L10,2.768ZM6,-0.232C2.962,-0.232 0.5,2.23 0.5,5.268L3.5,5.268C3.5,3.887 4.619,2.768 6,2.768L6,-0.232ZM6,22.768L10,22.768L10,19.768L6,19.768L6,22.768ZM12.5,25.268L12.5,29.268L15.5,29.268L15.5,25.268L12.5,25.268ZM10,31.768L6,31.768L6,34.768L10,34.768L10,31.768ZM3.5,29.268L3.5,25.268L0.5,25.268L0.5,29.268L3.5,29.268ZM6,31.768C4.619,31.768 3.5,30.648 3.5,29.268L0.5,29.268C0.5,32.305 2.962,34.768 6,34.768L6,31.768ZM12.5,29.268C12.5,30.648 11.381,31.768 10,31.768L10,34.768C13.038,34.768 15.5,32.305 15.5,29.268L12.5,29.268ZM10,22.768C11.381,22.768 12.5,23.887 12.5,25.268L15.5,25.268C15.5,22.23 13.038,19.768 10,19.768L10,22.768ZM6,19.768C2.962,19.768 0.5,22.23 0.5,25.268L3.5,25.268C3.5,23.887 4.619,22.768 6,22.768L6,19.768Z" fill="#434343"/>
</svg>
