<svg width="80" height="84" viewBox="0 0 80 84" fill="none" xmlns="http://www.w3.org/2000/svg" xmlns:xlink="http://www.w3.org/1999/xlink">
<path d="M79.119,31.444L71.348,22.977C70.775,22.355 70.022,21.926 69.195,21.753C63.965,8.673 50.745,-0.068 36.078,-0.068C16.532,-0.068 0.631,15.154 0.631,33.865C0.631,39.87 2.486,46.165 6.144,52.575C9.043,57.655 13.078,62.822 18.137,67.933C26.722,76.607 35.435,82.213 35.522,82.269C35.688,82.375 35.881,82.432 36.078,82.432C36.275,82.432 36.467,82.375 36.633,82.269C36.798,82.164 52.93,71.754 63.118,57.137C64.003,57.649 64.998,57.938 66.019,57.981C67.041,58.023 68.057,57.817 68.981,57.381C69.905,56.944 70.71,56.29 71.325,55.474C71.941,54.659 72.35,53.706 72.517,52.697L75.342,52.697C75.871,52.698 76.396,52.595 76.885,52.393C77.374,52.191 77.819,51.894 78.193,51.52C78.567,51.146 78.864,50.701 79.066,50.212C79.268,49.722 79.371,49.198 79.37,48.668L79.37,32.141C79.373,31.884 79.28,31.635 79.108,31.444L79.119,31.444ZM69.828,24.298L76.013,31.041L66.651,31.041L66.651,23.65L68.365,23.65C68.64,23.651 68.913,23.71 69.164,23.821C69.416,23.933 69.642,24.095 69.828,24.298ZM36.077,80.164C30.159,76.121 24.634,71.53 19.574,66.454C14.649,61.474 10.73,56.454 7.925,51.535C4.453,45.447 2.693,39.502 2.693,33.865C2.693,16.292 17.67,1.955 36.078,1.955C49.583,1.955 61.779,9.9 66.922,21.588L58.717,21.588C54.04,13.682 45.425,8.574 36.078,8.574C26.12,8.574 17.444,14.187 13.026,22.396C12.956,22.527 12.914,22.671 12.904,22.82C12.894,22.968 12.916,23.117 12.968,23.256C13.02,23.396 13.102,23.522 13.207,23.627C13.312,23.733 13.438,23.814 13.578,23.866L13.58,23.872C13.818,23.958 14.079,23.957 14.316,23.869C14.553,23.781 14.752,23.612 14.877,23.392C15.658,21.942 16.464,20.584 17.667,19.33L17.667,36.885L12.075,36.885C12.015,36.197 11.982,35.484 11.982,34.773C11.982,32.72 12.245,30.675 12.765,28.689C12.834,28.431 12.8,28.155 12.67,27.921C12.54,27.688 12.323,27.514 12.067,27.437L12.052,27.432C11.921,27.392 11.783,27.38 11.648,27.394C11.512,27.409 11.38,27.451 11.261,27.518C11.141,27.584 11.037,27.674 10.953,27.781C10.869,27.889 10.807,28.013 10.771,28.145C10.205,30.308 9.918,32.535 9.92,34.771C9.92,49.194 21.654,60.919 36.078,60.919C43.272,60.919 50.176,58.025 55.107,52.697L60.066,52.697C60.251,53.849 60.757,54.926 61.526,55.804C52.64,68.63 38.985,78.208 36.077,80.164ZM64.589,23.65L64.589,31.041L63.042,31.041L63.042,23.65L64.589,23.65ZM33.48,52.697L52.156,52.697C49.052,55.485 45.276,57.418 41.2,58.306C37.124,59.194 32.886,59.006 28.904,57.762C30.068,57.437 31.115,56.788 31.925,55.892C32.735,54.996 33.274,53.888 33.48,52.697ZM27.255,55.933C26.415,55.934 25.593,55.685 24.895,55.218C24.196,54.751 23.651,54.088 23.33,53.311C23.008,52.535 22.924,51.681 23.088,50.857C23.252,50.033 23.656,49.276 24.25,48.682C24.844,48.087 25.601,47.683 26.425,47.519C27.249,47.355 28.104,47.439 28.88,47.76C29.656,48.082 30.32,48.626 30.787,49.325C31.253,50.024 31.503,50.845 31.503,51.685C31.501,52.811 31.053,53.891 30.257,54.688C29.461,55.484 28.381,55.932 27.255,55.933ZM33.48,50.635C32.986,47.713 30.384,45.355 27.255,45.355C24.127,45.355 21.524,47.713 21.03,50.635L17.974,50.635C16.288,48.751 14.923,46.602 13.935,44.275L53.417,44.275L53.417,50.635L33.48,50.635ZM21.309,53.777C20.865,53.432 20.434,53.041 20.016,52.697L21.03,52.697C21.094,53.064 21.188,53.425 21.309,53.777ZM13.158,42.213C12.817,41.143 12.545,40.052 12.344,38.947L53.417,38.947L53.417,42.213L13.158,42.213ZM19.729,36.885L19.729,17.085C20.356,16.478 21.023,15.915 21.728,15.4L27.635,15.4L27.635,36.885L19.729,36.885ZM29.698,36.885L29.698,15.4L38.292,15.4L38.292,36.885L29.698,36.885ZM40.354,36.885L40.354,15.4L44.811,15.4C45.909,15.408 46.96,15.848 47.734,16.626C48.509,17.404 48.945,18.457 48.948,19.555L48.948,36.885L40.354,36.885ZM51.01,36.885L51.01,19.555C51.007,17.91 50.353,16.333 49.192,15.169C48.031,14.004 46.456,13.346 44.811,13.338L25.021,13.338C28.435,11.558 32.227,10.626 36.078,10.622C44.281,10.622 51.874,14.885 56.299,21.588L54.447,21.588C53.878,21.588 53.417,22.128 53.417,22.697L53.417,36.885L51.01,36.885ZM55.479,23.65L60.979,23.65L60.979,31.041L55.479,31.041L55.479,23.65ZM66.291,55.933C65.451,55.933 64.63,55.684 63.931,55.217C63.233,54.751 62.688,54.087 62.367,53.311C62.045,52.535 61.961,51.68 62.125,50.856C62.289,50.032 62.693,49.275 63.288,48.681C63.882,48.087 64.639,47.683 65.463,47.519C66.287,47.355 67.141,47.439 67.917,47.76C68.694,48.082 69.357,48.626 69.824,49.325C70.291,50.024 70.54,50.845 70.54,51.685C70.538,52.812 70.09,53.891 69.294,54.688C68.498,55.484 67.418,55.932 66.291,55.933ZM77.307,39.807L75.073,39.807L75.073,37.4L77.307,37.4L77.307,39.807ZM77.307,35.338L74.614,35.338C74.402,35.335 74.193,35.374 73.997,35.454C73.801,35.533 73.624,35.651 73.474,35.8C73.325,35.949 73.207,36.127 73.127,36.323C73.047,36.518 73.008,36.728 73.01,36.939L73.01,40.286C73.008,40.496 73.048,40.704 73.128,40.899C73.208,41.093 73.327,41.27 73.476,41.417C73.626,41.565 73.803,41.681 73.999,41.759C74.194,41.836 74.403,41.874 74.614,41.869L77.307,41.869L77.307,48.668C77.309,48.927 77.259,49.183 77.161,49.423C77.063,49.662 76.918,49.879 76.735,50.062C76.553,50.245 76.335,50.39 76.096,50.488C75.857,50.586 75.601,50.636 75.342,50.635L72.517,50.635C72.023,47.713 69.42,45.355 66.291,45.355C63.163,45.355 60.56,47.713 60.066,50.635L55.479,50.635L55.479,33.103L77.307,33.103L77.307,35.338Z" fill="#0073E6"/>
</svg>
