<svg width="38" height="40" viewBox="0 0 38 40" fill="none" xmlns="http://www.w3.org/2000/svg" xmlns:xlink="http://www.w3.org/1999/xlink">
<path d="M35.168,38.605C35.753,39.19 36.703,39.19 37.289,38.605C37.875,38.019 37.875,37.069 37.289,36.483L35.168,38.605ZM33.78,32.974C33.194,32.389 32.245,32.389 31.659,32.974C31.073,33.56 31.073,34.51 31.659,35.096L33.78,32.974ZM2.641,19.123C2.641,10.746 9.431,3.956 17.807,3.956L17.807,0.956C7.774,0.956 -0.359,9.09 -0.359,19.123L2.641,19.123ZM17.807,3.956C26.184,3.956 32.974,10.746 32.974,19.123L35.974,19.123C35.974,9.09 27.84,0.956 17.807,0.956L17.807,3.956ZM32.974,19.123C32.974,27.499 26.184,34.29 17.807,34.29L17.807,37.29C27.84,37.29 35.974,29.156 35.974,19.123L32.974,19.123ZM17.807,34.29C9.431,34.29 2.641,27.499 2.641,19.123L-0.359,19.123C-0.359,29.156 7.774,37.29 17.807,37.29L17.807,34.29ZM37.289,36.483L33.78,32.974L31.659,35.096L35.168,38.605L37.289,36.483Z" fill="#FFFFFF"/>
</svg>
