<svg width="44" height="40" viewBox="0 0 44 40" fill="none" xmlns="http://www.w3.org/2000/svg" xmlns:xlink="http://www.w3.org/1999/xlink">
<path d="M10.832,10.045C10.143,9.585 9.211,9.772 8.752,10.461C8.292,11.15 8.479,12.082 9.168,12.541L10.832,10.045ZM17.562,16.335L18.394,15.086L18.394,15.086L17.562,16.335ZM26.438,16.335L25.606,15.086L25.606,15.086L26.438,16.335ZM34.832,12.541C35.521,12.082 35.708,11.15 35.248,10.461C34.789,9.772 33.857,9.585 33.168,10.045L34.832,12.541ZM10,2.793L34,2.793L34,-0.207L10,-0.207L10,2.793ZM40.5,9.293L40.5,29.293L43.5,29.293L43.5,9.293L40.5,9.293ZM34,35.793L10,35.793L10,38.793L34,38.793L34,35.793ZM3.5,29.293L3.5,9.293L0.5,9.293L0.5,29.293L3.5,29.293ZM10,35.793C6.41,35.793 3.5,32.883 3.5,29.293L0.5,29.293C0.5,34.54 4.753,38.793 10,38.793L10,35.793ZM40.5,29.293C40.5,32.883 37.59,35.793 34,35.793L34,38.793C39.247,38.793 43.5,34.54 43.5,29.293L40.5,29.293ZM34,2.793C37.59,2.793 40.5,5.703 40.5,9.293L43.5,9.293C43.5,4.046 39.247,-0.207 34,-0.207L34,2.793ZM10,-0.207C4.753,-0.207 0.5,4.046 0.5,9.293L3.5,9.293C3.5,5.703 6.41,2.793 10,2.793L10,-0.207ZM9.168,12.541L16.73,17.583L18.394,15.086L10.832,10.045L9.168,12.541ZM27.27,17.583L34.832,12.541L33.168,10.045L25.606,15.086L27.27,17.583ZM16.73,17.583C19.921,19.71 24.079,19.71 27.27,17.583L25.606,15.086C23.422,16.542 20.578,16.542 18.394,15.086L16.73,17.583Z" fill="#C4C4C4"/>
</svg>
