<svg width="14" height="14" viewBox="0 0 14 14" fill="none" xmlns="http://www.w3.org/2000/svg" xmlns:xlink="http://www.w3.org/1999/xlink">
<path d="M6.373,-0.922C4.97,-0.922 3.599,-0.506 2.432,0.274C1.265,1.053 0.356,2.161 -0.181,3.457C-0.718,4.753 -0.858,6.18 -0.584,7.556C-0.311,8.932 0.365,10.196 1.357,11.188C2.349,12.18 3.613,12.856 4.989,13.129C6.365,13.403 7.792,13.263 9.088,12.726C10.384,12.189 11.492,11.28 12.271,10.113C13.051,8.946 13.467,7.575 13.467,6.172C13.467,4.291 12.719,2.486 11.389,1.156C10.059,-0.174 8.254,-0.922 6.373,-0.922ZM10.193,6.172C10.194,6.929 9.971,7.669 9.552,8.298C9.132,8.928 8.536,9.419 7.837,9.71C7.138,10 6.369,10.077 5.627,9.93C4.884,9.783 4.202,9.419 3.667,8.884C3.132,8.349 2.767,7.668 2.62,6.925C2.472,6.183 2.548,5.414 2.837,4.715C3.127,4.016 3.618,3.419 4.247,2.999C4.877,2.579 5.616,2.355 6.373,2.355C7.383,2.357 8.352,2.758 9.067,3.471C9.783,4.184 10.187,5.151 10.193,6.161L10.193,6.172Z" fill="#555555"/>
</svg>
