<svg width="16" height="14" viewBox="0 0 16 14" fill="none" xmlns="http://www.w3.org/2000/svg" xmlns:xlink="http://www.w3.org/1999/xlink">
<path d="M7.856,-0.926C6.453,-0.926 5.082,-0.51 3.915,0.27C2.749,1.049 1.84,2.157 1.303,3.453C0.766,4.75 0.625,6.176 0.899,7.552C1.173,8.928 1.848,10.192 2.84,11.184C3.833,12.176 5.096,12.852 6.473,13.125C7.849,13.399 9.275,13.259 10.571,12.722C11.867,12.185 12.975,11.276 13.755,10.109C14.534,8.943 14.95,7.571 14.95,6.168C14.95,5.236 14.767,4.314 14.41,3.453C14.054,2.593 13.531,1.811 12.873,1.152C12.214,0.493 11.432,-0.029 10.571,-0.386C9.711,-0.742 8.788,-0.926 7.856,-0.926ZM11.68,6.168C11.681,6.925 11.458,7.664 11.039,8.294C10.62,8.924 10.023,9.415 9.325,9.706C8.626,9.996 7.857,10.073 7.115,9.926C6.373,9.779 5.691,9.416 5.155,8.881C4.62,8.347 4.255,7.666 4.107,6.924C3.959,6.182 4.034,5.413 4.323,4.714C4.612,4.014 5.103,3.417 5.731,2.996C6.36,2.576 7.1,2.352 7.856,2.352C8.867,2.353 9.836,2.754 10.552,3.467C11.268,4.18 11.673,5.147 11.68,6.157L11.68,6.168Z" fill="#555555"/>
</svg>
