<svg width="24" height="14" viewBox="0 0 24 14" fill="none" xmlns="http://www.w3.org/2000/svg" xmlns:xlink="http://www.w3.org/1999/xlink">
<path d="M3.061,-0.183C2.475,-0.769 1.525,-0.769 0.939,-0.183C0.354,0.403 0.354,1.353 0.939,1.939L3.061,-0.183ZM12,10.878L10.939,11.939C11.525,12.524 12.475,12.524 13.061,11.939L12,10.878ZM23.061,1.939C23.646,1.353 23.646,0.403 23.061,-0.183C22.475,-0.769 21.525,-0.769 20.939,-0.183L23.061,1.939ZM0.939,1.939L10.939,11.939L13.061,9.817L3.061,-0.183L0.939,1.939ZM13.061,11.939L23.061,1.939L20.939,-0.183L10.939,9.817L13.061,11.939Z" transform="rotate(0 12 5.878)" fill="#262626"/>
</svg>
