<svg width="44" height="40" viewBox="0 0 44 40" fill="none" xmlns="http://www.w3.org/2000/svg" xmlns:xlink="http://www.w3.org/1999/xlink">
<path d="M22,6.958L20.897,7.975C21.181,8.283 21.581,8.458 22,8.458C22.419,8.458 22.819,8.283 23.103,7.975L22,6.958ZM23.37,5.471L24.473,6.487L24.473,6.487L23.37,5.471ZM20.63,5.471L21.733,4.455L21.733,4.455L20.63,5.471ZM4.908,21.904L3.767,22.877L4.908,21.904ZM16.361,35.326L15.219,36.299L16.361,35.326ZM27.639,35.326L28.781,36.299L28.781,36.299L27.639,35.326ZM39.092,21.904L40.233,22.877L40.233,22.877L39.092,21.904ZM38.804,5.471L37.7,6.487L38.804,5.471ZM5.196,5.471L6.3,6.487L6.3,6.487L5.196,5.471ZM23.103,7.975L24.473,6.487L22.267,4.455L20.897,5.942L23.103,7.975ZM19.527,6.487L20.897,7.975L23.103,5.942L21.733,4.455L19.527,6.487ZM3.767,22.877L15.219,36.299L17.502,34.352L6.049,20.93L3.767,22.877ZM28.781,36.299L40.233,22.877L37.951,20.93L26.498,34.352L28.781,36.299ZM37.7,6.487C41.331,10.429 41.447,16.833 37.951,20.93L40.233,22.877C44.71,17.631 44.571,9.519 39.907,4.455L37.7,6.487ZM39.907,4.455C35.051,-0.818 27.123,-0.818 22.267,4.455L24.473,6.487C28.141,2.504 34.033,2.504 37.7,6.487L39.907,4.455ZM6.3,6.487C9.967,2.504 15.859,2.504 19.527,6.487L21.733,4.455C16.877,-0.818 8.949,-0.818 4.093,4.455L6.3,6.487ZM15.219,36.299C18.861,40.567 25.139,40.567 28.781,36.299L26.498,34.352C24.055,37.216 19.945,37.216 17.502,34.352L15.219,36.299ZM4.093,4.455C-0.571,9.519 -0.71,17.631 3.767,22.877L6.049,20.93C2.553,16.833 2.669,10.429 6.3,6.487L4.093,4.455Z" fill="#28303F"/>
</svg>
