<svg width="46" height="46" viewBox="0 0 46 46" fill="none" xmlns="http://www.w3.org/2000/svg" xmlns:xlink="http://www.w3.org/1999/xlink">
<path d="M22.181,0.202C17.655,0.202 13.231,1.544 9.468,4.059C5.705,6.573 2.772,10.147 1.04,14.328C-0.692,18.509 -1.145,23.11 -0.262,27.549C0.621,31.988 2.8,36.066 6,39.266C9.201,42.466 13.278,44.645 17.717,45.528C22.156,46.411 26.757,45.958 30.938,44.226C35.119,42.494 38.693,39.561 41.208,35.798C43.722,32.035 45.064,27.611 45.064,23.085C45.064,20.08 44.472,17.104 43.322,14.328C42.172,11.552 40.487,9.029 38.362,6.904C36.237,4.779 33.714,3.094 30.938,1.944C28.162,0.794 25.186,0.202 22.181,0.202ZM34.515,23.085C34.52,25.525 33.8,27.912 32.448,29.944C31.095,31.975 29.17,33.559 26.917,34.496C24.664,35.434 22.183,35.681 19.789,35.208C17.395,34.734 15.195,33.561 13.468,31.837C11.741,30.113 10.564,27.916 10.086,25.523C9.608,23.129 9.851,20.648 10.784,18.393C11.717,16.138 13.298,14.211 15.326,12.854C17.355,11.498 19.741,10.774 22.181,10.774C25.441,10.78 28.566,12.074 30.876,14.373C33.186,16.672 34.494,19.791 34.515,23.051L34.515,23.085Z" fill="#555555"/>
</svg>
