<svg width="82" height="62" viewBox="0 0 82 62" fill="none" xmlns="http://www.w3.org/2000/svg" xmlns:xlink="http://www.w3.org/1999/xlink">
<path d="M18.592,24.024C17.688,24.024 16.821,24.162 15.958,24.287C16.238,23.347 16.525,22.391 16.987,21.532C17.449,20.284 18.17,19.202 18.888,18.112C19.487,16.933 20.545,16.135 21.323,15.126C22.137,14.145 23.247,13.493 24.127,12.679C24.99,11.828 26.12,11.402 27.02,10.803C27.96,10.264 28.778,9.668 29.653,9.384L31.837,8.485L33.758,7.687L31.793,-0.166L29.374,0.417C28.6,0.612 27.656,0.839 26.582,1.11C25.484,1.313 24.313,1.868 23.008,2.375C21.72,2.95 20.229,3.339 18.843,4.263C17.449,5.146 15.841,5.883 14.422,7.067C13.049,8.286 11.392,9.344 10.168,10.896C8.831,12.346 7.51,13.87 6.485,15.604C5.297,17.257 4.491,19.072 3.64,20.867C2.87,22.662 2.25,24.498 1.744,26.281C0.784,29.855 0.354,33.25 0.188,36.155C0.05,39.065 0.131,41.484 0.301,43.234C0.362,44.061 0.476,44.863 0.557,45.418L0.658,46.099L0.763,46.074C1.484,49.441 3.143,52.534 5.549,54.997C7.954,57.46 11.008,59.192 14.356,59.992C17.705,60.792 21.211,60.628 24.47,59.518C27.729,58.408 30.607,56.399 32.772,53.721C34.936,51.044 36.299,47.809 36.701,44.39C37.104,40.971 36.531,37.508 35.047,34.401C33.564,31.294 31.231,28.671 28.319,26.835C25.407,24.998 22.035,24.024 18.592,24.024L18.592,24.024ZM63.163,24.024C62.259,24.024 61.392,24.162 60.529,24.287C60.809,23.347 61.096,22.391 61.558,21.532C62.02,20.284 62.741,19.202 63.459,18.112C64.058,16.933 65.116,16.135 65.894,15.126C66.708,14.145 67.818,13.493 68.698,12.679C69.561,11.828 70.691,11.402 71.591,10.803C72.531,10.264 73.349,9.668 74.224,9.384L76.408,8.485L78.329,7.687L76.364,-0.166L73.945,0.417C73.171,0.612 72.227,0.839 71.153,1.11C70.055,1.313 68.884,1.868 67.579,2.375C66.295,2.954 64.8,3.339 63.414,4.267C62.02,5.15 60.412,5.888 58.993,7.071C57.62,8.29 55.963,9.348 54.739,10.896C53.402,12.346 52.081,13.87 51.056,15.604C49.868,17.257 49.062,19.072 48.211,20.867C47.441,22.662 46.821,24.498 46.315,26.281C45.355,29.855 44.925,33.25 44.759,36.155C44.621,39.065 44.702,41.484 44.872,43.234C44.933,44.061 45.047,44.863 45.128,45.418L45.229,46.099L45.334,46.074C46.055,49.441 47.714,52.534 50.12,54.997C52.525,57.46 55.579,59.192 58.927,59.992C62.276,60.792 65.782,60.628 69.041,59.518C72.3,58.408 75.178,56.399 77.343,53.721C79.507,51.044 80.87,47.809 81.272,44.39C81.675,40.971 81.102,37.508 79.618,34.401C78.135,31.294 75.802,28.671 72.89,26.835C69.978,24.998 66.606,24.024 63.163,24.024L63.163,24.024Z" fill="#0073E6"/>
</svg>
