<svg width="42" height="40" viewBox="0 0 42 40" fill="none" xmlns="http://www.w3.org/2000/svg" xmlns:xlink="http://www.w3.org/1999/xlink">
<path d="M35.624,33.752L38.749,33.752C39.249,33.752 39.624,33.502 39.874,33.065C40.061,32.627 40.061,32.127 39.749,31.752L26.999,14.627L39.624,2.002C40.124,1.502 40.124,0.752 39.624,0.252C39.124,-0.248 38.374,-0.248 37.874,0.252L25.499,12.564L20.999,6.502C20.499,5.877 19.437,5.877 18.999,6.502L14.499,12.564L2.124,0.252C1.624,-0.248 0.874,-0.248 0.374,0.252C-0.126,0.752 -0.126,1.502 0.374,2.002L12.999,14.627L0.249,31.752C-0.063,32.127 -0.063,32.627 0.124,33.065C0.312,33.502 0.749,33.752 1.249,33.752L4.374,33.752L0.374,37.752C-0.126,38.252 -0.126,39.002 0.374,39.502C0.874,40.002 1.624,40.002 2.124,39.502L7.874,33.752L32.061,33.752L37.811,39.502C38.311,40.002 39.061,40.002 39.561,39.502C40.061,39.002 40.061,38.252 39.561,37.752L35.624,33.752ZM36.249,31.252L33.124,31.252L21.749,19.877L25.249,16.377L36.249,31.252ZM19.999,9.377L23.749,14.377L19.999,18.127L16.249,14.377L19.999,9.377ZM3.749,31.252L14.749,16.439L18.249,19.939L6.874,31.252L3.749,31.252ZM10.437,31.252L19.999,21.627L29.561,31.189L10.437,31.189L10.437,31.252Z" fill="#434343"/>
</svg>
