<svg width="20" height="20" viewBox="0 0 20 20" fill="none" xmlns="http://www.w3.org/2000/svg" xmlns:xlink="http://www.w3.org/1999/xlink">
<path d="M9.732,-0.063C7.82,-0.063 5.952,0.504 4.362,1.566C2.773,2.628 1.534,4.138 0.803,5.904C0.071,7.67 -0.12,9.613 0.253,11.488C0.626,13.363 1.546,15.085 2.898,16.437C4.249,17.788 5.972,18.709 7.846,19.082C9.721,19.455 11.665,19.263 13.431,18.532C15.197,17.8 16.706,16.562 17.768,14.972C18.83,13.383 19.397,11.514 19.397,9.602C19.397,7.039 18.379,4.581 16.566,2.768C14.754,0.956 12.295,-0.063 9.732,-0.063ZM14.937,9.602C14.939,10.633 14.635,11.642 14.063,12.5C13.492,13.358 12.678,14.027 11.726,14.423C10.774,14.818 9.726,14.923 8.715,14.722C7.704,14.522 6.775,14.026 6.045,13.298C5.316,12.569 4.819,11.64 4.618,10.629C4.417,9.618 4.52,8.57 4.915,7.617C5.309,6.665 5.978,5.851 6.835,5.279C7.693,4.707 8.701,4.402 9.732,4.403C11.108,4.405 12.428,4.952 13.403,5.923C14.378,6.894 14.929,8.212 14.937,9.588L14.937,9.602Z" fill="#555555"/>
</svg>
