<svg width="20" height="28" viewBox="0 0 20 28" fill="none" xmlns="http://www.w3.org/2000/svg" xmlns:xlink="http://www.w3.org/1999/xlink">
<path d="M-0.061,7.918C-0.646,8.504 -0.646,9.453 -0.061,10.039C0.525,10.625 1.475,10.625 2.061,10.039L-0.061,7.918ZM9,0.979L10.061,-0.082C9.475,-0.668 8.525,-0.668 7.939,-0.082L9,0.979ZM15.939,10.039C16.525,10.625 17.475,10.625 18.061,10.039C18.646,9.453 18.646,8.504 18.061,7.918L15.939,10.039ZM7.5,24.979C7.5,25.807 8.172,26.479 9,26.479C9.828,26.479 10.5,25.807 10.5,24.979L7.5,24.979ZM2.061,10.039L10.061,2.039L7.939,-0.082L-0.061,7.918L2.061,10.039ZM7.939,2.039L15.939,10.039L18.061,7.918L10.061,-0.082L7.939,2.039ZM7.5,0.979L7.5,24.979L10.5,24.979L10.5,0.979L7.5,0.979Z" transform="rotate(180 9 12.979)" fill="#FFFFFF"/>
</svg>
