<svg width="30" height="30" viewBox="0 0 30 30" fill="none" xmlns="http://www.w3.org/2000/svg" xmlns:xlink="http://www.w3.org/1999/xlink">
<path d="M26.627,29.307C27.017,29.698 27.65,29.698 28.041,29.307C28.431,28.917 28.431,28.284 28.041,27.893L26.627,29.307ZM25.374,25.226C24.984,24.836 24.35,24.836 23.96,25.226C23.569,25.617 23.569,26.25 23.96,26.641L25.374,25.226ZM1.667,14.6C1.667,8.157 6.89,2.934 13.334,2.934L13.334,0.934C5.786,0.934 -0.333,7.052 -0.333,14.6L1.667,14.6ZM13.334,2.934C19.777,2.934 25,8.157 25,14.6L27,14.6C27,7.052 20.882,0.934 13.334,0.934L13.334,2.934ZM25,14.6C25,21.044 19.777,26.267 13.334,26.267L13.334,28.267C20.882,28.267 27,22.148 27,14.6L25,14.6ZM13.334,26.267C6.89,26.267 1.667,21.044 1.667,14.6L-0.333,14.6C-0.333,22.148 5.786,28.267 13.334,28.267L13.334,26.267ZM28.041,27.893L25.374,25.226L23.96,26.641L26.627,29.307L28.041,27.893Z" fill="#C4C4C4"/>
</svg>
