<svg width="28" height="28" viewBox="0 0 28 28" fill="none" xmlns="http://www.w3.org/2000/svg" xmlns:xlink="http://www.w3.org/1999/xlink">
<path d="M13.461,-0.514C10.715,-0.514 8.029,0.301 5.746,1.827C3.462,3.353 1.682,5.522 0.63,8.06C-0.421,10.597 -0.696,13.39 -0.16,16.084C0.376,18.778 1.699,21.253 3.641,23.195C5.583,25.137 8.058,26.46 10.752,26.996C13.446,27.532 16.238,27.257 18.776,26.206C21.314,25.154 23.483,23.374 25.009,21.09C26.535,18.806 27.349,16.121 27.349,13.374C27.349,9.691 25.886,6.159 23.282,3.554C20.677,0.95 17.145,-0.514 13.461,-0.514ZM20.94,13.374C20.943,14.856 20.506,16.305 19.685,17.538C18.864,18.771 17.695,19.732 16.327,20.301C14.959,20.869 13.453,21.019 12,20.731C10.547,20.444 9.212,19.731 8.164,18.684C7.116,17.637 6.402,16.303 6.113,14.85C5.824,13.397 5.972,11.891 6.539,10.522C7.106,9.154 8.067,7.984 9.299,7.162C10.531,6.339 11.98,5.901 13.461,5.903C15.439,5.906 17.335,6.692 18.736,8.087C20.137,9.483 20.929,11.376 20.94,13.354L20.94,13.374Z" fill="#555555"/>
</svg>
