<svg width="36" height="44" viewBox="0 0 36 44" fill="none" xmlns="http://www.w3.org/2000/svg" xmlns:xlink="http://www.w3.org/1999/xlink">
<path d="M18.158,-0.875C13.601,-0.87 9.233,0.943 6.011,4.165C2.789,7.387 0.976,11.756 0.971,16.313C0.965,20.036 2.182,23.659 4.433,26.625C4.433,26.625 4.902,27.242 4.979,27.331L18.158,42.875L31.344,27.323C31.413,27.241 31.883,26.625 31.883,26.625L31.885,26.62C34.135,23.656 35.351,20.035 35.346,16.313C35.34,11.756 33.528,7.387 30.306,4.165C27.084,0.943 22.715,-0.87 18.158,-0.875L18.158,-0.875ZM18.158,22.563C16.922,22.563 15.714,22.196 14.686,21.509C13.658,20.822 12.857,19.846 12.384,18.704C11.911,17.562 11.787,16.306 12.028,15.093C12.269,13.881 12.865,12.767 13.739,11.893C14.613,11.019 15.727,10.424 16.939,10.183C18.151,9.941 19.408,10.065 20.55,10.538C21.692,11.011 22.668,11.812 23.355,12.84C24.042,13.868 24.408,15.076 24.408,16.313C24.406,17.969 23.747,19.558 22.575,20.73C21.404,21.901 19.815,22.56 18.158,22.563L18.158,22.563Z" fill="#2747C5"/>
</svg>
