<svg width="80" height="84" viewBox="0 0 80 84" fill="none" xmlns="http://www.w3.org/2000/svg" xmlns:xlink="http://www.w3.org/1999/xlink">
<path d="M78.119,31.758L70.348,23.291C69.775,22.669 69.022,22.241 68.195,22.067C62.965,8.987 49.745,0.246 35.078,0.246C15.532,0.246 -0.369,15.468 -0.369,34.179C-0.369,40.185 1.486,46.48 5.144,52.89C8.043,57.97 12.078,63.137 17.137,68.248C25.722,76.921 34.435,82.528 34.522,82.584C34.688,82.69 34.881,82.746 35.078,82.746C35.275,82.746 35.467,82.69 35.633,82.584C35.798,82.478 51.93,72.068 62.118,57.452C63.003,57.963 63.998,58.253 65.019,58.295C66.041,58.338 67.057,58.132 67.981,57.695C68.905,57.259 69.71,56.604 70.325,55.789C70.941,54.973 71.35,54.02 71.517,53.012L74.342,53.012C74.871,53.013 75.396,52.909 75.885,52.707C76.374,52.505 76.819,52.209 77.193,51.834C77.567,51.46 77.864,51.015 78.066,50.526C78.268,50.037 78.371,49.512 78.37,48.983L78.37,32.455C78.373,32.198 78.28,31.95 78.108,31.759L78.119,31.758ZM68.828,24.612L75.013,31.355L65.651,31.355L65.651,23.965L67.365,23.965C67.64,23.966 67.913,24.024 68.164,24.135C68.416,24.247 68.642,24.409 68.828,24.612ZM35.077,80.478C29.159,76.435 23.634,71.845 18.574,66.768C13.649,61.788 9.73,56.769 6.925,51.849C3.453,45.761 1.693,39.816 1.693,34.179C1.693,16.606 16.67,2.27 35.078,2.27C48.583,2.27 60.779,10.215 65.922,21.902L57.717,21.902C53.04,13.996 44.425,8.888 35.078,8.888C25.12,8.888 16.444,14.501 12.026,22.71C11.956,22.841 11.914,22.986 11.904,23.134C11.894,23.282 11.916,23.431 11.968,23.571C12.02,23.71 12.102,23.836 12.207,23.942C12.312,24.047 12.438,24.128 12.578,24.181L12.58,24.186C12.818,24.272 13.079,24.271 13.316,24.183C13.553,24.095 13.752,23.926 13.877,23.706C14.658,22.256 15.464,20.899 16.667,19.645L16.667,37.199L11.075,37.199C11.015,36.512 10.982,35.799 10.982,35.088C10.982,33.035 11.245,30.99 11.765,29.003C11.834,28.745 11.8,28.47 11.67,28.236C11.54,28.002 11.323,27.828 11.067,27.751L11.052,27.746C10.921,27.707 10.783,27.694 10.648,27.709C10.512,27.724 10.38,27.765 10.261,27.832C10.141,27.898 10.037,27.988 9.953,28.096C9.869,28.204 9.807,28.327 9.771,28.459C9.205,30.622 8.918,32.849 8.92,35.085C8.92,49.508 20.654,61.233 35.078,61.233C42.272,61.233 49.176,58.339 54.107,53.011L59.066,53.011C59.251,54.164 59.757,55.241 60.526,56.119C51.64,68.944 37.985,78.522 35.077,80.478ZM63.589,23.965L63.589,31.355L62.042,31.355L62.042,23.965L63.589,23.965ZM32.48,53.012L51.156,53.012C48.052,55.799 44.276,57.732 40.2,58.62C36.124,59.508 31.886,59.321 27.904,58.076C29.068,57.751 30.115,57.103 30.925,56.206C31.735,55.31 32.274,54.202 32.48,53.012ZM26.255,56.248C25.415,56.248 24.593,55.999 23.895,55.532C23.196,55.066 22.651,54.402 22.33,53.626C22.008,52.85 21.924,51.995 22.088,51.171C22.252,50.347 22.656,49.59 23.25,48.996C23.844,48.402 24.601,47.997 25.425,47.833C26.249,47.669 27.104,47.753 27.88,48.075C28.656,48.396 29.32,48.941 29.787,49.639C30.253,50.338 30.503,51.159 30.503,52C30.501,53.126 30.053,54.206 29.257,55.002C28.461,55.798 27.381,56.246 26.255,56.248ZM32.48,50.949C31.986,48.027 29.384,45.67 26.255,45.67C23.127,45.67 20.524,48.027 20.03,50.949L16.974,50.949C15.288,49.065 13.923,46.917 12.935,44.59L52.417,44.59L52.417,50.949L32.48,50.949ZM20.309,54.092C19.865,53.747 19.434,53.355 19.016,53.012L20.03,53.012C20.094,53.379 20.188,53.74 20.309,54.092ZM12.158,42.527C11.817,41.457 11.545,40.366 11.344,39.262L52.417,39.262L52.417,42.527L12.158,42.527ZM18.729,37.199L18.729,17.399C19.356,16.792 20.023,16.229 20.728,15.715L26.635,15.715L26.635,37.199L18.729,37.199ZM28.698,37.199L28.698,15.715L37.292,15.715L37.292,37.199L28.698,37.199ZM39.354,37.199L39.354,15.715L43.811,15.715C44.909,15.722 45.96,16.163 46.734,16.941C47.509,17.719 47.945,18.771 47.948,19.869L47.948,37.199L39.354,37.199ZM50.01,37.199L50.01,19.869C50.007,18.224 49.353,16.648 48.192,15.483C47.031,14.318 45.456,13.66 43.811,13.652L24.021,13.652C27.435,11.872 31.227,10.94 35.078,10.937C43.281,10.937 50.874,15.199 55.299,21.902L53.447,21.902C52.878,21.902 52.417,22.442 52.417,23.012L52.417,37.199L50.01,37.199ZM54.479,23.965L59.979,23.965L59.979,31.355L54.479,31.355L54.479,23.965ZM65.291,56.248C64.451,56.248 63.63,55.999 62.931,55.532C62.233,55.065 61.688,54.402 61.367,53.625C61.045,52.849 60.961,51.995 61.125,51.171C61.289,50.347 61.693,49.59 62.288,48.996C62.882,48.402 63.639,47.997 64.463,47.833C65.287,47.669 66.141,47.753 66.917,48.075C67.694,48.396 68.357,48.941 68.824,49.639C69.291,50.338 69.54,51.159 69.54,52C69.538,53.126 69.09,54.206 68.294,55.002C67.498,55.799 66.418,56.247 65.291,56.248ZM76.307,40.121L74.073,40.121L74.073,37.715L76.307,37.715L76.307,40.121ZM76.307,35.652L73.614,35.652C73.402,35.649 73.193,35.689 72.997,35.768C72.801,35.848 72.624,35.965 72.474,36.115C72.325,36.264 72.207,36.441 72.127,36.637C72.047,36.833 72.008,37.042 72.01,37.253L72.01,40.6C72.008,40.81 72.048,41.019 72.128,41.213C72.208,41.408 72.327,41.584 72.476,41.732C72.626,41.88 72.803,41.996 72.999,42.073C73.194,42.151 73.403,42.188 73.614,42.184L76.307,42.184L76.307,48.983C76.309,49.241 76.259,49.498 76.161,49.737C76.063,49.976 75.918,50.194 75.735,50.377C75.553,50.559 75.335,50.704 75.096,50.803C74.857,50.901 74.601,50.951 74.342,50.949L71.517,50.949C71.023,48.027 68.42,45.67 65.291,45.67C62.163,45.67 59.56,48.027 59.066,50.949L54.479,50.949L54.479,33.418L76.307,33.418L76.307,35.652Z" fill="#3E60C9"/>
</svg>
