<svg width="24" height="12" viewBox="0 0 24 12" fill="none" xmlns="http://www.w3.org/2000/svg" xmlns:xlink="http://www.w3.org/1999/xlink">
<path d="M3.488,-0.376C2.864,-0.921 1.917,-0.858 1.371,-0.235C0.826,0.389 0.889,1.336 1.512,1.882L3.488,-0.376ZM12.5,9.503L11.512,10.632C12.078,11.127 12.922,11.127 13.488,10.632L12.5,9.503ZM23.488,1.882C24.111,1.336 24.174,0.389 23.629,-0.235C23.083,-0.858 22.136,-0.921 21.512,-0.376L23.488,1.882ZM1.512,1.882L11.512,10.632L13.488,8.374L3.488,-0.376L1.512,1.882ZM13.488,10.632L23.488,1.882L21.512,-0.376L11.512,8.374L13.488,10.632Z" transform="rotate(0 12.5 5.128)" fill="#7B7B7B"/>
</svg>
