<svg width="14" height="14" viewBox="0 0 14 14" fill="none" xmlns="http://www.w3.org/2000/svg" xmlns:xlink="http://www.w3.org/1999/xlink">
<path d="M6.501,-0.926C5.098,-0.926 3.726,-0.51 2.56,0.27C1.393,1.049 0.484,2.157 -0.053,3.453C-0.59,4.75 -0.73,6.176 -0.456,7.552C-0.183,8.928 0.493,10.192 1.485,11.184C2.477,12.176 3.741,12.852 5.117,13.125C6.493,13.399 7.919,13.259 9.216,12.722C10.512,12.185 11.62,11.276 12.399,10.109C13.179,8.943 13.595,7.571 13.595,6.168C13.595,4.287 12.847,2.482 11.517,1.152C10.187,-0.178 8.382,-0.926 6.501,-0.926ZM10.321,6.168C10.322,6.925 10.099,7.665 9.68,8.295C9.26,8.924 8.664,9.416 7.965,9.706C7.266,9.996 6.497,10.073 5.755,9.926C5.012,9.779 4.33,9.415 3.795,8.88C3.26,8.345 2.895,7.664 2.747,6.921C2.6,6.179 2.676,5.41 2.965,4.711C3.255,4.012 3.746,3.415 4.375,2.995C5.004,2.575 5.744,2.351 6.501,2.352C7.511,2.353 8.48,2.755 9.195,3.467C9.911,4.18 10.315,5.147 10.321,6.157L10.321,6.168Z" fill="#555555"/>
</svg>
