<svg width="24" height="14" viewBox="0 0 24 14" fill="none" xmlns="http://www.w3.org/2000/svg" xmlns:xlink="http://www.w3.org/1999/xlink">
<path d="M3.061,-0.184C2.475,-0.769 1.525,-0.769 0.939,-0.184C0.354,0.402 0.354,1.352 0.939,1.938L3.061,-0.184ZM12,10.877L10.939,11.938C11.525,12.523 12.475,12.523 13.061,11.938L12,10.877ZM23.061,1.938C23.646,1.352 23.646,0.402 23.061,-0.184C22.475,-0.769 21.525,-0.769 20.939,-0.184L23.061,1.938ZM0.939,1.938L10.939,11.938L13.061,9.816L3.061,-0.184L0.939,1.938ZM13.061,11.938L23.061,1.938L20.939,-0.184L10.939,9.816L13.061,11.938Z" transform="rotate(0 12 5.877)" fill="#262626"/>
</svg>
