<svg width="68" height="84" viewBox="0 0 68 84" fill="none" xmlns="http://www.w3.org/2000/svg" xmlns:xlink="http://www.w3.org/1999/xlink">
<path d="M60.253,59.594C60.203,59.572 60.151,59.554 60.098,59.539L49.844,56.435C50.783,56.127 51.592,55.565 52.161,54.827C52.729,54.089 53.028,53.211 53.017,52.314L53.017,49.518C53.209,49.531 53.422,49.54 53.6,49.54C55.09,49.539 56.539,49.096 57.72,48.281C58.902,47.466 59.75,46.324 60.133,45.032L62.828,35.862C63.645,33.06 62.045,30.194 59.356,28.946L59.356,22.1C59.356,9.575 47.97,-0.615 34,-0.615C20.03,-0.615 8.644,9.575 8.644,22.1L8.644,28.946C5.955,30.194 4.344,33.06 5.16,35.862L7.838,45.032C8.062,45.799 8.451,46.519 8.985,47.15C9.519,47.782 10.186,48.313 10.949,48.713C11.711,49.114 12.554,49.375 13.43,49.483C14.305,49.591 15.196,49.544 16.051,49.343L20.518,48.297C21.775,49.455 23.21,50.446 24.78,51.241L24.78,54.431L7.892,59.539C7.842,59.554 7.793,59.572 7.746,59.594C5.606,60.557 3.775,61.994 2.428,63.769C1.08,65.544 0.26,67.598 0.045,69.737C0.043,69.765 0,69.794 0,69.823L0,82.305C0.017,82.591 0.154,82.862 0.383,83.062C0.612,83.262 0.917,83.377 1.237,83.385L66.763,83.385C67.083,83.377 67.388,83.262 67.617,83.062C67.846,82.862 67.983,82.591 68,82.305L68,69.822C68,69.794 67.956,69.765 67.954,69.736C67.739,67.598 66.919,65.544 65.571,63.769C64.224,61.994 62.393,60.557 60.253,59.594ZM24.78,81.318L10.565,81.318L10.565,77.009C10.565,76.874 10.535,76.74 10.478,76.615C10.42,76.49 10.335,76.376 10.229,76.281C10.122,76.185 9.995,76.109 9.856,76.057C9.717,76.006 9.567,75.979 9.416,75.979L9.408,75.979C9.258,75.979 9.108,76.006 8.969,76.057C8.829,76.109 8.703,76.185 8.596,76.281C8.49,76.376 8.405,76.49 8.347,76.615C8.29,76.74 8.26,76.874 8.26,77.009L8.26,81.318L2.305,81.318L2.305,69.867C2.689,67.63 3.598,65.534 5.215,63.883C6.791,65.753 7.809,67.953 8.172,70.274C8.217,70.544 8.379,70.788 8.624,70.952C8.868,71.116 9.175,71.186 9.477,71.148C9.779,71.11 10.052,70.966 10.237,70.748C10.421,70.53 10.502,70.256 10.462,69.985C10.016,67.253 8.806,64.667 6.946,62.468C7.497,62.089 8.086,61.756 8.705,61.474L24.78,56.612L24.78,81.318ZM50.712,52.314C50.712,53.601 49.638,54.623 48.203,54.623L43.854,54.623L43.22,54.431L43.22,51.238C44.781,50.441 46.21,49.454 47.468,48.305L50.712,49.076L50.712,52.314ZM50.99,46.983L49.051,46.528L53.958,29.686L55.898,30.141L50.99,46.983ZM51.121,29.022C51.113,29.129 51.073,29.233 51.004,29.321L49.514,29.946L48.987,27.997C47.696,23.211 44.463,19.028 39.919,16.265C39.669,16.113 39.364,16.054 39.067,16.102C38.77,16.15 38.506,16.3 38.332,16.52C36.728,18.54 34.554,20.14 32.032,21.158C29.51,22.175 26.732,22.572 23.983,22.309L22.573,22.173C22.324,22.149 22.071,22.17 21.831,22.235C21.591,22.3 21.367,22.407 21.174,22.551C20.981,22.694 20.822,22.871 20.706,23.071C20.59,23.271 20.52,23.489 20.5,23.713L19.969,29.67C19.174,29.54 18.016,29.319 16.978,29.103C16.923,29.055 16.889,28.991 16.884,28.922L16.48,23.686C16.315,21.532 16.645,19.369 17.451,17.334C18.256,15.299 19.52,13.434 21.164,11.855C22.808,10.276 24.796,9.018 27.005,8.157C29.214,7.296 31.597,6.852 34.006,6.852C36.415,6.852 38.798,7.296 41.007,8.157C43.216,9.018 45.204,10.276 46.848,11.855C48.492,13.434 49.756,15.299 50.561,17.334C51.367,19.369 51.698,21.532 51.532,23.686L51.121,29.022ZM60.599,35.34L57.927,44.51C57.66,45.42 57.042,46.215 56.183,46.754C55.324,47.294 54.279,47.542 53.234,47.455L58.113,30.715C59.071,31.097 59.847,31.772 60.302,32.619C60.757,33.466 60.862,34.43 60.599,35.34ZM10.949,22.1C10.949,10.714 21.301,1.451 34,1.451C46.699,1.451 57.051,10.714 57.051,22.1L57.051,28.27L53.553,27.453L53.831,23.829C54.019,21.392 53.645,18.946 52.734,16.644C51.822,14.341 50.393,12.232 48.533,10.446C46.674,8.66 44.425,7.236 41.926,6.262C39.427,5.288 36.731,4.786 34.006,4.786C31.281,4.786 28.586,5.288 26.087,6.262C23.587,7.236 21.338,8.66 19.479,10.446C17.62,12.232 16.19,14.341 15.279,16.644C14.367,18.946 13.993,21.392 14.181,23.829L14.46,27.45L10.949,28.27L10.949,22.1ZM10.073,44.51L7.401,35.34C7.137,34.43 7.243,33.465 7.698,32.618C8.153,31.771 8.929,31.096 9.887,30.714L14.766,47.454C13.722,47.541 12.677,47.293 11.817,46.754C10.958,46.215 10.34,45.419 10.073,44.51ZM17.01,46.983L12.102,30.141L14.042,29.686L18.949,46.528L17.01,46.983ZM21.116,45.789L16.865,31.202C21.034,32.063 21.276,31.907 21.694,31.634C21.831,31.544 21.945,31.429 22.028,31.296C22.11,31.163 22.16,31.016 22.174,30.865L22.762,24.27L23.735,24.365C26.696,24.648 29.69,24.264 32.444,23.248C35.198,22.232 37.626,20.616 39.507,18.546C43.122,21.015 45.678,24.525 46.746,28.485L47.605,31.661C47.645,31.809 47.722,31.948 47.829,32.067C47.937,32.186 48.072,32.282 48.226,32.349C48.38,32.415 48.549,32.45 48.719,32.45C48.89,32.451 49.059,32.418 49.214,32.353L51.022,31.595L46.882,45.798C45.332,47.524 43.369,48.917 41.139,49.874C38.909,50.83 36.469,51.326 33.996,51.326C31.524,51.325 29.084,50.827 26.855,49.869C24.625,48.911 22.664,47.517 21.115,45.79L21.116,45.789ZM39.571,54.451L39.571,57.034L33.616,57.034L33.616,54.451L39.571,54.451ZM40.915,81.318L27.085,81.318L27.085,62.147C29.223,63.137 31.594,63.654 34,63.654C36.406,63.654 38.777,63.137 40.915,62.147L40.915,81.318ZM40.915,59.763C38.853,60.953 36.452,61.586 34,61.586C31.548,61.586 29.147,60.953 27.085,59.763L27.085,52.221C28.486,52.722 29.951,53.064 31.447,53.238C31.356,53.432 31.31,53.64 31.311,53.85L31.311,57.543C31.311,58.36 31.97,59.101 32.881,59.101L40.302,59.101C40.514,59.101 40.723,59.059 40.915,58.979L40.915,59.763ZM57.435,81.318L43.22,81.318L43.22,56.69L43.475,56.69L59.284,61.473C59.93,61.771 60.543,62.123 61.114,62.525C58.735,65.323 57.443,68.743 57.435,72.261L57.435,81.318ZM65.695,81.318L59.74,81.318L59.74,72.261C59.764,69.269 60.849,66.362 62.84,63.96C64.415,65.6 65.311,67.664 65.695,69.867L65.695,81.318Z" fill="#0073E6"/>
</svg>
