<svg width="20" height="28" viewBox="0 0 20 28" fill="none" xmlns="http://www.w3.org/2000/svg" xmlns:xlink="http://www.w3.org/1999/xlink">
<path d="M0.939,8.816C0.354,9.402 0.354,10.352 0.939,10.938C1.525,11.523 2.475,11.523 3.061,10.938L0.939,8.816ZM10,1.877L11.061,0.816C10.475,0.231 9.525,0.231 8.939,0.816L10,1.877ZM16.939,10.938C17.525,11.523 18.475,11.523 19.061,10.938C19.646,10.352 19.646,9.402 19.061,8.816L16.939,10.938ZM8.5,25.877C8.5,26.705 9.172,27.377 10,27.377C10.828,27.377 11.5,26.705 11.5,25.877L8.5,25.877ZM3.061,10.938L11.061,2.938L8.939,0.816L0.939,8.816L3.061,10.938ZM8.939,2.938L16.939,10.938L19.061,8.816L11.061,0.816L8.939,2.938ZM8.5,1.877L8.5,25.877L11.5,25.877L11.5,1.877L8.5,1.877Z" fill="#262626"/>
</svg>
