<svg width="28" height="40" viewBox="0 0 28 40" fill="none" xmlns="http://www.w3.org/2000/svg" xmlns:xlink="http://www.w3.org/1999/xlink">
<path d="M26,1L27.5,1C27.5,0.172 26.828,-0.5 26,-0.5L26,1ZM26,9L26,10.5C26.828,10.5 27.5,9.828 27.5,9L26,9ZM18,37L18,38.5C18.828,38.5 19.5,37.828 19.5,37L18,37ZM10,37L8.5,37C8.5,37.828 9.172,38.5 10,38.5L10,37ZM10,23L11.5,23C11.5,22.172 10.828,21.5 10,21.5L10,23ZM2,23L0.5,23C0.5,23.828 1.172,24.5 2,24.5L2,23ZM2,15L2,13.5C1.172,13.5 0.5,14.172 0.5,15L2,15ZM10,15L10,16.5C10.828,16.5 11.5,15.828 11.5,15L10,15ZM18,15L16.5,15C16.5,15.828 17.172,16.5 18,16.5L18,15ZM26,15L27.5,15C27.5,14.172 26.828,13.5 26,13.5L26,15ZM26,23L26,24.5C26.828,24.5 27.5,23.828 27.5,23L26,23ZM18,23L18,21.5C17.172,21.5 16.5,22.172 16.5,23L18,23ZM20,2.5L26,2.5L26,-0.5L20,-0.5L20,2.5ZM24.5,1L24.5,9L27.5,9L27.5,1L24.5,1ZM26,7.5L20,7.5L20,10.5L26,10.5L26,7.5ZM18,35.5L10,35.5L10,38.5L18,38.5L18,35.5ZM11.5,37L11.5,23L8.5,23L8.5,37L11.5,37ZM10,21.5L2,21.5L2,24.5L10,24.5L10,21.5ZM3.5,23L3.5,15L0.5,15L0.5,23L3.5,23ZM2,16.5L10,16.5L10,13.5L2,13.5L2,16.5ZM11.5,15L11.5,11L8.5,11L8.5,15L11.5,15ZM16.5,11L16.5,15L19.5,15L19.5,11L16.5,11ZM18,16.5L26,16.5L26,13.5L18,13.5L18,16.5ZM24.5,15L24.5,23L27.5,23L27.5,15L24.5,15ZM16.5,23L16.5,37L19.5,37L19.5,23L16.5,23ZM26,21.5L18,21.5L18,24.5L26,24.5L26,21.5ZM20,7.5C18.067,7.5 16.5,9.067 16.5,11L19.5,11C19.5,10.724 19.724,10.5 20,10.5L20,7.5ZM20,-0.5C13.649,-0.5 8.5,4.649 8.5,11L11.5,11C11.5,6.306 15.306,2.5 20,2.5L20,-0.5Z" fill="#434343"/>
</svg>
