<svg width="16" height="8" viewBox="0 0 16 8" fill="none" xmlns="http://www.w3.org/2000/svg" xmlns:xlink="http://www.w3.org/1999/xlink">
<path d="M1.958,0.43C1.526,0.085 0.897,0.155 0.552,0.586C0.207,1.018 0.277,1.647 0.708,1.992L1.958,0.43ZM8,6.544L7.375,7.325C7.74,7.617 8.259,7.617 8.624,7.325L8,6.544ZM15.291,1.992C15.722,1.647 15.792,1.018 15.447,0.586C15.102,0.155 14.473,0.085 14.042,0.43L15.291,1.992ZM0.708,1.992L7.375,7.325L8.624,5.763L1.958,0.43L0.708,1.992ZM8.624,7.325L15.291,1.992L14.042,0.43L7.375,5.763L8.624,7.325Z" transform="rotate(180 8 3.878)" fill="#434343"/>
</svg>
