<svg width="20" height="20" viewBox="0 0 20 20" fill="none" xmlns="http://www.w3.org/2000/svg" xmlns:xlink="http://www.w3.org/1999/xlink">
<path d="M9.732,-0.063C7.82,-0.063 5.951,0.504 4.362,1.566C2.772,2.628 1.534,4.138 0.802,5.904C0.071,7.67 -0.121,9.613 0.252,11.488C0.625,13.363 1.546,15.085 2.897,16.437C4.249,17.789 5.971,18.709 7.846,19.082C9.721,19.455 11.664,19.264 13.43,18.532C15.196,17.8 16.706,16.562 17.768,14.972C18.83,13.383 19.397,11.514 19.397,9.603C19.397,7.039 18.378,4.581 16.566,2.768C14.753,0.956 12.295,-0.063 9.732,-0.063ZM14.936,9.603C14.938,10.634 14.634,11.642 14.063,12.5C13.491,13.358 12.678,14.027 11.726,14.423C10.774,14.819 9.726,14.923 8.715,14.722C7.703,14.522 6.774,14.026 6.045,13.298C5.315,12.569 4.819,11.64 4.617,10.629C4.416,9.618 4.519,8.57 4.914,7.618C5.309,6.665 5.977,5.851 6.835,5.279C7.693,4.707 8.701,4.402 9.732,4.403C11.108,4.405 12.427,4.952 13.402,5.923C14.377,6.895 14.929,8.212 14.936,9.588L14.936,9.603Z" fill="#555555"/>
</svg>
