<svg width="48" height="46" viewBox="0 0 48 46" fill="none" xmlns="http://www.w3.org/2000/svg" xmlns:xlink="http://www.w3.org/1999/xlink">
<path d="M23.745,0.202C19.219,0.202 14.795,1.544 11.032,4.059C7.268,6.573 4.336,10.147 2.604,14.328C0.872,18.509 0.418,23.11 1.301,27.549C2.184,31.988 4.364,36.066 7.564,39.266C10.764,42.466 14.842,44.645 19.28,45.528C23.719,46.411 28.32,45.958 32.502,44.226C36.683,42.494 40.257,39.561 42.771,35.798C45.286,32.035 46.628,27.611 46.628,23.085C46.628,17.016 44.217,11.196 39.925,6.904C35.634,2.613 29.814,0.202 23.745,0.202ZM36.067,23.085C36.072,25.526 35.352,27.913 33.999,29.945C32.646,31.976 30.72,33.561 28.466,34.498C26.212,35.434 23.731,35.681 21.337,35.207C18.943,34.733 16.743,33.559 15.016,31.833C13.289,30.108 12.113,27.91 11.637,25.516C11.16,23.122 11.405,20.64 12.339,18.385C13.274,16.13 14.857,14.204 16.887,12.849C18.917,11.494 21.304,10.772 23.745,10.774C27.003,10.78 30.127,12.074 32.435,14.374C34.744,16.673 36.049,19.792 36.067,23.051L36.067,23.085Z" fill="#555555"/>
</svg>
