<svg width="28" height="40" viewBox="0 0 28 40" fill="none" xmlns="http://www.w3.org/2000/svg" xmlns:xlink="http://www.w3.org/1999/xlink">
<path d="M26,1.572L27.5,1.572C27.5,0.744 26.828,0.072 26,0.072L26,1.572ZM26,9.572L26,11.072C26.828,11.072 27.5,10.401 27.5,9.572L26,9.572ZM18,37.572L18,39.072C18.828,39.072 19.5,38.401 19.5,37.572L18,37.572ZM10,37.572L8.5,37.572C8.5,38.401 9.172,39.072 10,39.072L10,37.572ZM10,23.572L11.5,23.572C11.5,22.744 10.828,22.072 10,22.072L10,23.572ZM2,23.572L0.5,23.572C0.5,24.401 1.172,25.072 2,25.072L2,23.572ZM2,15.572L2,14.072C1.172,14.072 0.5,14.744 0.5,15.572L2,15.572ZM10,15.572L10,17.072C10.828,17.072 11.5,16.401 11.5,15.572L10,15.572ZM18,15.572L16.5,15.572C16.5,16.401 17.172,17.072 18,17.072L18,15.572ZM26,15.572L27.5,15.572C27.5,14.744 26.828,14.072 26,14.072L26,15.572ZM26,23.572L26,25.072C26.828,25.072 27.5,24.401 27.5,23.572L26,23.572ZM18,23.572L18,22.072C17.172,22.072 16.5,22.744 16.5,23.572L18,23.572ZM20,3.072L26,3.072L26,0.072L20,0.072L20,3.072ZM24.5,1.572L24.5,9.572L27.5,9.572L27.5,1.572L24.5,1.572ZM26,8.072L20,8.072L20,11.072L26,11.072L26,8.072ZM18,36.072L10,36.072L10,39.072L18,39.072L18,36.072ZM11.5,37.572L11.5,23.572L8.5,23.572L8.5,37.572L11.5,37.572ZM10,22.072L2,22.072L2,25.072L10,25.072L10,22.072ZM3.5,23.572L3.5,15.572L0.5,15.572L0.5,23.572L3.5,23.572ZM2,17.072L10,17.072L10,14.072L2,14.072L2,17.072ZM11.5,15.572L11.5,11.572L8.5,11.572L8.5,15.572L11.5,15.572ZM16.5,11.572L16.5,15.572L19.5,15.572L19.5,11.572L16.5,11.572ZM18,17.072L26,17.072L26,14.072L18,14.072L18,17.072ZM24.5,15.572L24.5,23.572L27.5,23.572L27.5,15.572L24.5,15.572ZM16.5,23.572L16.5,37.572L19.5,37.572L19.5,23.572L16.5,23.572ZM26,22.072L18,22.072L18,25.072L26,25.072L26,22.072ZM20,8.072C18.067,8.072 16.5,9.639 16.5,11.572L19.5,11.572C19.5,11.296 19.724,11.072 20,11.072L20,8.072ZM20,0.072C13.649,0.072 8.5,5.221 8.5,11.572L11.5,11.572C11.5,6.878 15.306,3.072 20,3.072L20,0.072Z" fill="#434343"/>
</svg>
