<svg width="20" height="28" viewBox="0 0 20 28" fill="none" xmlns="http://www.w3.org/2000/svg" xmlns:xlink="http://www.w3.org/1999/xlink">
<path d="M0.939,8.232C0.354,8.818 0.354,9.768 0.939,10.354C1.525,10.939 2.475,10.939 3.061,10.354L0.939,8.232ZM10,1.293L11.061,0.232C10.475,-0.353 9.525,-0.353 8.939,0.232L10,1.293ZM16.939,10.354C17.525,10.939 18.475,10.939 19.061,10.354C19.646,9.768 19.646,8.818 19.061,8.232L16.939,10.354ZM8.5,25.293C8.5,26.121 9.172,26.793 10,26.793C10.828,26.793 11.5,26.121 11.5,25.293L8.5,25.293ZM3.061,10.354L11.061,2.354L8.939,0.232L0.939,8.232L3.061,10.354ZM8.939,2.354L16.939,10.354L19.061,8.232L11.061,0.232L8.939,2.354ZM8.5,1.293L8.5,25.293L11.5,25.293L11.5,1.293L8.5,1.293Z" transform="rotate(180 10 13.293)" fill="#FFFFFF"/>
</svg>
