<svg width="42" height="32" viewBox="0 0 42 32" fill="none" xmlns="http://www.w3.org/2000/svg" xmlns:xlink="http://www.w3.org/1999/xlink">
<path d="M39.625,7.939L38.625,6.939C35,3.439 30.438,1.064 25.5,0.064C25.125,0.001 24.813,0.064 24.5,0.251C24.188,0.439 24,0.751 24,1.126C23.813,3.126 22.125,4.689 20.063,4.689C18,4.689 16.313,3.189 16.125,1.126C16.063,0.751 15.875,0.439 15.625,0.251C15.313,0.064 15,-0.061 14.625,0.064C9.688,1.064 5.125,3.439 1.5,6.939L0.5,7.939C0.063,8.314 0,9.001 0.312,9.501L3.688,15.064C4.063,15.626 4.813,15.814 5.375,15.501L8.563,13.564L8.563,30.564C8.563,31.251 9.125,31.814 9.813,31.814L30.375,31.814C31.063,31.814 31.625,31.251 31.625,30.564L31.625,13.501L34.813,15.439C35.375,15.814 36.188,15.626 36.5,15.001L39.875,9.439C40.125,9.001 40.063,8.314 39.625,7.939ZM34.938,12.626L30.938,10.189C30.563,9.939 30.063,9.939 29.688,10.189C29.313,10.439 29.063,10.814 29.063,11.251L29.063,29.189L10.938,29.189L10.938,11.251C10.938,10.814 10.688,10.376 10.313,10.189C9.938,9.939 9.438,10.001 9.063,10.189L5.063,12.626L2.875,9.001L3.125,8.751C6.125,5.876 9.813,3.814 13.875,2.814C14.75,5.439 17.188,7.251 20,7.251C22.813,7.251 25.25,5.439 26.125,2.814C30.125,3.876 33.813,5.876 36.875,8.751L37.188,9.064L34.938,12.626Z" fill="#434343"/>
</svg>
