<svg width="58" height="38" viewBox="0 0 58 38" fill="none" xmlns="http://www.w3.org/2000/svg" xmlns:xlink="http://www.w3.org/1999/xlink">
<path d="M22.88,0.112C21.767,0.112 20.864,1.015 20.864,2.128C20.864,3.241 21.767,4.144 22.88,4.144L22.88,0.112ZM39.008,4.144C40.121,4.144 41.024,3.241 41.024,2.128C41.024,1.015 40.121,0.112 39.008,0.112L39.008,4.144ZM22.88,21.616C21.767,21.616 20.864,22.519 20.864,23.632C20.864,24.745 21.767,25.648 22.88,25.648L22.88,21.616ZM39.008,25.648C40.121,25.648 41.024,24.745 41.024,23.632C41.024,22.519 40.121,21.616 39.008,21.616L39.008,25.648ZM22.88,10.864C21.767,10.864 20.864,11.767 20.864,12.88C20.864,13.993 21.767,14.896 22.88,14.896L22.88,10.864ZM55.136,14.896C56.249,14.896 57.152,13.993 57.152,12.88C57.152,11.767 56.249,10.864 55.136,10.864L55.136,14.896ZM22.88,32.368C21.767,32.368 20.864,33.271 20.864,34.384C20.864,35.497 21.767,36.4 22.88,36.4L22.88,32.368ZM55.136,36.4C56.249,36.4 57.152,35.497 57.152,34.384C57.152,33.271 56.249,32.368 55.136,32.368L55.136,36.4ZM4.064,4.144L9.44,4.144L9.44,0.112L4.064,0.112L4.064,4.144ZM10.112,4.816L10.112,10.192L14.144,10.192L14.144,4.816L10.112,4.816ZM9.44,10.864L4.064,10.864L4.064,14.896L9.44,14.896L9.44,10.864ZM3.392,10.192L3.392,4.816L-0.64,4.816L-0.64,10.192L3.392,10.192ZM4.064,10.864C3.693,10.864 3.392,10.563 3.392,10.192L-0.64,10.192C-0.64,12.79 1.466,14.896 4.064,14.896L4.064,10.864ZM10.112,10.192C10.112,10.563 9.811,10.864 9.44,10.864L9.44,14.896C12.038,14.896 14.144,12.79 14.144,10.192L10.112,10.192ZM9.44,4.144C9.811,4.144 10.112,4.445 10.112,4.816L14.144,4.816C14.144,2.218 12.038,0.112 9.44,0.112L9.44,4.144ZM4.064,0.112C1.466,0.112 -0.64,2.218 -0.64,4.816L3.392,4.816C3.392,4.445 3.693,4.144 4.064,4.144L4.064,0.112ZM4.064,25.648L9.44,25.648L9.44,21.616L4.064,21.616L4.064,25.648ZM10.112,26.32L10.112,31.696L14.144,31.696L14.144,26.32L10.112,26.32ZM9.44,32.368L4.064,32.368L4.064,36.4L9.44,36.4L9.44,32.368ZM3.392,31.696L3.392,26.32L-0.64,26.32L-0.64,31.696L3.392,31.696ZM4.064,32.368C3.693,32.368 3.392,32.067 3.392,31.696L-0.64,31.696C-0.64,34.294 1.466,36.4 4.064,36.4L4.064,32.368ZM10.112,31.696C10.112,32.067 9.811,32.368 9.44,32.368L9.44,36.4C12.038,36.4 14.144,34.294 14.144,31.696L10.112,31.696ZM9.44,25.648C9.811,25.648 10.112,25.949 10.112,26.32L14.144,26.32C14.144,23.722 12.038,21.616 9.44,21.616L9.44,25.648ZM4.064,21.616C1.466,21.616 -0.64,23.722 -0.64,26.32L3.392,26.32C3.392,25.949 3.693,25.648 4.064,25.648L4.064,21.616ZM22.88,4.144L39.008,4.144L39.008,0.112L22.88,0.112L22.88,4.144ZM22.88,25.648L39.008,25.648L39.008,21.616L22.88,21.616L22.88,25.648ZM22.88,14.896L55.136,14.896L55.136,10.864L22.88,10.864L22.88,14.896ZM22.88,36.4L55.136,36.4L55.136,32.368L22.88,32.368L22.88,36.4Z" fill="#FFFFFF"/>
</svg>
