<svg width="20" height="28" viewBox="0 0 20 28" fill="none" xmlns="http://www.w3.org/2000/svg" xmlns:xlink="http://www.w3.org/1999/xlink">
<path d="M-0.061,8.939C-0.646,9.525 -0.646,10.475 -0.061,11.061C0.525,11.646 1.475,11.646 2.061,11.061L-0.061,8.939ZM9,2L10.061,0.939C9.475,0.354 8.525,0.354 7.939,0.939L9,2ZM15.939,11.061C16.525,11.646 17.475,11.646 18.061,11.061C18.646,10.475 18.646,9.525 18.061,8.939L15.939,11.061ZM7.5,26C7.5,26.828 8.172,27.5 9,27.5C9.828,27.5 10.5,26.828 10.5,26L7.5,26ZM2.061,11.061L10.061,3.061L7.939,0.939L-0.061,8.939L2.061,11.061ZM7.939,3.061L15.939,11.061L18.061,8.939L10.061,0.939L7.939,3.061ZM7.5,2L7.5,26L10.5,26L10.5,2L7.5,2Z" transform="rotate(-360 9 14)" fill="#262626"/>
</svg>
