<svg width="20" height="28" viewBox="0 0 20 28" fill="none" xmlns="http://www.w3.org/2000/svg" xmlns:xlink="http://www.w3.org/1999/xlink">
<path d="M0.939,8.64C0.354,9.225 0.354,10.175 0.939,10.761C1.525,11.347 2.475,11.347 3.061,10.761L0.939,8.64ZM10,1.7L11.061,0.64C10.475,0.054 9.525,0.054 8.939,0.64L10,1.7ZM16.939,10.761C17.525,11.347 18.475,11.347 19.061,10.761C19.646,10.175 19.646,9.225 19.061,8.64L16.939,10.761ZM8.5,25.7C8.5,26.529 9.172,27.2 10,27.2C10.828,27.2 11.5,26.529 11.5,25.7L8.5,25.7ZM3.061,10.761L11.061,2.761L8.939,0.64L0.939,8.64L3.061,10.761ZM8.939,2.761L16.939,10.761L19.061,8.64L11.061,0.64L8.939,2.761ZM8.5,1.7L8.5,25.7L11.5,25.7L11.5,1.7L8.5,1.7Z" transform="rotate(180 10 13.7)" fill="#FFFFFF"/>
</svg>
