<svg width="40" height="40" viewBox="0 0 40 40" fill="none" xmlns="http://www.w3.org/2000/svg" xmlns:xlink="http://www.w3.org/1999/xlink">
<path d="M36.168,38.604C36.753,39.19 37.703,39.19 38.289,38.604C38.875,38.019 38.875,37.069 38.289,36.483L36.168,38.604ZM34.78,32.974C34.194,32.389 33.245,32.389 32.659,32.974C32.073,33.56 32.073,34.51 32.659,35.096L34.78,32.974ZM3.641,19.123C3.641,10.746 10.431,3.956 18.807,3.956L18.807,0.956C8.774,0.956 0.641,9.09 0.641,19.123L3.641,19.123ZM18.807,3.956C27.184,3.956 33.974,10.746 33.974,19.123L36.974,19.123C36.974,9.09 28.84,0.956 18.807,0.956L18.807,3.956ZM33.974,19.123C33.974,27.499 27.184,34.289 18.807,34.289L18.807,37.289C28.84,37.289 36.974,29.156 36.974,19.123L33.974,19.123ZM18.807,34.289C10.431,34.289 3.641,27.499 3.641,19.123L0.641,19.123C0.641,29.156 8.774,37.289 18.807,37.289L18.807,34.289ZM38.289,36.483L34.78,32.974L32.659,35.096L36.168,38.604L38.289,36.483Z" fill="#262626"/>
</svg>
