<svg width="30" height="28" viewBox="0 0 30 28" fill="none" xmlns="http://www.w3.org/2000/svg" xmlns:xlink="http://www.w3.org/1999/xlink">
<path d="M14.751,4.245L13.993,4.943C14.188,5.155 14.463,5.276 14.751,5.276C15.04,5.276 15.315,5.155 15.51,4.943L14.751,4.245ZM15.693,3.222L16.452,3.921L16.452,3.921L15.693,3.222ZM13.81,3.222L14.568,2.523L14.568,2.523L13.81,3.222ZM3.001,14.519L2.217,15.189L3.001,14.519ZM10.874,23.747L10.09,24.416L10.874,23.747ZM18.628,23.747L19.413,24.416L19.413,24.416L18.628,23.747ZM26.502,14.519L27.286,15.188L27.286,15.188L26.502,14.519ZM26.304,3.222L25.545,3.921L26.304,3.222ZM3.199,3.222L3.958,3.921L3.199,3.222ZM15.51,4.943L16.452,3.921L14.935,2.523L13.993,3.546L15.51,4.943ZM13.051,3.921L13.993,4.943L15.51,3.546L14.568,2.523L13.051,3.921ZM2.217,15.189L10.09,24.416L11.659,23.077L3.785,13.85L2.217,15.189ZM19.413,24.416L27.286,15.188L25.717,13.85L17.844,23.077L19.413,24.416ZM25.545,3.921C28.041,6.631 28.121,11.033 25.717,13.85L27.286,15.188C30.364,11.582 30.268,6.005 27.062,2.523L25.545,3.921ZM27.062,2.523C23.724,-1.102 18.273,-1.102 14.935,2.523L16.452,3.921C18.973,1.183 23.024,1.183 25.545,3.921L27.062,2.523ZM3.958,3.921C6.479,1.183 10.53,1.183 13.051,3.921L14.568,2.523C11.23,-1.101 5.779,-1.101 2.441,2.523L3.958,3.921ZM10.09,24.416C12.593,27.35 16.91,27.35 19.413,24.416L17.844,23.077C16.164,25.046 13.339,25.046 11.659,23.077L10.09,24.416ZM2.441,2.523C-0.766,6.005 -0.861,11.582 2.217,15.189L3.785,13.85C1.382,11.033 1.462,6.631 3.958,3.921L2.441,2.523Z" fill="#28303F"/>
</svg>
