<svg width="24" height="12" viewBox="0 0 24 12" fill="none" xmlns="http://www.w3.org/2000/svg" xmlns:xlink="http://www.w3.org/1999/xlink">
<path d="M2.988,0.014C2.364,-0.532 1.417,-0.469 0.871,0.155C0.326,0.778 0.389,1.726 1.012,2.271L2.988,0.014ZM12,9.893L11.012,11.021C11.578,11.516 12.422,11.516 12.988,11.021L12,9.893ZM22.988,2.271C23.611,1.726 23.674,0.778 23.129,0.155C22.583,-0.469 21.636,-0.532 21.012,0.014L22.988,2.271ZM1.012,2.271L11.012,11.021L12.988,8.764L2.988,0.014L1.012,2.271ZM12.988,11.021L22.988,2.271L21.012,0.014L11.012,8.764L12.988,11.021Z" transform="rotate(0 12 5.518)" fill="#7B7B7B"/>
</svg>
