<svg width="44" height="40" viewBox="0 0 44 40" fill="none" xmlns="http://www.w3.org/2000/svg" xmlns:xlink="http://www.w3.org/1999/xlink">
<path d="M10.832,9.324C10.143,8.865 9.211,9.051 8.752,9.74C8.292,10.43 8.479,11.361 9.168,11.82L10.832,9.324ZM17.562,15.614L18.394,14.366L18.394,14.366L17.562,15.614ZM26.438,15.614L25.606,14.366L25.606,14.366L26.438,15.614ZM34.832,11.82C35.521,11.361 35.708,10.43 35.248,9.74C34.789,9.051 33.857,8.865 33.168,9.324L34.832,11.82ZM10,2.072L34,2.072L34,-0.928L10,-0.928L10,2.072ZM40.5,8.572L40.5,28.572L43.5,28.572L43.5,8.572L40.5,8.572ZM34,35.072L10,35.072L10,38.072L34,38.072L34,35.072ZM3.5,28.572L3.5,8.572L0.5,8.572L0.5,28.572L3.5,28.572ZM10,35.072C6.41,35.072 3.5,32.162 3.5,28.572L0.5,28.572C0.5,33.819 4.753,38.072 10,38.072L10,35.072ZM40.5,28.572C40.5,32.162 37.59,35.072 34,35.072L34,38.072C39.247,38.072 43.5,33.819 43.5,28.572L40.5,28.572ZM34,2.072C37.59,2.072 40.5,4.982 40.5,8.572L43.5,8.572C43.5,3.326 39.247,-0.928 34,-0.928L34,2.072ZM10,-0.928C4.753,-0.928 0.5,3.326 0.5,8.572L3.5,8.572C3.5,4.982 6.41,2.072 10,2.072L10,-0.928ZM9.168,11.82L16.73,16.862L18.394,14.366L10.832,9.324L9.168,11.82ZM27.27,16.862L34.832,11.82L33.168,9.324L25.606,14.366L27.27,16.862ZM16.73,16.862C19.921,18.989 24.079,18.989 27.27,16.862L25.606,14.366C23.422,15.821 20.578,15.821 18.394,14.366L16.73,16.862Z" fill="#C4C4C4"/>
</svg>
