<svg width="46" height="26" viewBox="0 0 46 26" fill="none" xmlns="http://www.w3.org/2000/svg" xmlns:xlink="http://www.w3.org/1999/xlink">
<path d="M3.007,1.432C2.421,0.846 1.47,0.846 0.883,1.432C0.297,2.019 0.297,2.97 0.883,3.556L3.007,1.432ZM45.062,3.556C45.649,2.97 45.649,2.019 45.062,1.432C44.475,0.846 43.524,0.846 42.938,1.432L45.062,3.556ZM0.883,3.556L20.496,23.169L22.62,21.045L3.007,1.432L0.883,3.556ZM25.449,23.169L45.062,3.556L42.938,1.432L23.325,21.045L25.449,23.169ZM20.496,23.169C21.864,24.537 24.081,24.537 25.449,23.169L23.325,21.045C23.13,21.24 22.815,21.24 22.62,21.045L20.496,23.169Z" fill="#0073E6"/>
</svg>
