<svg width="20" height="10" viewBox="0 0 20 10" fill="none" xmlns="http://www.w3.org/2000/svg" xmlns:xlink="http://www.w3.org/1999/xlink">
<path d="M2.604,-0.504C1.957,-1.022 1.013,-0.917 0.496,-0.27C-0.022,0.377 0.083,1.321 0.73,1.838L2.604,-0.504ZM10,7.334L9.063,8.505C9.611,8.943 10.39,8.943 10.937,8.505L10,7.334ZM19.271,1.838C19.918,1.321 20.022,0.377 19.505,-0.27C18.987,-0.917 18.044,-1.022 17.397,-0.504L19.271,1.838ZM0.73,1.838L9.063,8.505L10.937,6.162L2.604,-0.504L0.73,1.838ZM10.937,8.505L19.271,1.838L17.397,-0.504L9.063,6.162L10.937,8.505Z" transform="rotate(180 10 4)" fill="#28303F"/>
</svg>
