<svg width="68" height="84" viewBox="0 0 68 84" fill="none" xmlns="http://www.w3.org/2000/svg" xmlns:xlink="http://www.w3.org/1999/xlink">
<path d="M60.253,59.908C60.203,59.887 60.151,59.868 60.098,59.853L49.844,56.75C50.783,56.441 51.592,55.879 52.161,55.141C52.729,54.403 53.028,53.525 53.017,52.628L53.017,49.832C53.209,49.845 53.422,49.854 53.6,49.854C55.09,49.853 56.539,49.411 57.72,48.595C58.902,47.78 59.75,46.638 60.133,45.347L62.828,36.177C63.645,33.375 62.045,30.509 59.356,29.26L59.356,22.414C59.356,9.889 47.97,-0.301 34,-0.301C20.03,-0.301 8.644,9.889 8.644,22.414L8.644,29.26C5.955,30.509 4.344,33.374 5.16,36.177L7.838,45.347C8.062,46.113 8.451,46.833 8.985,47.465C9.519,48.096 10.186,48.627 10.949,49.028C11.711,49.428 12.554,49.69 13.43,49.798C14.305,49.906 15.196,49.858 16.051,49.658L20.518,48.611C21.775,49.769 23.21,50.761 24.78,51.555L24.78,54.745L7.892,59.853C7.842,59.868 7.793,59.887 7.746,59.908C5.606,60.871 3.775,62.309 2.428,64.084C1.08,65.859 0.26,67.913 0.045,70.051C0.043,70.08 0,70.108 0,70.137L0,82.619C0.017,82.906 0.154,83.176 0.383,83.376C0.612,83.576 0.917,83.692 1.237,83.699L66.763,83.699C67.083,83.692 67.388,83.576 67.617,83.376C67.846,83.176 67.983,82.906 68,82.619L68,70.137C68,70.108 67.956,70.08 67.954,70.051C67.739,67.912 66.919,65.858 65.571,64.083C64.224,62.308 62.393,60.871 60.253,59.908ZM24.78,81.632L10.565,81.632L10.565,77.323C10.565,77.188 10.535,77.054 10.478,76.929C10.42,76.804 10.335,76.691 10.229,76.595C10.122,76.499 9.995,76.424 9.856,76.372C9.717,76.32 9.567,76.293 9.416,76.293L9.408,76.293C9.258,76.293 9.108,76.32 8.969,76.372C8.829,76.424 8.703,76.499 8.596,76.595C8.49,76.691 8.405,76.804 8.347,76.929C8.29,77.054 8.26,77.188 8.26,77.323L8.26,81.632L2.305,81.632L2.305,70.181C2.689,67.944 3.598,65.849 5.215,64.197C6.791,66.067 7.809,68.267 8.172,70.588C8.217,70.859 8.379,71.102 8.624,71.266C8.868,71.43 9.175,71.5 9.477,71.462C9.779,71.424 10.052,71.28 10.237,71.063C10.421,70.845 10.502,70.57 10.462,70.299C10.016,67.568 8.806,64.982 6.946,62.782C7.497,62.404 8.086,62.071 8.705,61.788L24.78,56.926L24.78,81.632ZM50.712,52.628C50.712,53.915 49.638,54.937 48.203,54.937L43.854,54.937L43.22,54.746L43.22,51.552C44.781,50.756 46.21,49.769 47.468,48.62L50.712,49.39L50.712,52.628ZM50.99,47.297L49.051,46.843L53.958,30.001L55.898,30.455L50.99,47.297ZM51.121,29.336C51.113,29.444 51.073,29.547 51.004,29.635L49.514,30.26L48.987,28.311C47.696,23.526 44.463,19.343 39.919,16.579C39.669,16.427 39.364,16.369 39.067,16.417C38.77,16.465 38.506,16.615 38.332,16.835C36.728,18.854 34.554,20.455 32.032,21.472C29.51,22.489 26.732,22.887 23.983,22.623L22.573,22.487C22.324,22.463 22.071,22.484 21.831,22.549C21.591,22.614 21.367,22.722 21.174,22.865C20.981,23.009 20.822,23.186 20.706,23.385C20.59,23.585 20.52,23.803 20.5,24.028L19.969,29.984C19.174,29.854 18.016,29.634 16.978,29.417C16.923,29.369 16.889,29.305 16.884,29.236L16.48,24.001C16.315,21.846 16.645,19.684 17.451,17.649C18.256,15.613 19.52,13.748 21.164,12.17C22.808,10.591 24.796,9.332 27.005,8.471C29.214,7.611 31.597,7.167 34.006,7.167C36.415,7.167 38.798,7.611 41.007,8.471C43.216,9.332 45.204,10.591 46.848,12.17C48.492,13.748 49.756,15.613 50.561,17.649C51.367,19.684 51.698,21.846 51.532,24.001L51.121,29.336ZM60.599,35.654L57.927,44.824C57.66,45.734 57.042,46.529 56.183,47.069C55.324,47.608 54.279,47.856 53.234,47.769L58.113,31.029C59.071,31.411 59.847,32.086 60.302,32.933C60.757,33.78 60.862,34.744 60.599,35.654ZM10.949,22.414C10.949,11.029 21.301,1.766 34,1.766C46.699,1.766 57.051,11.029 57.051,22.414L57.051,28.584L53.553,27.767L53.831,24.143C54.019,21.706 53.645,19.26 52.734,16.958C51.822,14.656 50.393,12.546 48.533,10.76C46.674,8.974 44.425,7.55 41.926,6.577C39.427,5.603 36.731,5.1 34.006,5.1C31.281,5.1 28.586,5.603 26.087,6.577C23.587,7.55 21.338,8.974 19.479,10.76C17.62,12.546 16.19,14.656 15.279,16.958C14.367,19.26 13.993,21.706 14.181,24.143L14.46,27.765L10.949,28.584L10.949,22.414ZM10.073,44.824L7.401,35.654C7.137,34.744 7.243,33.78 7.698,32.932C8.153,32.085 8.929,31.41 9.887,31.028L14.766,47.768C13.722,47.855 12.677,47.607 11.817,47.068C10.958,46.529 10.34,45.734 10.073,44.824ZM17.01,47.297L12.102,30.455L14.042,30.001L18.949,46.843L17.01,47.297ZM21.116,46.104L16.865,31.516C21.034,32.377 21.276,32.221 21.694,31.948C21.831,31.858 21.945,31.743 22.028,31.611C22.11,31.478 22.16,31.331 22.174,31.179L22.762,24.585L23.735,24.679C26.696,24.962 29.69,24.579 32.444,23.563C35.198,22.547 37.626,20.93 39.507,18.86C43.122,21.33 45.678,24.839 46.746,28.799L47.605,31.975C47.645,32.124 47.722,32.263 47.829,32.382C47.937,32.501 48.072,32.597 48.226,32.663C48.38,32.729 48.549,32.764 48.719,32.765C48.89,32.766 49.059,32.732 49.214,32.667L51.022,31.91L46.882,46.112C45.332,47.838 43.369,49.231 41.139,50.188C38.909,51.145 36.469,51.641 33.996,51.64C31.524,51.639 29.084,51.142 26.855,50.184C24.625,49.226 22.664,47.832 21.115,46.104L21.116,46.104ZM39.571,54.765L39.571,57.349L33.616,57.349L33.616,54.765L39.571,54.765ZM40.915,81.632L27.085,81.632L27.085,62.461C29.223,63.451 31.594,63.968 34,63.968C36.406,63.968 38.777,63.451 40.915,62.461L40.915,81.632ZM40.915,60.078C38.853,61.268 36.452,61.901 34,61.901C31.548,61.901 29.147,61.268 27.085,60.078L27.085,52.536C28.486,53.037 29.951,53.378 31.447,53.552C31.356,53.746 31.31,53.954 31.311,54.165L31.311,57.858C31.311,58.675 31.97,59.415 32.881,59.415L40.302,59.415C40.514,59.415 40.723,59.374 40.915,59.293L40.915,60.078ZM57.435,81.632L43.22,81.632L43.22,57.004L43.475,57.004L59.284,61.788C59.93,62.085 60.543,62.437 61.114,62.84C58.735,65.638 57.443,69.057 57.435,72.576L57.435,81.632ZM65.695,81.632L59.74,81.632L59.74,72.576C59.764,69.584 60.849,66.676 62.84,64.274C64.415,65.914 65.311,67.979 65.695,70.182L65.695,81.632Z" fill="#3E60C9"/>
</svg>
