<svg width="36" height="36" viewBox="0 0 36 36" fill="none" xmlns="http://www.w3.org/2000/svg" xmlns:xlink="http://www.w3.org/1999/xlink">
<path d="M32.5,28C32.5,30.485 30.485,32.5 28,32.5L28,35.5C32.142,35.5 35.5,32.142 35.5,28L32.5,28ZM28,32.5C25.515,32.5 23.5,30.485 23.5,28L20.5,28C20.5,32.142 23.858,35.5 28,35.5L28,32.5ZM23.5,28C23.5,25.515 25.515,23.5 28,23.5L28,20.5C23.858,20.5 20.5,23.858 20.5,28L23.5,28ZM28,23.5C30.485,23.5 32.5,25.515 32.5,28L35.5,28C35.5,23.858 32.142,20.5 28,20.5L28,23.5ZM26,3.5L30,3.5L30,0.5L26,0.5L26,3.5ZM32.5,6L32.5,10L35.5,10L35.5,6L32.5,6ZM30,12.5L26,12.5L26,15.5L30,15.5L30,12.5ZM23.5,10L23.5,6L20.5,6L20.5,10L23.5,10ZM26,12.5C24.619,12.5 23.5,11.381 23.5,10L20.5,10C20.5,13.038 22.962,15.5 26,15.5L26,12.5ZM32.5,10C32.5,11.381 31.381,12.5 30,12.5L30,15.5C33.038,15.5 35.5,13.038 35.5,10L32.5,10ZM30,3.5C31.381,3.5 32.5,4.619 32.5,6L35.5,6C35.5,2.962 33.038,0.5 30,0.5L30,3.5ZM26,0.5C22.962,0.5 20.5,2.962 20.5,6L23.5,6C23.5,4.619 24.619,3.5 26,3.5L26,0.5ZM6,3.5L10,3.5L10,0.5L6,0.5L6,3.5ZM12.5,6L12.5,10L15.5,10L15.5,6L12.5,6ZM10,12.5L6,12.5L6,15.5L10,15.5L10,12.5ZM3.5,10L3.5,6L0.5,6L0.5,10L3.5,10ZM6,12.5C4.619,12.5 3.5,11.381 3.5,10L0.5,10C0.5,13.038 2.962,15.5 6,15.5L6,12.5ZM12.5,10C12.5,11.381 11.381,12.5 10,12.5L10,15.5C13.038,15.5 15.5,13.038 15.5,10L12.5,10ZM10,3.5C11.381,3.5 12.5,4.619 12.5,6L15.5,6C15.5,2.962 13.038,0.5 10,0.5L10,3.5ZM6,0.5C2.962,0.5 0.5,2.962 0.5,6L3.5,6C3.5,4.619 4.619,3.5 6,3.5L6,0.5ZM6,23.5L10,23.5L10,20.5L6,20.5L6,23.5ZM12.5,26L12.5,30L15.5,30L15.5,26L12.5,26ZM10,32.5L6,32.5L6,35.5L10,35.5L10,32.5ZM3.5,30L3.5,26L0.5,26L0.5,30L3.5,30ZM6,32.5C4.619,32.5 3.5,31.381 3.5,30L0.5,30C0.5,33.038 2.962,35.5 6,35.5L6,32.5ZM12.5,30C12.5,31.381 11.381,32.5 10,32.5L10,35.5C13.038,35.5 15.5,33.038 15.5,30L12.5,30ZM10,23.5C11.381,23.5 12.5,24.619 12.5,26L15.5,26C15.5,22.962 13.038,20.5 10,20.5L10,23.5ZM6,20.5C2.962,20.5 0.5,22.962 0.5,26L3.5,26C3.5,24.619 4.619,23.5 6,23.5L6,20.5Z" fill="#434343"/>
</svg>
