<svg width="16" height="10" viewBox="0 0 16 10" fill="none" xmlns="http://www.w3.org/2000/svg" xmlns:xlink="http://www.w3.org/1999/xlink">
<path d="M1.04,-0.041C0.65,-0.432 0.016,-0.432 -0.374,-0.041C-0.765,0.349 -0.765,0.983 -0.374,1.373L1.04,-0.041ZM7,7.333L6.293,8.04C6.48,8.227 6.734,8.333 7,8.333C7.265,8.333 7.519,8.227 7.707,8.04L7,7.333ZM14.373,1.373C14.764,0.983 14.764,0.349 14.373,-0.041C13.983,-0.432 13.35,-0.432 12.959,-0.041L14.373,1.373ZM-0.374,1.373L6.293,8.04L7.707,6.626L1.04,-0.041L-0.374,1.373ZM7.707,8.04L14.373,1.373L12.959,-0.041L6.293,6.626L7.707,8.04Z" transform="rotate(0 7 3.999)" fill="#FFFFFF"/>
</svg>
