<svg width="28" height="38" viewBox="0 0 28 38" fill="none" xmlns="http://www.w3.org/2000/svg" xmlns:xlink="http://www.w3.org/1999/xlink">
<path d="M-0.041,12.077C-0.637,12.652 -0.655,13.601 -0.08,14.198C0.495,14.794 1.445,14.812 2.041,14.237L-0.041,12.077ZM13,1.592L14.041,0.512C13.46,-0.048 12.54,-0.048 11.959,0.512L13,1.592ZM23.959,14.237C24.556,14.812 25.505,14.794 26.08,14.198C26.655,13.601 26.638,12.652 26.041,12.077L23.959,14.237ZM11.5,36.287C11.5,37.116 12.172,37.787 13,37.787C13.829,37.787 14.5,37.116 14.5,36.287L11.5,36.287ZM2.041,14.237L14.041,2.672L11.959,0.512L-0.041,12.077L2.041,14.237ZM11.959,2.672L23.959,14.237L26.041,12.077L14.041,0.512L11.959,2.672ZM11.5,1.592L11.5,36.287L14.5,36.287L14.5,1.592L11.5,1.592Z" transform="rotate(-180 13 18.939)" fill="#262626"/>
</svg>
