<svg width="20" height="10" viewBox="0 0 20 10" fill="none" xmlns="http://www.w3.org/2000/svg" xmlns:xlink="http://www.w3.org/1999/xlink">
<path d="M2.604,-0.505C1.957,-1.023 1.013,-0.918 0.496,-0.271C-0.022,0.376 0.083,1.32 0.73,1.837L2.604,-0.505ZM10,7.333L9.063,8.504C9.611,8.942 10.39,8.942 10.937,8.504L10,7.333ZM19.271,1.837C19.918,1.32 20.022,0.376 19.505,-0.271C18.987,-0.918 18.044,-1.023 17.397,-0.505L19.271,1.837ZM0.73,1.837L9.063,8.504L10.937,6.161L2.604,-0.505L0.73,1.837ZM10.937,8.504L19.271,1.837L17.397,-0.505L9.063,6.161L10.937,8.504Z" transform="rotate(180 10 3.999)" fill="#28303F"/>
</svg>
