<svg width="72" height="70" viewBox="0 0 72 70" fill="none" xmlns="http://www.w3.org/2000/svg" xmlns:xlink="http://www.w3.org/1999/xlink">
<path d="M19.104,3.81L19.104,66.19C13.665,63.408 9.044,59.258 5.697,54.146C2.095,48.645 0,42.067 0,35C0,27.933 2.095,21.356 5.697,15.853C9.044,10.743 13.665,6.592 19.104,3.81Z" fill="#F6F6F6"/>
<path d="M70,35C70.011,41.802 68.03,48.457 64.302,54.147C58.052,63.694 47.262,70 34.999,70C29.275,70 23.873,68.626 19.103,66.19L19.103,3.81C23.874,1.374 29.276,0 35,0C47.263,0 58.053,6.307 64.304,15.853C68.031,21.543 70.012,28.198 70.001,35L70,35Z" fill="#014510"/>
<path d="M37.763,21.099C36.24,21.826 34.852,22.808 33.66,24.003C27.865,29.798 27.865,39.194 33.66,44.989C39.456,50.784 48.851,50.784 54.646,44.989C55.841,43.797 56.823,42.409 57.55,40.886C52.066,46.084 43.406,45.996 38.03,40.618C32.654,35.241 32.567,26.583 37.763,21.099Z" fill="#F6F6F6"/>
<path d="M52.931,24.194L50.531,21.857L51.011,25.172L48.046,26.733L51.348,27.301L51.916,30.602L53.477,27.638L56.792,28.118L54.455,25.718L55.936,22.713L52.931,24.194Z" fill="#F6F6F6"/>
</svg>
