<svg width="50" height="50" viewBox="0 0 50 50" fill="none" xmlns="http://www.w3.org/2000/svg" xmlns:xlink="http://www.w3.org/1999/xlink">
<path d="M13.646,2.721L13.646,47.279C9.76,45.292 6.46,42.327 4.07,38.676C1.497,34.746 0,30.048 0,25C0,19.952 1.497,15.254 4.07,11.324C6.46,7.673 9.761,4.708 13.646,2.721Z" fill="#F6F6F6"/>
<path d="M50,25C50.007,29.858 48.593,34.612 45.93,38.676C41.465,45.495 33.758,50 24.999,50C20.911,50 17.052,49.019 13.645,47.279L13.645,2.721C17.052,0.981 20.911,0 25,0C33.759,0 41.466,4.505 45.931,11.324C48.593,15.388 50.008,20.142 50.001,25L50,25Z" fill="#014510"/>
<path d="M26.974,15.071C25.886,15.59 24.895,16.291 24.043,17.145C19.904,21.284 19.904,27.995 24.043,32.135C28.183,36.274 34.894,36.275 39.033,32.135C39.887,31.283 40.588,30.292 41.107,29.205C37.19,32.917 31.004,32.854 27.164,29.013C23.325,25.172 23.262,18.988 26.974,15.071Z" fill="#F6F6F6"/>
<path d="M37.807,17.281L36.093,15.612L36.436,17.98L34.318,19.095L36.676,19.501L37.082,21.859L38.197,19.742L40.565,20.084L38.896,18.37L39.954,16.224L37.807,17.281Z" fill="#F6F6F6"/>
</svg>
