<svg width="84" height="84" viewBox="0 0 84 84" fill="none" xmlns="http://www.w3.org/2000/svg" xmlns:xlink="http://www.w3.org/1999/xlink">
<path d="M22.547,4.2L22.547,77.823C16.128,74.54 10.674,69.641 6.724,63.608C2.473,57.115 0,49.352 0,41.011C0,32.671 2.473,24.908 6.724,18.414C10.674,12.382 16.128,7.483 22.547,4.2Z" fill="#F6F6F6"/>
<path d="M82.615,41.012C82.628,49.039 80.291,56.895 75.891,63.609C68.514,74.877 55.779,82.32 41.306,82.32C34.551,82.32 28.175,80.698 22.545,77.823L22.545,4.201C28.176,1.325 34.553,-0.296 41.308,-0.296C55.781,-0.296 68.515,7.148 75.892,18.415C80.292,25.129 82.629,32.985 82.617,41.012L82.615,41.012Z" fill="#014510"/>
<path d="M44.569,24.604C42.771,25.463 41.134,26.622 39.727,28.032C32.887,34.871 32.887,45.96 39.727,52.8C46.567,59.64 57.655,59.64 64.495,52.8C65.905,51.393 67.064,49.756 67.922,47.958C61.449,54.092 51.228,53.988 44.884,47.642C38.539,41.296 38.436,31.077 44.569,24.604Z" fill="#F6F6F6"/>
<path d="M62.471,28.258L59.638,25.5L60.204,29.413L56.706,31.255L60.602,31.925L61.272,35.821L63.114,32.323L67.027,32.889L64.269,30.056L66.017,26.51L62.471,28.258Z" fill="#F6F6F6"/>
</svg>
